<svg width="546" height="322" viewBox="0 0 546 322" fill="none" xmlns="http://www.w3.org/2000/svg">
<g clip-path="url(#clip0_658_213864)">
<g opacity="0.15">
<path d="M267.713 143.544L268.242 143.015C267.26 142.033 266.353 140.975 265.371 139.767C265.069 139.842 264.767 139.842 264.465 139.918C265.673 141.277 266.731 142.486 267.713 143.544Z" fill="#0F0F0F"/>
<path d="M273.455 144.829L274.06 144.376C272.851 142.714 271.718 141.127 270.585 139.692C270.207 139.617 269.905 139.617 269.527 139.541C270.812 141.278 272.096 143.016 273.455 144.829Z" fill="#0F0F0F"/>
<path d="M262.881 144.149L263.409 143.62C262.73 142.865 262.05 142.11 261.294 141.203C261.068 141.354 260.917 141.505 260.766 141.732C261.521 142.638 262.201 143.469 262.881 144.149Z" fill="#0F0F0F"/>
<path d="M313.644 197.328C314.248 197.328 314.701 197.328 315.155 197.328V196.573C314.701 196.573 314.248 196.573 313.644 196.573C311.151 196.573 307.827 196.497 305.863 196.799L305.939 197.555C307.903 197.253 311.227 197.328 313.644 197.328Z" fill="#0F0F0F"/>
<path d="M308.811 200.501C309.038 200.501 309.265 200.501 309.567 200.501C310.549 200.501 313.268 200.577 314.099 200.501L314.024 199.746C313.268 199.822 310.473 199.746 309.567 199.746C309.265 199.746 309.038 199.746 308.811 199.746C308.434 199.746 308.056 199.822 307.527 199.746V200.501C307.678 200.501 307.829 200.501 307.981 200.501C308.283 200.577 308.585 200.501 308.811 200.501Z" fill="#0F0F0F"/>
<path d="M315.229 205.184L314.852 205.863C315.003 205.939 315.229 206.09 315.38 206.317C316.136 206.845 316.967 207.374 317.722 207.903C317.193 206.845 316.06 205.637 315.229 205.184Z" fill="#0F0F0F"/>
<path d="M313.267 204.354L313.343 203.599C312.89 203.599 312.436 203.599 311.983 203.599C311.832 203.599 311.757 203.599 311.605 203.599C311.983 203.825 312.361 204.052 312.663 204.354C312.814 204.354 313.041 204.354 313.267 204.354Z" fill="#0F0F0F"/>
<path d="M298.537 186.979C299.443 186.904 300.349 186.904 301.407 186.904C303.447 186.904 305.637 186.979 307.677 187.055C309.792 187.13 311.907 187.206 314.022 187.206C316.137 187.206 317.95 187.13 319.612 186.979L319.536 186.224C317.874 186.375 316.062 186.451 314.022 186.451C311.907 186.451 309.792 186.375 307.677 186.3C305.637 186.224 303.447 186.148 301.407 186.148C300.274 186.148 299.216 186.148 298.234 186.224V186.979H298.537Z" fill="#0F0F0F"/>
<path d="M291.66 190.758C289.47 187.963 287.581 185.696 285.693 183.732L285.164 184.261C286.675 185.848 288.186 187.585 289.847 189.7C290.527 190.153 291.207 190.606 291.887 191.06C291.811 190.984 291.736 190.833 291.66 190.758Z" fill="#0F0F0F"/>
<path d="M308.58 183.43C310.242 183.43 311.904 183.505 313.566 183.505C314.548 183.505 315.379 183.581 316.134 183.581C317.418 183.656 318.551 183.732 320.289 183.505L320.213 182.75C318.476 182.901 317.418 182.901 316.134 182.825C315.379 182.75 314.548 182.75 313.566 182.75C311.904 182.75 305.256 182.599 303.594 182.599C300.346 182.599 297.702 182.75 295.285 182.976L295.361 183.732C297.778 183.505 300.346 183.354 303.594 183.354C305.256 183.354 306.918 183.43 308.58 183.43Z" fill="#0F0F0F"/>
<path d="M281.082 182.901C281.384 183.128 281.686 183.43 281.988 183.656C282.593 183.656 283.273 183.656 284.104 183.505L284.028 182.75C282.819 182.901 281.913 182.901 281.082 182.901Z" fill="#0F0F0F"/>
<path d="M323.314 204.278C322.407 203.296 321.425 202.239 320.595 201.181C319.839 200.199 318.857 199.066 317.951 198.084L317.422 198.613C318.328 199.595 319.235 200.728 320.066 201.71C320.897 202.843 321.879 203.825 322.785 204.882C323.692 205.864 324.674 206.922 325.505 207.98C325.807 208.433 326.109 208.81 326.411 209.264L327.015 208.886C326.713 208.433 326.411 207.98 326.033 207.526C325.202 206.318 324.22 205.336 323.314 204.278Z" fill="#0F0F0F"/>
<path d="M323.613 179.727C327.315 183.957 331.092 188.565 335.171 193.928C338.343 198.083 341.743 202.615 345.897 208.356L346.502 207.903C342.347 202.162 338.948 197.629 335.775 193.475C331.62 188.112 327.843 183.504 324.142 179.273L323.613 179.727Z" fill="#0F0F0F"/>
<path d="M327.693 191.211C328.826 192.646 333.207 198.538 334.34 199.973C336.531 202.768 338.419 205.034 340.308 206.998L340.837 206.47C339.024 204.506 337.135 202.315 334.945 199.52C333.811 198.085 329.43 192.193 328.297 190.758C326.107 187.963 324.218 185.696 322.33 183.732L321.801 184.261C323.689 186.225 325.502 188.416 327.693 191.211Z" fill="#0F0F0F"/>
<path d="M281.766 179.653C282.974 179.728 284.258 179.728 285.996 179.804V179.048C284.334 178.973 278.517 178.746 276.629 178.746C276.931 178.973 277.158 179.275 277.46 179.501C278.895 179.577 280.179 179.577 281.766 179.653Z" fill="#0F0F0F"/>
<path d="M320.969 188.868L321.195 189.17C321.8 189.926 322.48 190.757 323.159 191.663C324.595 193.476 325.954 195.365 327.314 197.253C328.674 199.142 330.033 201.03 331.469 202.919C332.904 204.731 334.188 206.318 335.472 207.677L336.001 207.149C334.717 205.789 333.433 204.278 332.073 202.465C330.638 200.652 329.278 198.688 327.918 196.8C326.559 194.911 325.199 193.023 323.764 191.21C323.008 190.228 322.253 189.322 321.573 188.415L320.969 188.868Z" fill="#0F0F0F"/>
<path d="M319.43 193.169L318.832 193.631L330.053 208.158L330.651 207.696L319.43 193.169Z" fill="#0F0F0F"/>
<path d="M316.438 202.314C316.891 202.842 317.42 203.447 317.948 204.051C319.384 205.713 321.045 207.526 322.103 208.961L322.707 208.508C321.65 207.073 319.988 205.26 318.553 203.598C318.024 202.993 317.495 202.389 317.042 201.86L316.438 202.314Z" fill="#0F0F0F"/>
<path d="M316.965 190.303H300.422V191.058H316.965V190.303Z" fill="#0F0F0F"/>
<path d="M310.545 194.458C312.282 194.307 314.095 194.156 315.681 194.307L315.757 193.552C314.171 193.401 312.282 193.552 310.545 193.703C309.336 193.778 308.052 193.93 306.843 193.93C305.559 193.93 304.426 193.778 303.444 193.552L303.293 194.307C304.351 194.534 305.559 194.685 306.919 194.685C308.052 194.609 309.336 194.534 310.545 194.458Z" fill="#0F0F0F"/>
<path d="M286.977 179.727C290.678 183.957 294.455 188.64 298.534 193.928C299.214 194.759 299.818 195.59 300.498 196.496C301.102 196.874 301.707 197.252 302.311 197.629C301.253 196.194 300.196 194.834 299.138 193.475C295.059 188.112 291.207 183.504 287.505 179.273L286.977 179.727Z" fill="#0F0F0F"/>
<path d="M293.098 179.199L293.173 179.955C298.234 179.653 303.673 179.501 309.716 179.501C313.418 179.501 315.306 179.577 317.95 179.653C319.159 179.728 320.443 179.728 322.18 179.804V179.048C320.518 178.973 319.159 178.973 317.95 178.897C315.306 178.822 313.418 178.746 309.716 178.746C303.598 178.746 298.159 178.897 293.098 179.199Z" fill="#0F0F0F"/>
<path d="M264.846 164.922C265.979 166.432 267.112 167.943 268.321 169.605C269.983 171.72 271.796 173.76 273.609 175.724C273.76 175.875 273.911 176.026 274.062 176.177C269.907 170.436 266.508 165.904 263.335 161.749C262.202 160.238 261.069 158.879 260.012 157.443C260.994 159.407 262.202 161.145 263.562 163.033C263.94 163.713 264.393 164.317 264.846 164.922Z" fill="#0F0F0F"/>
<path d="M323.613 211.455C323.915 211.757 324.218 212.134 324.52 212.437L326.937 214.098C326.031 213.041 325.124 211.983 324.218 210.926L323.613 211.455Z" fill="#0F0F0F"/>
<path d="M381.325 242.955C381.627 242.955 381.929 242.955 382.231 242.955C385.933 242.955 387.821 243.03 390.465 243.106C391.674 243.181 392.958 243.181 394.695 243.257V242.501C393.033 242.426 391.674 242.426 390.465 242.35C387.821 242.275 385.933 242.199 382.231 242.199C381.098 242.199 379.965 242.199 378.832 242.199C379.587 242.501 380.418 242.728 381.325 242.955Z" fill="#0F0F0F"/>
<path d="M396.733 242.652L396.129 243.181C396.96 244.163 397.791 245.145 398.622 246.127C398.999 246.127 399.302 246.203 399.679 246.203C398.697 244.994 397.715 243.785 396.733 242.652Z" fill="#0F0F0F"/>
<path d="M418.565 242.955C419.472 242.955 420.227 242.955 420.907 242.955C421.436 242.728 421.964 242.501 422.418 242.199C421.285 242.199 420.076 242.199 418.49 242.199C412.371 242.199 407.008 242.35 401.871 242.652L401.947 243.408C407.083 243.106 412.522 242.955 418.565 242.955Z" fill="#0F0F0F"/>
<path d="M422.949 231.471C422.194 231.546 419.399 231.471 418.493 231.471C418.191 231.471 417.964 231.471 417.737 231.471C417.36 231.471 416.982 231.546 416.453 231.471V232.226C416.604 232.226 416.755 232.226 416.906 232.226C417.284 232.226 417.586 232.226 417.813 232.226C418.039 232.226 418.266 232.226 418.568 232.226C419.55 232.226 422.27 232.302 423.101 232.226L422.949 231.471Z" fill="#0F0F0F"/>
<path d="M402.025 211.682C407.086 211.38 412.525 211.229 418.568 211.229C422.269 211.229 424.158 211.305 426.802 211.38C428.01 211.456 429.294 211.456 431.032 211.531V210.776C429.37 210.7 428.01 210.7 426.802 210.625C424.158 210.549 422.269 210.474 418.568 210.474C412.449 210.474 407.086 210.625 401.949 210.927L402.025 211.682Z" fill="#0F0F0F"/>
<path d="M422.191 235.323C421.738 235.323 421.285 235.323 420.831 235.323C420.378 235.323 419.925 235.323 419.396 235.323C418.867 235.323 418.414 235.323 417.961 235.323L418.036 236.079C418.414 236.003 418.943 236.079 419.396 236.079C419.925 236.079 420.378 236.079 420.831 236.079C421.285 236.079 421.662 236.079 422.116 236.079L422.191 235.323Z" fill="#0F0F0F"/>
<path d="M420.981 238.801C420.754 238.801 420.527 238.801 420.301 238.801L420.452 239.556C420.603 239.556 420.754 239.556 420.981 239.556C421.056 239.556 421.207 239.556 421.283 239.556C421.434 239.556 421.66 239.556 421.963 239.481L421.66 238.801C421.434 238.801 421.207 238.801 420.981 238.801Z" fill="#0F0F0F"/>
<path d="M425.746 234.417L425.293 235.021C426.502 235.928 427.635 237.061 428.617 238.27C428.843 238.118 428.994 237.967 429.221 237.816C428.163 236.532 427.03 235.323 425.746 234.417Z" fill="#0F0F0F"/>
<path d="M425.215 238.799C424.762 238.119 424.46 237.666 423.705 236.91L423.176 237.439C423.856 238.119 424.158 238.572 424.611 239.176C424.838 239.554 425.14 239.932 425.517 240.46C425.593 240.385 425.744 240.309 425.82 240.234L426.122 240.007C425.744 239.554 425.442 239.176 425.215 238.799Z" fill="#0F0F0F"/>
<path d="M430.199 215.987C432.012 217.951 433.901 220.142 436.091 222.937C436.847 223.919 437.602 224.901 438.357 225.959C438.508 225.732 438.584 225.43 438.735 225.203C438.055 224.297 437.375 223.39 436.696 222.559C434.505 219.764 432.616 217.498 430.728 215.534L430.199 215.987Z" fill="#0F0F0F"/>
<path d="M419.474 226.185C421.212 226.034 423.025 225.883 424.611 226.034L424.687 225.278C423.1 225.127 421.212 225.278 419.474 225.429C418.266 225.505 416.982 225.656 415.773 225.656C414.489 225.656 413.356 225.505 412.374 225.278L412.223 226.034C413.28 226.26 414.489 226.411 415.849 226.411C416.982 226.336 418.266 226.26 419.474 226.185Z" fill="#0F0F0F"/>
<path d="M429.293 220.594L429.52 220.896C430.124 221.651 430.804 222.482 431.484 223.389C432.919 225.202 434.279 227.09 435.638 228.979C435.865 229.281 436.016 229.507 436.243 229.81C436.394 229.583 436.545 229.356 436.696 229.13C436.545 228.903 436.394 228.752 436.318 228.525C434.958 226.637 433.599 224.749 432.163 222.936C431.408 221.954 430.653 221.047 429.973 220.141L429.293 220.594Z" fill="#0F0F0F"/>
<path d="M425.895 222.03H409.352V222.786H425.895V222.03Z" fill="#0F0F0F"/>
<path d="M422.57 229.055C423.174 229.055 423.627 229.055 424.08 229.055V228.299C423.627 228.299 423.174 228.299 422.57 228.299C420.077 228.299 416.753 228.224 414.789 228.526L414.865 229.281C416.829 228.979 420.152 229.055 422.57 229.055Z" fill="#0F0F0F"/>
<path d="M407.384 218.706C408.291 218.63 409.197 218.63 410.255 218.63C412.294 218.63 414.485 218.706 416.524 218.781C418.639 218.857 420.755 218.933 422.87 218.933C424.985 218.933 426.798 218.857 428.46 218.706L428.384 217.951C426.722 218.102 424.909 218.177 422.87 218.177C420.755 218.177 418.639 218.102 416.524 218.026C414.485 217.951 412.294 217.875 410.255 217.875C409.122 217.875 408.064 217.875 407.082 217.951V218.706H407.384Z" fill="#0F0F0F"/>
<path d="M427.18 225.354L433.449 233.512C433.6 233.285 433.752 233.134 433.978 232.907L427.784 224.9L427.18 225.354Z" fill="#0F0F0F"/>
<path d="M404.286 215.458C406.704 215.232 409.272 215.081 412.52 215.081C414.182 215.081 420.829 215.232 422.491 215.232C423.473 215.232 424.304 215.307 425.06 215.307C426.344 215.383 427.477 215.458 429.214 215.232L429.139 214.476C427.401 214.627 426.344 214.627 425.06 214.552C424.304 214.476 423.473 214.476 422.491 214.476C420.829 214.476 414.182 214.325 412.52 214.325C409.272 214.325 406.628 214.476 404.211 214.703L404.286 215.458Z" fill="#0F0F0F"/>
<path d="M440.32 214.702L440.396 215.458C440.622 215.458 440.925 215.382 441.151 215.382C441.151 215.156 441.151 214.854 441.151 214.627C440.925 214.702 440.622 214.702 440.32 214.702Z" fill="#0F0F0F"/>
<path d="M438.13 211.681C439.112 211.605 440.17 211.605 441.152 211.53C441.152 211.303 441.152 211.001 441.076 210.774C440.019 210.85 439.037 210.85 438.055 210.926L438.13 211.681Z" fill="#0F0F0F"/>
<path d="M440.322 220.293C437.678 216.969 435.11 213.872 432.542 210.926L431.938 211.455C434.581 214.476 437.225 217.724 440.02 221.199C440.171 220.897 440.247 220.595 440.322 220.293Z" fill="#0F0F0F"/>
<path d="M431.479 235.777L431.253 235.475C429.364 233.36 427.249 230.943 426.569 229.961L425.965 230.414C426.72 231.396 428.835 233.813 430.724 235.928L431.026 236.231C431.101 236.08 431.253 235.929 431.479 235.777Z" fill="#0F0F0F"/>
<path d="M376.114 215.081C377.776 215.081 384.423 215.232 386.085 215.232C387.067 215.232 387.898 215.307 388.653 215.307C389.938 215.383 391.071 215.458 392.808 215.232L392.733 214.476C390.995 214.627 389.938 214.627 388.653 214.552C387.898 214.476 387.067 214.476 386.085 214.476C384.423 214.476 377.776 214.325 376.114 214.325C372.866 214.325 370.222 214.476 367.805 214.703L367.88 215.458C370.297 215.232 372.866 215.081 376.114 215.081Z" fill="#0F0F0F"/>
<path d="M383.064 226.185C384.802 226.034 386.615 225.883 388.201 226.034L388.276 225.278C386.69 225.127 384.802 225.278 383.064 225.429C381.856 225.505 380.571 225.656 379.363 225.656C378.079 225.656 376.946 225.505 375.964 225.278L375.812 226.034C376.87 226.26 378.079 226.411 379.438 226.411C380.571 226.336 381.856 226.26 383.064 226.185Z" fill="#0F0F0F"/>
<path d="M365.611 211.682C370.672 211.38 376.111 211.229 382.154 211.229C385.855 211.229 387.744 211.305 390.387 211.38C391.596 211.456 392.88 211.456 394.618 211.531V210.776C392.956 210.7 391.596 210.7 390.387 210.625C387.744 210.549 385.855 210.474 382.154 210.474C376.035 210.474 370.672 210.625 365.535 210.927L365.611 211.682Z" fill="#0F0F0F"/>
<path d="M418.488 240.008L419.093 239.555C414.938 233.814 411.539 229.282 408.366 225.127C404.212 219.764 400.435 215.156 396.733 210.926L396.129 211.455C399.83 215.685 403.607 220.293 407.686 225.656C410.935 229.735 414.334 234.343 418.488 240.008Z" fill="#0F0F0F"/>
<path d="M400.212 222.935C401.345 224.371 405.727 230.263 406.86 231.698C409.05 234.493 410.939 236.759 412.827 238.723L413.356 238.194C411.543 236.23 409.655 234.04 407.464 231.245C406.331 229.809 401.95 223.917 400.817 222.482C398.626 219.687 396.738 217.421 394.849 215.457L394.32 215.986C396.209 217.95 398.022 220.14 400.212 222.935Z" fill="#0F0F0F"/>
<path d="M371.052 218.706C371.959 218.63 372.865 218.63 373.923 218.63C375.962 218.63 378.153 218.706 380.192 218.781C382.307 218.857 384.423 218.933 386.538 218.933C388.653 218.933 390.466 218.857 392.128 218.706L392.052 217.951C390.39 218.102 388.577 218.177 386.538 218.177C384.423 218.177 382.307 218.102 380.192 218.026C378.153 217.951 375.962 217.875 373.923 217.875C372.79 217.875 371.732 217.875 370.75 217.951V218.706H371.052Z" fill="#0F0F0F"/>
<path d="M386.539 231.471C385.784 231.546 382.989 231.471 382.083 231.471C381.78 231.471 381.554 231.471 381.327 231.471C380.949 231.471 380.572 231.546 380.043 231.471V232.226C380.194 232.226 380.345 232.226 380.496 232.226C380.874 232.226 381.176 232.226 381.403 232.226C381.629 232.226 381.856 232.226 382.158 232.226C383.14 232.226 385.859 232.302 386.69 232.226L386.539 231.471Z" fill="#0F0F0F"/>
<path d="M389.484 222.03H372.941V222.786H389.484V222.03Z" fill="#0F0F0F"/>
<path d="M387.67 228.299C387.217 228.299 386.764 228.299 386.159 228.299C383.667 228.299 380.343 228.224 378.379 228.526L378.454 229.281C380.343 228.979 383.667 229.055 386.084 229.055C386.688 229.055 387.141 229.055 387.595 229.055V228.299H387.67Z" fill="#0F0F0F"/>
<path d="M384.8 239.555C385.253 239.555 385.631 239.555 386.008 239.479L385.782 238.724C385.555 238.799 385.177 238.799 384.875 238.799C384.573 238.799 384.346 238.799 383.969 238.799L384.044 239.555C384.271 239.555 384.573 239.555 384.8 239.555Z" fill="#0F0F0F"/>
<path d="M393.484 220.594L393.711 220.896C394.315 221.651 394.995 222.482 395.675 223.389C397.11 225.202 398.47 227.09 399.83 228.979C401.189 230.867 402.549 232.756 403.984 234.644C405.42 236.457 406.704 238.043 407.988 239.403L408.517 238.874C407.232 237.515 405.948 236.004 404.589 234.191C403.153 232.378 401.794 230.414 400.434 228.525C399.074 226.637 397.715 224.749 396.279 222.936C395.524 221.954 394.769 221.047 394.089 220.141L393.484 220.594Z" fill="#0F0F0F"/>
<path d="M381.856 240.008L382.46 239.555C378.305 233.814 374.906 229.282 371.733 225.127C367.654 219.764 363.802 215.156 360.1 210.926L359.496 211.455C363.197 215.685 366.974 220.368 371.054 225.656C374.302 229.735 377.701 234.343 381.856 240.008Z" fill="#0F0F0F"/>
<path d="M344.916 215.156C346.578 215.156 348.24 215.232 349.901 215.232C350.884 215.232 351.714 215.307 352.47 215.307C353.754 215.383 354.887 215.458 356.624 215.232L356.549 214.476C354.812 214.627 353.754 214.627 352.47 214.552C351.714 214.476 350.884 214.476 349.901 214.476C348.24 214.476 341.592 214.325 339.93 214.325C336.682 214.325 334.038 214.476 331.621 214.703L331.697 215.458C334.114 215.232 336.682 215.081 339.93 215.081C341.592 215.081 343.254 215.156 344.916 215.156Z" fill="#0F0F0F"/>
<path d="M353.377 222.786V222.03H338.723L339.856 222.786H353.377Z" fill="#0F0F0F"/>
<path d="M346.876 225.427C345.969 225.503 345.063 225.578 344.156 225.578C344.534 225.805 344.912 226.032 345.289 226.258C345.818 226.258 346.422 226.183 346.951 226.107C348.689 225.956 350.502 225.805 352.088 225.956L352.163 225.201C350.577 225.125 348.613 225.276 346.876 225.427Z" fill="#0F0F0F"/>
<path d="M334.865 218.706C335.771 218.63 336.678 218.63 337.735 218.63C339.775 218.63 341.965 218.706 344.005 218.781C346.12 218.857 348.235 218.933 350.35 218.933C352.465 218.933 354.278 218.857 355.94 218.706L355.864 217.951C354.203 218.102 352.39 218.177 350.35 218.177C348.235 218.177 346.12 218.102 344.005 218.026C341.965 217.951 339.775 217.875 337.735 217.875C336.602 217.875 335.545 217.875 334.562 217.951V218.706H334.865Z" fill="#0F0F0F"/>
<path d="M389.86 240.31L390.54 240.008C390.087 239.026 388.651 237.439 387.745 236.835L387.367 237.515C388.198 238.044 389.482 239.479 389.86 240.31Z" fill="#0F0F0F"/>
<path d="M353.979 229.961L353.375 230.414C353.602 230.716 353.904 231.094 354.357 231.547C354.961 231.849 355.566 232.227 356.245 232.529C355.188 231.472 354.357 230.49 353.979 229.961Z" fill="#0F0F0F"/>
<path d="M385.78 236.079L385.855 235.323C385.402 235.323 384.949 235.323 384.495 235.323C384.042 235.323 383.589 235.323 383.06 235.323C382.531 235.323 382.078 235.323 381.625 235.323L381.701 236.079C382.078 236.003 382.607 236.079 383.06 236.079C383.589 236.079 384.042 236.079 384.495 236.079C384.949 236.079 385.326 236.079 385.78 236.079Z" fill="#0F0F0F"/>
<path d="M395.223 240.158C394.165 238.723 392.503 236.91 391.068 235.248C390.539 234.644 390.011 234.04 389.557 233.511L388.953 234.039C389.406 234.568 389.935 235.173 390.464 235.777C391.899 237.439 393.561 239.252 394.619 240.687L395.223 240.158Z" fill="#0F0F0F"/>
<path d="M351.565 229.055V228.3C351.111 228.3 349.072 228.3 348.543 228.3C348.996 228.526 349.374 228.829 349.827 229.055C349.903 229.055 351.111 229.055 351.565 229.055Z" fill="#0F0F0F"/>
<path d="M393.11 232.906C392.355 231.924 391.373 230.791 390.466 229.809L389.938 230.337C390.844 231.319 391.75 232.452 392.581 233.434C393.412 234.568 394.394 235.55 395.301 236.607C396.207 237.589 397.189 238.647 398.02 239.704C398.322 240.157 398.624 240.535 398.927 240.988L399.531 240.611C399.229 240.157 398.927 239.704 398.549 239.251C397.718 238.118 396.736 237.136 395.83 236.078C394.923 235.021 393.941 233.963 393.11 232.906Z" fill="#0F0F0F"/>
<path d="M391.949 224.897L391.352 225.358L402.573 239.885L403.17 239.424L391.949 224.897Z" fill="#0F0F0F"/>
<path d="M329.501 211.682C334.562 211.38 340.001 211.229 346.044 211.229C349.746 211.229 351.634 211.305 354.278 211.38C355.487 211.456 356.771 211.456 358.508 211.531V210.776C356.846 210.7 355.487 210.7 354.278 210.625C351.634 210.549 349.746 210.474 346.044 210.474C339.926 210.474 334.562 210.625 329.426 210.927L329.501 211.682Z" fill="#0F0F0F"/>
<path d="M354.664 225.354L362.822 235.929C363.275 236.156 363.804 236.382 364.333 236.609L355.268 224.9L354.664 225.354Z" fill="#0F0F0F"/>
<path d="M356.777 220.594L357.004 220.896C357.608 221.651 358.288 222.482 358.968 223.389C360.403 225.202 361.763 227.09 363.123 228.979C364.482 230.867 365.842 232.756 367.277 234.644C368.712 236.457 369.997 238.043 371.281 239.403L371.81 238.874C370.525 237.515 369.241 236.004 367.882 234.191C366.446 232.378 365.087 230.414 363.727 228.525C362.367 226.637 361.008 224.749 359.572 222.936C358.817 221.954 358.062 221.047 357.382 220.141L356.777 220.594Z" fill="#0F0F0F"/>
<path d="M357.68 215.986C359.493 217.95 361.381 220.14 363.572 222.935C364.705 224.371 369.086 230.263 370.219 231.698C372.41 234.493 374.298 236.759 376.187 238.723L376.715 238.194C374.903 236.23 373.014 234.04 370.823 231.245C369.69 229.809 365.309 223.917 364.176 222.482C361.985 219.687 360.097 217.421 358.208 215.457L357.68 215.986Z" fill="#0F0F0F"/>
<path d="M425.517 208.809L426.122 208.356C425.744 207.827 425.442 207.45 425.215 207.072C424.762 206.392 424.46 205.939 423.705 205.184L423.176 205.712C423.856 206.392 424.158 206.845 424.611 207.45C424.838 207.827 425.14 208.281 425.517 208.809Z" fill="#0F0F0F"/>
<path d="M420.981 207.072C420.754 207.072 420.527 207.072 420.301 207.072L420.452 207.828C420.603 207.828 420.754 207.828 420.981 207.828C421.056 207.828 421.207 207.828 421.283 207.828C421.434 207.828 421.66 207.828 421.963 207.752L421.66 207.072C421.434 207.072 421.207 207.072 420.981 207.072Z" fill="#0F0F0F"/>
<path d="M422.191 203.599C421.738 203.599 421.285 203.599 420.831 203.599C420.378 203.599 419.925 203.599 419.396 203.599C418.867 203.599 418.414 203.599 417.961 203.599L418.036 204.354C418.414 204.278 418.943 204.354 419.396 204.354C419.925 204.354 420.378 204.354 420.831 204.354C421.285 204.354 421.662 204.354 422.116 204.354L422.191 203.599Z" fill="#0F0F0F"/>
<path d="M376.641 206.468C376.49 206.317 376.415 206.241 376.263 206.09C375.659 205.788 374.979 205.486 374.375 205.108C374.979 205.788 375.508 206.393 376.112 206.997L376.641 206.468Z" fill="#0F0F0F"/>
<path d="M351.565 196.573C351.111 196.573 350.658 196.573 350.054 196.573C347.561 196.573 344.237 196.497 342.273 196.799L342.349 197.555C344.237 197.253 347.561 197.328 349.978 197.328C350.583 197.328 351.036 197.328 351.489 197.328V196.573H351.565Z" fill="#0F0F0F"/>
<path d="M357.986 208.961L358.59 208.508C357.079 206.544 355.342 204.278 353.227 202.691L352.773 203.296C354.813 204.807 356.475 206.997 357.986 208.961Z" fill="#0F0F0F"/>
<path d="M361.307 207.903C361.684 208.357 361.911 208.734 362.213 209.188L362.817 208.81C362.515 208.357 362.213 207.979 361.835 207.45C361.458 206.997 360.174 205.486 358.663 203.749C356.774 201.634 354.659 199.216 353.979 198.234L353.375 198.688C354.13 199.67 356.245 202.087 358.134 204.202C359.569 205.864 360.929 207.45 361.307 207.903Z" fill="#0F0F0F"/>
<path d="M350.43 199.746C349.675 199.822 346.88 199.746 345.973 199.746C345.671 199.746 345.444 199.746 345.218 199.746C344.84 199.746 344.462 199.822 343.934 199.746V200.501C344.085 200.501 344.236 200.501 344.387 200.501C344.765 200.501 345.067 200.501 345.293 200.501C345.52 200.501 345.747 200.501 346.049 200.501C347.031 200.501 349.75 200.577 350.581 200.501L350.43 199.746Z" fill="#0F0F0F"/>
<path d="M365.919 208.205L366.524 207.752L356.477 194.759C355.873 194.381 355.268 194.004 354.74 193.626H354.664L365.919 208.205Z" fill="#0F0F0F"/>
<path d="M334.866 186.979C335.772 186.903 336.679 186.903 337.736 186.903C339.776 186.903 341.967 186.979 344.006 187.054C344.233 187.054 344.535 187.054 344.762 187.054L343.553 186.223C341.589 186.148 339.625 186.072 337.661 186.072C336.528 186.072 335.47 186.072 334.488 186.148V186.903H334.866V186.979Z" fill="#0F0F0F"/>
<path d="M348.465 207.072C348.238 207.072 348.012 207.072 347.785 207.072L347.936 207.828C348.087 207.828 348.238 207.828 348.465 207.828C348.541 207.828 348.692 207.828 348.767 207.828C348.918 207.828 349.145 207.828 349.447 207.752L349.145 207.072C348.918 207.072 348.692 207.072 348.465 207.072Z" fill="#0F0F0F"/>
<path d="M331.767 183.732C334.033 183.505 336.45 183.354 339.396 183.354L338.263 182.599C335.77 182.599 333.655 182.75 331.691 182.976L331.767 183.732Z" fill="#0F0F0F"/>
<path d="M349.753 190.303H336.836V191.058H350.886L349.753 190.303Z" fill="#0F0F0F"/>
<path d="M349.675 203.599C349.222 203.599 348.769 203.599 348.316 203.599C347.863 203.599 347.409 203.599 346.881 203.599C346.352 203.599 345.899 203.599 345.445 203.599L345.521 204.354C345.899 204.278 346.427 204.354 346.881 204.354C347.409 204.354 347.863 204.354 348.316 204.354C348.769 204.354 349.147 204.354 349.6 204.354L349.675 203.599Z" fill="#0F0F0F"/>
<path d="M371.277 207.6L371.806 207.071C370.522 205.711 369.238 204.201 367.878 202.388C367.576 201.934 367.198 201.481 366.896 201.028C366.367 200.726 365.763 200.424 365.234 200.046C365.914 200.952 366.594 201.859 367.274 202.765C368.709 204.729 369.993 206.24 371.277 207.6Z" fill="#0F0F0F"/>
<path d="M333.883 179.727C333.505 179.5 333.203 179.273 332.825 179.047C331.692 179.122 330.559 179.122 329.426 179.198L329.501 179.953C330.937 179.878 332.372 179.802 333.883 179.727Z" fill="#0F0F0F"/>
<path d="M395.223 208.433C394.165 206.997 392.503 205.184 391.068 203.523C390.539 202.918 390.011 202.314 389.557 201.785L388.953 202.314C389.406 202.843 389.935 203.447 390.464 204.051C391.899 205.713 393.561 207.526 394.619 208.961L395.223 208.433Z" fill="#0F0F0F"/>
<path d="M386.539 199.746C385.784 199.822 382.989 199.746 382.083 199.746C381.78 199.746 381.554 199.746 381.327 199.746C380.949 199.746 380.572 199.822 380.043 199.746V200.501C380.194 200.501 380.345 200.501 380.496 200.501C380.874 200.501 381.176 200.501 381.403 200.501C381.629 200.501 381.856 200.501 382.158 200.501C383.14 200.501 385.859 200.577 386.69 200.501L386.539 199.746Z" fill="#0F0F0F"/>
<path d="M389.86 208.583L390.54 208.281C390.087 207.299 388.651 205.713 387.745 205.108L387.367 205.788C388.198 206.317 389.482 207.752 389.86 208.583Z" fill="#0F0F0F"/>
<path d="M346.955 194.458C348.692 194.307 350.505 194.156 352.092 194.307L352.167 193.552C350.581 193.401 348.692 193.552 346.955 193.703C345.746 193.778 344.462 193.93 343.253 193.93C341.969 193.93 340.836 193.778 339.854 193.552L339.703 194.307C340.761 194.534 341.969 194.685 343.329 194.685C344.462 194.609 345.746 194.534 346.955 194.458Z" fill="#0F0F0F"/>
<path d="M384.495 204.354C384.949 204.354 385.326 204.354 385.78 204.354L385.855 203.599C385.402 203.599 384.949 203.599 384.495 203.599C384.042 203.599 383.589 203.599 383.06 203.599C382.531 203.599 382.078 203.599 381.625 203.599L381.701 204.354C382.078 204.278 382.607 204.354 383.06 204.354C383.589 204.43 384.042 204.354 384.495 204.354Z" fill="#0F0F0F"/>
<path d="M384.8 207.827C385.253 207.827 385.631 207.827 386.008 207.751L385.782 206.996C385.555 207.072 385.177 207.072 384.875 207.072C384.573 207.072 384.346 207.072 383.969 207.072L384.044 207.827C384.271 207.827 384.573 207.827 384.8 207.827Z" fill="#0F0F0F"/>
<path d="M353.002 208.809L353.606 208.356C353.228 207.827 352.926 207.45 352.7 207.072C352.246 206.392 351.944 205.939 351.189 205.184L350.66 205.712C351.34 206.392 351.642 206.845 352.095 207.45C352.322 207.827 352.624 208.281 353.002 208.809Z" fill="#0F0F0F"/>
<path d="M325.429 176.177C325.731 176.63 326.034 177.007 326.336 177.461L326.94 177.083C326.638 176.63 326.336 176.177 325.958 175.723C325.278 174.817 324.523 173.986 323.767 173.155C323.012 172.626 322.181 172.173 321.426 171.72C321.879 172.173 322.257 172.626 322.71 173.079C323.692 174.061 324.598 175.119 325.429 176.177Z" fill="#0F0F0F"/>
<path d="M289.999 151.023C290.981 151.778 289.621 150.721 288.715 150.041C291.887 153.742 295.136 157.746 298.535 162.203C301.708 166.357 305.107 170.89 309.261 176.631L309.866 176.177C305.711 170.437 302.312 165.904 299.139 161.75C296.495 158.275 293.927 155.178 291.51 152.232C290.452 151.401 288.79 150.041 289.999 151.023Z" fill="#0F0F0F"/>
<path d="M279.954 151.099C279.199 151.023 278.368 151.023 277.386 151.023C275.724 151.023 269.077 150.872 267.415 150.872C264.167 150.872 261.523 151.023 259.105 151.25L259.181 152.005C261.598 151.779 264.167 151.627 267.415 151.627C269.077 151.627 275.724 151.779 277.386 151.779C278.368 151.779 279.199 151.854 279.954 151.854C281.238 151.93 282.371 152.005 284.109 151.779L284.033 151.023C282.296 151.25 281.238 151.174 279.954 151.099Z" fill="#0F0F0F"/>
<path d="M317.344 176.856L318.024 176.554C317.571 175.571 316.136 173.985 315.229 173.381L314.852 174.061C315.682 174.59 316.967 176.025 317.344 176.856Z" fill="#0F0F0F"/>
<path d="M322.707 176.707C321.65 175.272 319.988 173.459 318.553 171.797C318.024 171.193 317.495 170.588 317.042 170.06L316.438 170.588C316.891 171.117 317.42 171.721 317.948 172.326C319.384 173.988 321.045 175.801 322.103 177.236L322.707 176.707Z" fill="#0F0F0F"/>
<path d="M285.164 152.534C286.977 154.498 288.865 156.688 291.056 159.483C292.189 160.918 296.57 166.811 297.704 168.246C299.894 171.041 301.783 173.307 303.671 175.271L304.2 174.742C302.387 172.778 300.498 170.587 298.308 167.793C297.175 166.357 292.793 160.465 291.66 159.03C289.47 156.235 287.581 153.969 285.693 152.005L285.164 152.534Z" fill="#0F0F0F"/>
<path d="M282.738 161.466L282.141 161.928L293.362 176.455L293.959 175.993L282.738 161.466Z" fill="#0F0F0F"/>
<path d="M284.254 157.141L284.481 157.443C285.085 158.198 285.765 159.029 286.445 159.936C287.88 161.749 289.239 163.637 290.599 165.526C291.959 167.414 293.319 169.303 294.754 171.191C296.189 173.004 297.473 174.59 298.757 175.95L299.286 175.421C298.002 174.061 296.718 172.551 295.358 170.738C293.923 168.925 292.563 166.961 291.203 165.072C289.844 163.184 288.484 161.295 287.049 159.482C286.293 158.5 285.538 157.594 284.858 156.688L284.254 157.141Z" fill="#0F0F0F"/>
<path d="M312.281 175.346C311.979 175.346 311.753 175.346 311.375 175.346L311.451 176.101C311.677 176.101 311.979 176.101 312.206 176.101C312.659 176.101 313.037 176.101 313.415 176.026L313.188 175.271C312.961 175.346 312.659 175.346 312.281 175.346Z" fill="#0F0F0F"/>
<path d="M277.538 165.603C278.143 165.603 278.596 165.603 279.049 165.603V164.847C278.596 164.847 278.143 164.847 277.538 164.847C275.046 164.847 271.722 164.772 269.758 165.074L269.833 165.829C271.797 165.527 275.121 165.603 277.538 165.603Z" fill="#0F0F0F"/>
<path d="M272.702 168.775C272.929 168.775 273.155 168.775 273.458 168.775C274.44 168.775 277.159 168.85 277.99 168.775L277.914 168.02C277.159 168.095 274.364 168.02 273.458 168.02C273.155 168.02 272.929 168.02 272.702 168.02C272.324 168.02 271.947 168.095 271.418 168.02V168.775C271.569 168.775 271.72 168.775 271.871 168.775C272.173 168.85 272.476 168.775 272.702 168.775Z" fill="#0F0F0F"/>
<path d="M274.435 162.733C276.173 162.582 277.986 162.431 279.572 162.582L279.648 161.826C278.061 161.675 276.173 161.826 274.435 161.977C273.227 162.053 271.943 162.204 270.734 162.204C269.45 162.204 268.317 162.053 267.335 161.826L267.184 162.582C268.241 162.808 269.45 162.959 270.809 162.959C271.943 162.884 273.227 162.808 274.435 162.733Z" fill="#0F0F0F"/>
<path d="M274.361 172.626C274.89 172.626 275.343 172.626 275.796 172.626C276.25 172.626 276.627 172.626 277.08 172.626L277.156 171.871C276.703 171.871 276.25 171.871 275.796 171.871C275.343 171.871 274.89 171.871 274.361 171.871C273.832 171.871 273.379 171.871 272.926 171.871L273.001 172.626C273.455 172.626 273.908 172.626 274.361 172.626Z" fill="#0F0F0F"/>
<path d="M280.856 158.576H264.312V159.332H280.856V158.576Z" fill="#0F0F0F"/>
<path d="M285.466 177.235L286.07 176.781C284.56 174.817 282.822 172.551 280.707 170.965L280.254 171.569C282.293 173.08 283.955 175.271 285.466 177.235Z" fill="#0F0F0F"/>
<path d="M278.669 173.458L278.141 173.987C278.82 174.667 279.123 175.12 279.576 175.724C279.802 176.102 280.105 176.48 280.558 177.008L281.162 176.555C280.784 176.026 280.482 175.649 280.256 175.271C279.727 174.667 279.425 174.213 278.669 173.458Z" fill="#0F0F0F"/>
<path d="M275.949 175.347C275.723 175.347 275.496 175.347 275.27 175.347L275.421 176.102C275.572 176.102 275.723 176.102 275.949 176.102C276.025 176.102 276.176 176.102 276.252 176.102C276.403 176.102 276.629 176.102 276.931 176.027L276.629 175.347C276.403 175.347 276.176 175.347 275.949 175.347Z" fill="#0F0F0F"/>
<path d="M310.545 172.626C311.073 172.626 311.527 172.626 311.98 172.626C312.433 172.626 312.811 172.626 313.264 172.626L313.34 171.871C312.886 171.871 312.433 171.871 311.98 171.871C311.527 171.871 311.073 171.871 310.545 171.871C310.016 171.871 309.563 171.871 309.109 171.871L309.185 172.626C309.563 172.626 310.016 172.626 310.545 172.626Z" fill="#0F0F0F"/>
<path d="M304.956 162.051C304.427 161.975 303.899 161.9 303.37 161.824L303.219 162.58C304.201 162.806 305.258 162.957 306.467 162.957C305.938 162.655 305.485 162.353 304.956 162.051Z" fill="#0F0F0F"/>
<path d="M311.227 165.602C310.773 165.375 310.32 165.073 309.867 164.847C308.356 164.847 306.921 164.922 305.863 165.073L305.939 165.829C307.299 165.602 309.338 165.602 311.227 165.602Z" fill="#0F0F0F"/>
<path d="M286.143 172.023C284.255 169.908 282.14 167.491 281.46 166.509L280.855 166.962C281.611 167.944 283.726 170.361 285.614 172.476C287.05 174.138 288.409 175.725 288.787 176.178C289.165 176.631 289.391 177.009 289.694 177.462L290.298 177.084C289.996 176.631 289.694 176.253 289.316 175.725C289.014 175.271 287.654 173.761 286.143 172.023Z" fill="#0F0F0F"/>
<path d="M283.349 154.498C281.687 154.649 279.874 154.725 277.835 154.725C275.719 154.725 273.604 154.649 271.489 154.574C269.45 154.498 267.259 154.423 265.22 154.423C264.086 154.423 263.029 154.423 262.047 154.498V155.254H262.349C263.255 155.254 264.162 155.178 265.22 155.178C267.259 155.178 269.45 155.254 271.489 155.329C273.604 155.405 275.719 155.48 277.835 155.48C279.95 155.48 281.763 155.405 283.424 155.254L283.349 154.498Z" fill="#0F0F0F"/>
<path d="M300.422 159.182V159.333H300.649C300.573 159.333 300.497 159.257 300.422 159.182Z" fill="#0F0F0F"/>
<path d="M258.046 147.397C257.97 147.624 257.895 147.926 257.895 148.153C262.729 147.926 267.79 147.775 273.531 147.775C277.233 147.775 279.121 147.85 281.765 147.926C282.973 148.002 284.258 148.002 285.995 148.077V147.926C285.693 147.699 285.466 147.548 285.164 147.322C283.88 147.246 282.822 147.246 281.84 147.171C279.197 147.095 277.308 147.02 273.607 147.02C267.866 147.02 262.805 147.171 258.046 147.397C258.046 147.624 257.97 147.926 257.97 148.153L258.046 147.397Z" fill="#0F0F0F"/>
<path d="M308.811 168.775C309.038 168.775 309.265 168.775 309.567 168.775C310.549 168.775 313.268 168.85 314.099 168.775L314.024 168.02C313.268 168.095 310.473 168.02 309.567 168.02C309.265 168.02 309.038 168.02 308.811 168.02C308.434 168.02 308.056 168.095 307.527 168.02V168.775C307.678 168.775 307.829 168.775 307.981 168.775C308.283 168.85 308.585 168.775 308.811 168.775Z" fill="#0F0F0F"/>
<path d="M274.361 140.901C274.437 140.901 274.588 140.901 274.663 140.901C274.059 140.674 273.53 140.447 272.926 140.221L273.001 140.901C273.455 140.901 273.908 140.901 274.361 140.901Z" fill="#0F0F0F"/>
<path d="M275.949 143.62C275.723 143.62 275.496 143.62 275.27 143.62L275.421 144.376C275.572 144.376 275.723 144.376 275.949 144.376C276.025 144.376 276.176 144.376 276.252 144.376C276.403 144.376 276.629 144.376 276.931 144.3L276.629 143.62C276.403 143.62 276.176 143.62 275.949 143.62Z" fill="#0F0F0F"/>
<path d="M278.969 143.242C279.195 143.469 279.346 143.771 279.573 144.073C279.8 144.451 280.102 144.829 280.555 145.357L281.159 144.904C281.008 144.677 280.857 144.451 280.706 144.224C280.555 144.224 279.422 143.544 278.969 143.242Z" fill="#0F0F0F"/>
</g>
<g opacity="0.15">
<path d="M353.362 304.084L353.502 303.349C354.866 303.608 356.25 303.761 357.802 303.892C357.91 304.185 358.08 304.434 358.188 304.727C356.383 304.493 354.789 304.3 353.362 304.084Z" fill="#0F0F0F"/>
<path d="M349.067 300.064L349.101 299.309C351.155 299.372 353.104 299.416 354.928 299.544C355.203 299.814 355.373 300.063 355.648 300.333C353.49 300.25 351.331 300.167 349.067 300.064Z" fill="#0F0F0F"/>
<path d="M355.589 308.419L355.729 307.685C356.736 307.821 357.743 307.958 358.917 308.072C358.92 308.344 358.88 308.554 358.778 308.806C357.603 308.693 356.534 308.599 355.589 308.419Z" fill="#0F0F0F"/>
<path d="M283.055 296.411C282.714 295.912 282.459 295.537 282.204 295.163L282.828 294.737C283.083 295.112 283.339 295.486 283.679 295.986C285.082 298.046 287.016 300.75 287.872 302.543L287.205 302.906C286.349 301.113 284.416 298.409 283.055 296.411Z" fill="#0F0F0F"/>
<path d="M283.153 302.19C283.025 302.003 282.898 301.816 282.727 301.566C282.174 300.754 280.581 298.549 280.176 297.82L280.842 297.457C281.205 298.124 282.841 300.391 283.352 301.141C283.522 301.39 283.649 301.578 283.777 301.765C283.99 302.077 284.14 302.432 284.5 302.826L283.876 303.251C283.791 303.127 283.706 303.002 283.621 302.877C283.388 302.67 283.28 302.377 283.153 302.19Z" fill="#0F0F0F"/>
<path d="M275.666 299.523L275.317 300.218C275.17 300.135 274.917 300.033 274.645 300.036C273.782 299.709 272.878 299.32 272.015 298.994C273.187 298.835 274.824 299.091 275.666 299.523Z" fill="#0F0F0F"/>
<path d="M277.46 300.677L278.041 300.189C278.297 300.564 278.552 300.938 278.807 301.313C278.892 301.438 278.934 301.5 279.02 301.625C278.62 301.44 278.22 301.256 277.8 301.176C277.715 301.051 277.587 300.864 277.46 300.677Z" fill="#0F0F0F"/>
<path d="M300.116 303.071C299.668 302.279 299.158 301.53 298.562 300.656C297.414 298.97 296.118 297.202 294.907 295.559C293.654 293.854 292.401 292.148 291.21 290.4C290.019 288.653 289.061 287.112 288.25 285.653L288.917 285.29C289.727 286.749 290.686 288.29 291.834 289.975C293.025 291.723 294.278 293.429 295.531 295.134C296.742 296.777 298.038 298.545 299.186 300.231C299.824 301.167 300.42 302.041 300.91 302.895L300.286 303.32L300.116 303.071Z" fill="#0F0F0F"/>
<path d="M300.865 310.875C304.408 311.111 307.344 311.396 310.03 311.851L309.891 312.586C307.73 312.23 305.443 311.96 302.759 311.777C302.002 311.471 301.245 311.164 300.487 310.857C300.592 310.877 300.76 310.855 300.865 310.875Z" fill="#0F0F0F"/>
<path d="M297.39 292.768C296.455 291.394 295.457 290.063 294.521 288.69C293.968 287.878 293.438 287.234 293.012 286.61C292.227 285.591 291.527 284.697 290.736 283.134L291.403 282.771C292.256 284.292 292.851 285.166 293.637 286.185C294.124 286.766 294.592 287.453 295.145 288.265C296.081 289.638 299.948 295.047 300.884 296.42C302.713 299.104 304.077 301.374 305.25 303.5L304.584 303.863C303.41 301.737 302.089 299.53 300.26 296.845C299.324 295.472 298.326 294.141 297.39 292.768Z" fill="#0F0F0F"/>
<path d="M313.305 315.194C312.947 315.072 312.528 314.993 312.17 314.871C311.83 314.371 311.447 313.809 311.104 313.038L311.771 312.675C312.327 313.759 312.837 314.508 313.305 315.194Z" fill="#0F0F0F"/>
<path d="M271.864 292.33C273.186 292.526 274.613 292.742 275.955 292.834C277.192 292.905 278.681 293.079 280.003 293.275L279.864 294.01C278.542 293.813 277.095 293.702 275.816 293.568C274.411 293.52 273.047 293.261 271.663 293.107C270.341 292.911 268.914 292.695 267.572 292.604C267.027 292.609 266.545 292.572 266 292.577L265.972 291.865C266.517 291.86 267.062 291.854 267.649 291.911C269.115 291.918 270.48 292.176 271.864 292.33Z" fill="#0F0F0F"/>
<path d="M291.985 278.258C286.405 277.581 280.47 277.054 273.741 276.702C268.521 276.42 262.862 276.162 255.778 275.961L255.812 275.206C262.896 275.408 268.556 275.665 273.775 275.948C280.547 276.362 286.482 276.889 292.062 277.566L291.985 278.258Z" fill="#0F0F0F"/>
<path d="M280.198 281.352C278.373 281.224 271.037 280.92 269.213 280.792C265.67 280.555 262.734 280.27 260.047 279.815L260.187 279.081C262.831 279.473 265.704 279.8 269.247 280.037C271.072 280.166 278.408 280.469 280.232 280.597C283.775 280.834 286.711 281.119 289.398 281.574L289.258 282.308C286.572 281.854 283.741 281.589 280.198 281.352Z" fill="#0F0F0F"/>
<path d="M315.609 312.802C314.866 311.846 314.143 310.785 313.102 309.391L313.726 308.966C314.725 310.297 318.187 314.976 319.25 316.537C318.893 316.415 318.515 316.398 318.158 316.276C317.287 315.132 316.564 314.071 315.609 312.802Z" fill="#0F0F0F"/>
<path d="M285.918 285.59L285.541 285.573C284.577 285.499 283.507 285.405 282.375 285.353C280.069 285.188 277.743 285.128 275.416 285.067C273.09 285.007 270.764 284.946 268.395 284.823C266.089 284.658 264.055 284.49 262.208 284.194L262.347 283.459C264.194 283.755 266.166 283.966 268.429 284.069C270.736 284.234 273.124 284.252 275.451 284.312C277.777 284.373 280.103 284.433 282.409 284.599C283.646 284.67 284.821 284.784 285.953 284.836L285.918 285.59Z" fill="#0F0F0F"/>
<path d="M283.233 289.284L283.188 290.038L264.864 288.944L264.909 288.19L283.233 289.284Z" fill="#0F0F0F"/>
<path d="M277.364 296.908C276.672 296.831 275.874 296.734 275.077 296.637C272.896 296.387 270.462 296.034 268.68 295.968L268.715 295.214C270.496 295.279 272.93 295.632 275.112 295.883C275.909 295.979 276.706 296.076 277.398 296.153L277.364 296.908Z" fill="#0F0F0F"/>
<path d="M286.99 289.707L296.305 303.379L295.68 303.804L286.366 290.132L286.99 289.707Z" fill="#0F0F0F"/>
<path d="M287.167 297.354C286.314 295.833 285.418 294.25 284.4 293.024L284.982 292.536C286 293.762 286.938 295.408 287.791 296.929C288.409 297.97 289.007 299.117 289.688 300.116C290.411 301.177 291.174 302.028 291.914 302.712L291.375 303.262C290.592 302.516 289.787 301.602 289.021 300.478C288.446 299.499 287.785 298.396 287.167 297.354Z" fill="#0F0F0F"/>
<path d="M312.614 308.537C307.034 307.86 301.037 307.376 294.37 306.982C293.301 306.888 292.274 306.856 291.142 306.805C290.489 306.518 289.837 306.231 289.184 305.944C290.966 306.01 292.685 306.119 294.404 306.227C301.133 306.579 307.111 307.168 312.691 307.845L312.614 308.537Z" fill="#0F0F0F"/>
<path d="M309.602 303.183L308.935 303.546C306.335 299.193 303.398 294.613 299.996 289.619C297.912 286.56 296.786 285.042 295.235 282.899C294.492 281.943 293.769 280.882 292.728 279.488L293.353 279.063C294.351 280.394 295.116 281.518 295.859 282.474C297.41 284.616 298.536 286.135 300.62 289.194C304.065 294.25 307.002 298.83 309.602 303.183Z" fill="#0F0F0F"/>
<path d="M337.312 318.491C335.426 318.405 333.539 318.319 331.486 318.256C328.802 318.073 326.096 317.723 323.452 317.331C323.242 317.291 323.032 317.251 322.822 317.211C329.906 317.413 335.565 317.67 340.785 317.953C342.672 318.039 344.433 318.209 346.215 318.275C344.039 318.57 341.922 318.549 339.596 318.489C338.822 318.559 338.067 318.525 337.312 318.491Z" fill="#0F0F0F"/>
<path d="M265.762 296.121C265.342 296.041 264.86 296.004 264.44 295.925L261.706 294.863C263.09 295.016 264.475 295.17 265.859 295.324L265.762 296.121Z" fill="#0F0F0F"/>
<path d="M207.238 266.162C207.068 265.912 206.898 265.663 206.727 265.413C204.643 262.354 203.518 260.836 201.967 258.693C201.224 257.737 200.501 256.676 199.46 255.282L200.084 254.857C201.083 256.188 201.848 257.312 202.591 258.268C204.142 260.41 205.268 261.929 207.352 264.988C207.99 265.924 208.628 266.86 209.266 267.797C208.591 267.343 207.935 266.784 207.238 266.162Z" fill="#0F0F0F"/>
<path d="M198.816 253.258L198.719 254.056C197.44 253.922 196.16 253.788 194.881 253.654C194.668 253.342 194.436 253.135 194.223 252.823C195.775 252.954 197.327 253.085 198.816 253.258Z" fill="#0F0F0F"/>
<path d="M186.273 235.386C185.763 234.636 185.338 234.012 184.955 233.45C184.844 232.886 184.734 232.321 184.729 231.776C185.366 232.713 186.047 233.712 186.94 235.023C190.385 240.079 193.28 244.597 195.922 249.012L195.256 249.375C192.613 244.96 189.676 240.38 186.273 235.386Z" fill="#0F0F0F"/>
<path d="M193.292 225.301C193.654 225.968 195.291 228.235 195.801 228.984C195.971 229.234 196.099 229.421 196.226 229.609C196.439 229.921 196.589 230.275 196.949 230.67L196.325 231.095C196.24 230.97 196.155 230.846 196.07 230.721C195.857 230.409 195.687 230.159 195.559 229.972C195.432 229.784 195.304 229.597 195.134 229.347C194.581 228.536 192.988 226.331 192.582 225.602L193.292 225.301Z" fill="#0F0F0F"/>
<path d="M221.431 231.45C218.831 227.097 215.894 222.517 212.492 217.523C210.408 214.464 209.282 212.946 207.731 210.804C206.988 209.847 206.265 208.786 205.224 207.393L205.849 206.967C206.847 208.298 207.612 209.422 208.355 210.378C209.906 212.521 211.032 214.039 213.116 217.098C216.561 222.155 219.456 226.672 222.098 231.087L221.431 231.45Z" fill="#0F0F0F"/>
<path d="M190.536 228.094C190.791 228.468 191.047 228.843 191.302 229.218C191.557 229.592 191.812 229.967 192.11 230.404C192.408 230.841 192.663 231.215 192.918 231.59L192.251 231.953C192.101 231.598 191.741 231.204 191.486 230.829C191.188 230.392 190.933 230.017 190.678 229.643C190.422 229.268 190.21 228.956 189.954 228.582L190.536 228.094Z" fill="#0F0F0F"/>
<path d="M188.348 231.05C188.475 231.238 188.603 231.425 188.73 231.612L188.021 231.913C187.936 231.788 187.851 231.663 187.723 231.476C187.681 231.413 187.596 231.288 187.553 231.226C187.468 231.101 187.341 230.914 187.233 230.622L187.965 230.489C188.093 230.676 188.22 230.863 188.348 231.05Z" fill="#0F0F0F"/>
<path d="M189.284 224.647L189.04 225.362C187.61 224.873 186.036 224.575 184.484 224.444C184.481 224.171 184.521 223.961 184.518 223.689C186.175 223.84 187.812 224.096 189.284 224.647Z" fill="#0F0F0F"/>
<path d="M185.963 227.553C186.78 227.544 187.325 227.539 188.374 227.738L188.235 228.472C187.29 228.293 186.746 228.299 185.991 228.265C185.551 228.29 185.069 228.253 184.419 228.238C184.439 228.133 184.417 227.966 184.436 227.861L184.454 227.484C185.041 227.541 185.523 227.578 185.963 227.553Z" fill="#0F0F0F"/>
<path d="M202.008 210.587C199.364 210.195 196.491 209.867 192.947 209.631C191.711 209.559 190.474 209.488 189.174 209.459C189.277 209.207 189.484 208.974 189.586 208.722C190.718 208.773 191.85 208.825 192.919 208.919C196.463 209.155 199.399 209.44 202.085 209.895L202.008 210.587Z" fill="#0F0F0F"/>
<path d="M199.616 225.195C198.763 223.674 197.867 222.091 196.849 220.865L197.431 220.377C198.449 221.603 199.387 223.249 200.24 224.77C200.859 225.811 201.457 226.957 202.137 227.956C202.86 229.018 203.623 229.869 204.363 230.553L203.824 231.103C203.041 230.357 202.236 229.443 201.47 228.319C200.895 227.34 200.234 226.236 199.616 225.195Z" fill="#0F0F0F"/>
<path d="M198.715 213.934L198.338 213.917C197.373 213.843 196.304 213.749 195.172 213.697C192.866 213.532 190.539 213.471 188.213 213.411C187.836 213.394 187.564 213.396 187.186 213.379C187.288 213.127 187.391 212.874 187.493 212.622C187.765 212.619 187.975 212.659 188.205 212.594C190.531 212.654 192.857 212.715 195.164 212.88C196.401 212.951 197.575 213.065 198.707 213.117L198.715 213.934Z" fill="#0F0F0F"/>
<path d="M199.44 217.551L208.754 231.223L208.13 231.648L198.815 217.976L199.44 217.551Z" fill="#0F0F0F"/>
<path d="M195.508 224.252C195.167 223.752 194.912 223.378 194.657 223.003L195.281 222.578C195.537 222.953 195.792 223.327 196.132 223.827C197.535 225.887 199.469 228.591 200.325 230.384L199.659 230.747C198.802 228.954 196.869 226.25 195.508 224.252Z" fill="#0F0F0F"/>
<path d="M212.604 230.973C212.156 230.181 211.646 229.432 211.05 228.558C209.902 226.873 208.606 225.105 207.395 223.462C206.142 221.756 204.889 220.051 203.698 218.303C202.507 216.555 201.549 215.014 200.738 213.556L201.405 213.193C202.216 214.651 203.174 216.192 204.322 217.878C205.513 219.626 206.766 221.331 208.02 223.036C209.23 224.679 210.526 226.447 211.675 228.133C212.313 229.069 212.908 229.943 213.399 230.797L212.774 231.223L212.604 230.973Z" fill="#0F0F0F"/>
<path d="M195.969 218.36L185.697 217.771C185.799 217.519 185.839 217.309 185.899 216.994L196.004 217.605L195.969 218.36Z" fill="#0F0F0F"/>
<path d="M217.037 231.704C215.863 229.579 214.542 227.372 212.713 224.687C211.777 223.314 207.91 217.905 206.974 216.532C206.421 215.72 205.891 215.076 205.466 214.452C204.68 213.433 203.98 212.539 203.189 210.976L203.856 210.613C204.709 212.134 205.304 213.008 206.09 214.026C206.578 214.608 207.045 215.295 207.598 216.106C208.534 217.48 212.402 222.888 213.337 224.262C215.166 226.946 216.53 229.216 217.703 231.342L217.037 231.704Z" fill="#0F0F0F"/>
<path d="M197.371 201.502L196.704 201.864C196.577 201.677 196.469 201.385 196.341 201.198C196.529 201.07 196.778 200.9 196.966 200.772C197.031 201.002 197.201 201.252 197.371 201.502Z" fill="#0F0F0F"/>
<path d="M201.103 201.608C200.612 200.754 200.017 199.88 199.526 199.026C199.714 198.898 199.963 198.728 200.193 198.663C200.726 199.58 201.279 200.391 201.77 201.245L201.103 201.608Z" fill="#0F0F0F"/>
<path d="M192.753 204.649C196.988 204.963 200.994 205.341 204.875 205.805L204.778 206.602C200.792 206.119 196.619 205.762 192.174 205.409C192.339 205.114 192.546 204.882 192.753 204.649Z" fill="#0F0F0F"/>
<path d="M184.932 220.67L185.309 220.687C188.121 221.057 191.309 221.444 192.504 221.453L192.469 222.207C191.232 222.136 188.044 221.749 185.233 221.379L184.813 221.3C184.895 221.152 184.935 220.942 184.932 220.67Z" fill="#0F0F0F"/>
<path d="M233.209 254.776C232.273 253.403 228.406 247.994 227.47 246.621C226.917 245.809 226.387 245.165 225.962 244.541C225.176 243.522 224.476 242.628 223.685 241.064L224.352 240.702C225.205 242.222 225.801 243.096 226.586 244.115C227.074 244.697 227.542 245.384 228.094 246.195C229.03 247.569 232.898 252.977 233.833 254.351C235.662 257.035 237.026 259.305 238.2 261.43L237.533 261.793C236.359 259.668 235.038 257.46 233.209 254.776Z" fill="#0F0F0F"/>
<path d="M220.12 255.284C219.267 253.763 218.371 252.18 217.353 250.954L217.935 250.466C218.953 251.692 219.891 253.338 220.744 254.859C221.362 255.9 221.961 257.046 222.641 258.045C223.364 259.107 224.127 259.958 224.867 260.642L224.328 261.192C223.545 260.446 222.74 259.532 221.974 258.408C221.399 257.429 220.738 256.325 220.12 255.284Z" fill="#0F0F0F"/>
<path d="M241.935 261.541C239.335 257.188 236.398 252.608 232.996 247.614C230.912 244.555 229.786 243.037 228.235 240.894C227.492 239.938 226.769 238.877 225.728 237.483L226.353 237.058C227.351 238.389 228.116 239.513 228.859 240.469C230.41 242.612 231.536 244.13 233.62 247.189C237.065 252.245 239.96 256.763 242.602 261.178L241.935 261.541Z" fill="#0F0F0F"/>
<path d="M188.751 233.79L188.785 233.036C195.869 233.237 201.529 233.494 206.749 233.777C213.52 234.191 219.455 234.718 225.035 235.395L224.938 236.192C219.358 235.515 213.423 234.988 206.694 234.637C201.494 234.249 195.772 234.034 188.751 233.79Z" fill="#0F0F0F"/>
<path d="M213.151 239.284C211.327 239.155 203.99 238.852 202.166 238.723C198.623 238.487 195.687 238.202 193.001 237.747L193.14 237.012C195.784 237.405 198.657 237.732 202.201 237.969C204.025 238.097 211.361 238.401 213.185 238.529C216.728 238.766 219.664 239.05 222.351 239.505L222.211 240.24C219.525 239.785 216.694 239.52 213.151 239.284Z" fill="#0F0F0F"/>
<path d="M233.061 261.001C232.613 260.21 232.103 259.461 231.507 258.587C230.359 256.901 229.063 255.133 227.852 253.49C226.599 251.785 225.346 250.079 224.155 248.331C222.964 246.583 222.006 245.042 221.195 243.584L221.862 243.221C222.673 244.679 223.631 246.22 224.779 247.906C225.97 249.654 227.223 251.359 228.477 253.065C229.688 254.708 230.983 256.476 232.132 258.161C232.77 259.098 233.365 259.972 233.856 260.826L233.231 261.251L233.061 261.001Z" fill="#0F0F0F"/>
<path d="M213.795 255.391C214.158 256.058 215.794 258.325 216.305 259.074C216.475 259.324 216.603 259.511 216.73 259.698C216.943 260.011 217.093 260.365 217.453 260.76L216.829 261.185C216.744 261.06 216.659 260.935 216.574 260.811C216.361 260.498 216.191 260.249 216.063 260.061C215.936 259.874 215.808 259.687 215.638 259.437C215.085 258.626 213.492 256.421 213.086 255.691L213.795 255.391Z" fill="#0F0F0F"/>
<path d="M219.936 247.639L229.25 261.311L228.626 261.736L219.311 248.064L219.936 247.639Z" fill="#0F0F0F"/>
<path d="M215.781 252.667C216.037 253.041 216.292 253.416 216.632 253.915C218.035 255.976 219.969 258.68 220.825 260.473L220.159 260.836C219.345 259.105 217.411 256.401 216.05 254.403C215.71 253.904 215.455 253.529 215.2 253.155L215.824 252.729L215.781 252.667Z" fill="#0F0F0F"/>
<path d="M208.095 261.379C207.84 261.004 207.628 260.692 207.477 260.337L208.229 260.099C208.294 260.329 208.507 260.641 208.677 260.891C208.847 261.141 208.975 261.328 209.188 261.64L208.521 262.003C208.393 261.816 208.223 261.566 208.095 261.379Z" fill="#0F0F0F"/>
<path d="M218.868 243.524L218.49 243.507C217.526 243.432 216.456 243.338 215.324 243.287C213.018 243.122 210.692 243.061 208.366 243.001C206.039 242.94 203.713 242.88 201.344 242.757C199.038 242.592 197.004 242.423 195.157 242.128L195.296 241.393C197.143 241.689 199.115 241.899 201.379 242.002C203.685 242.168 206.074 242.186 208.4 242.246C210.726 242.306 213.052 242.367 215.359 242.532C216.596 242.604 217.77 242.718 218.902 242.769L218.868 243.524Z" fill="#0F0F0F"/>
<path d="M209.376 264.067L209.41 263.312C216.494 263.513 222.154 263.771 227.374 264.053C234.103 264.405 240.08 264.994 245.66 265.671L245.563 266.469C239.983 265.791 233.986 265.307 227.319 264.913C222.119 264.525 216.397 264.31 209.376 264.067Z" fill="#0F0F0F"/>
<path d="M250.715 280.602C249.779 279.228 248.781 277.897 247.845 276.524C247.292 275.712 246.762 275.068 246.337 274.444C245.551 273.425 244.851 272.531 244.06 270.968L244.727 270.605C245.58 272.126 246.176 273 246.961 274.019C247.449 274.6 247.917 275.287 248.469 276.099C249.405 277.472 253.273 282.881 254.208 284.254C256.037 286.938 257.401 289.208 258.575 291.334L257.908 291.697C256.734 289.571 255.413 287.364 253.584 284.679C252.648 283.306 251.65 281.975 250.715 280.602Z" fill="#0F0F0F"/>
<path d="M239.648 277.907L240.272 277.482L248.523 289.593L247.261 289.082L239.648 277.907Z" fill="#0F0F0F"/>
<path d="M241.117 284.765C241.565 285.556 242.012 286.348 242.523 287.097C242.123 286.912 241.723 286.728 241.323 286.543C241.025 286.106 240.748 285.564 240.512 285.085C239.659 283.564 238.763 281.981 237.745 280.755L238.327 280.267C239.282 281.535 240.263 283.244 241.117 284.765Z" fill="#0F0F0F"/>
<path d="M253.44 290.905C252.992 290.113 252.482 289.364 251.886 288.49C250.738 286.804 249.442 285.036 248.231 283.393C246.978 281.688 245.725 279.982 244.534 278.234C243.343 276.486 242.385 274.946 241.574 273.487L242.241 273.124C243.052 274.583 244.01 276.124 245.158 277.809C246.349 279.557 247.602 281.263 248.856 282.968C250.066 284.611 251.362 286.379 252.511 288.065C253.149 289.001 253.744 289.875 254.234 290.729L253.61 291.154L253.44 290.905Z" fill="#0F0F0F"/>
<path d="M204.619 257.62L204.486 256.888C205.553 256.71 207.672 257.003 208.682 257.411L208.333 258.106C207.428 257.717 205.519 257.464 204.619 257.62Z" fill="#0F0F0F"/>
<path d="M233.375 281.448L233.34 282.202C232.963 282.185 232.481 282.148 231.851 282.029C231.261 281.7 230.609 281.413 229.976 281.021C231.446 281.3 232.725 281.433 233.375 281.448Z" fill="#0F0F0F"/>
<path d="M210.412 258.609L210.993 258.121C211.248 258.496 211.504 258.87 211.759 259.245C212.014 259.619 212.269 259.994 212.567 260.431C212.865 260.868 213.12 261.243 213.375 261.617L212.708 261.98C212.558 261.625 212.198 261.231 211.943 260.856C211.645 260.419 211.39 260.045 211.135 259.67C210.879 259.296 210.667 258.984 210.412 258.609Z" fill="#0F0F0F"/>
<path d="M201.722 253.1C203.504 253.166 205.938 253.519 208.119 253.769C208.917 253.866 209.714 253.963 210.406 254.04L210.309 254.837C209.617 254.76 208.82 254.663 208.023 254.566C205.841 254.316 203.407 253.963 201.626 253.897L201.722 253.1Z" fill="#0F0F0F"/>
<path d="M235.487 282.935L236.111 282.51C236.366 282.884 237.515 284.57 237.812 285.007C237.37 284.76 236.908 284.618 236.465 284.371C236.423 284.308 235.742 283.31 235.487 282.935Z" fill="#0F0F0F"/>
<path d="M208.908 250.767C210.145 250.839 211.634 251.012 212.956 251.209L212.817 251.943C211.495 251.747 210.048 251.636 208.769 251.502C207.365 251.453 206 251.195 204.616 251.041C203.294 250.845 201.867 250.628 200.525 250.537C199.98 250.543 199.498 250.506 198.953 250.511L198.925 249.799C199.47 249.794 200.015 249.788 200.602 249.845C202.006 249.894 203.371 250.152 204.755 250.306C206.139 250.46 207.566 250.676 208.908 250.767Z" fill="#0F0F0F"/>
<path d="M216.182 247.215L216.137 247.969L197.813 246.874L197.858 246.12L216.182 247.215Z" fill="#0F0F0F"/>
<path d="M262.263 291.383C259.663 287.03 256.726 282.45 253.324 277.456C251.24 274.397 250.114 272.879 248.563 270.736C247.82 269.78 247.097 268.719 246.056 267.325L246.681 266.9C247.679 268.231 248.444 269.355 249.187 270.311C250.738 272.453 251.864 273.971 253.948 277.03C257.393 282.087 260.288 286.605 262.93 291.02L262.263 291.383Z" fill="#0F0F0F"/>
<path d="M236.793 278.288L223.46 277.5C223.018 277.253 222.533 276.944 222.048 276.635L236.828 277.534L236.793 278.288Z" fill="#0F0F0F"/>
<path d="M239.543 273.862L239.166 273.844C238.202 273.77 237.132 273.676 236 273.625C233.694 273.459 231.368 273.399 229.041 273.339C226.715 273.278 224.389 273.218 222.02 273.095C219.714 272.929 217.68 272.761 215.833 272.466L215.972 271.731C217.819 272.027 219.791 272.237 222.054 272.34C224.361 272.506 226.749 272.524 229.076 272.584C231.402 272.644 233.728 272.705 236.034 272.87C237.271 272.942 238.446 273.056 239.578 273.107L239.543 273.862Z" fill="#0F0F0F"/>
<path d="M242.84 270.519C240.196 270.127 237.323 269.8 233.78 269.563C231.955 269.435 224.619 269.131 222.795 269.003C219.252 268.766 216.316 268.481 213.629 268.026L213.769 267.292C216.413 267.684 219.286 268.011 222.83 268.248C224.654 268.376 231.99 268.68 233.814 268.808C237.357 269.045 240.293 269.33 242.98 269.785L242.84 270.519Z" fill="#0F0F0F"/>
<path d="M210.576 210.419L210.61 209.664C211.26 209.678 211.742 209.716 212.182 209.69C212.999 209.682 213.543 209.677 214.593 209.875L214.454 210.61C213.509 210.431 212.964 210.437 212.21 210.402C211.77 210.428 211.225 210.433 210.576 210.419Z" fill="#0F0F0F"/>
<path d="M214.566 213.187C214.694 213.374 214.822 213.562 214.949 213.749L214.24 214.049C214.155 213.925 214.07 213.8 213.942 213.612C213.9 213.55 213.815 213.425 213.772 213.363C213.687 213.238 213.559 213.051 213.452 212.758L214.184 212.625C214.311 212.813 214.439 213 214.566 213.187Z" fill="#0F0F0F"/>
<path d="M216.755 210.231C217.01 210.605 217.265 210.98 217.521 211.354C217.776 211.729 218.031 212.103 218.329 212.54C218.626 212.977 218.882 213.352 219.137 213.727L218.47 214.089C218.32 213.735 217.96 213.34 217.704 212.966C217.407 212.529 217.151 212.154 216.896 211.78C216.641 211.405 216.428 211.093 216.173 210.718L216.755 210.231Z" fill="#0F0F0F"/>
<path d="M240.03 249.492C240.24 249.532 240.345 249.552 240.555 249.592C241.145 249.921 241.777 250.313 242.43 250.6C241.528 250.483 240.73 250.386 239.891 250.227L240.03 249.492Z" fill="#0F0F0F"/>
<path d="M262.328 264.644C262.583 265.019 262.839 265.394 263.179 265.893C264.582 267.953 266.516 270.657 267.372 272.451L266.705 272.814C265.892 271.083 263.958 268.378 262.597 266.381C262.257 265.881 262.002 265.507 261.746 265.132L262.371 264.707L262.328 264.644Z" fill="#0F0F0F"/>
<path d="M248.478 266.313L248.512 265.559C250.986 265.702 253.837 265.861 256.339 266.716L256.094 267.431C253.697 266.596 250.951 266.456 248.478 266.313Z" fill="#0F0F0F"/>
<path d="M247.473 262.973C246.886 262.916 246.446 262.941 245.902 262.947L245.873 262.235C246.418 262.229 246.9 262.266 247.55 262.281C248.137 262.338 250.109 262.548 252.395 262.819C255.207 263.189 258.395 263.576 259.589 263.585L259.555 264.339C258.318 264.268 255.13 263.881 252.318 263.511C250.137 263.26 248.06 263.03 247.473 262.973Z" fill="#0F0F0F"/>
<path d="M260.342 267.369C260.705 268.036 262.341 270.304 262.852 271.053C263.022 271.302 263.149 271.49 263.277 271.677C263.49 271.989 263.64 272.344 264 272.738L263.376 273.164C263.291 273.039 263.206 272.914 263.121 272.789C262.908 272.477 262.738 272.227 262.61 272.04C262.483 271.853 262.355 271.665 262.185 271.416C261.632 270.604 260.038 268.399 259.633 267.67L260.342 267.369Z" fill="#0F0F0F"/>
<path d="M244.634 259.332L244.668 258.578L261.062 259.565C261.715 259.852 262.367 260.139 262.977 260.363L263.02 260.426L244.634 259.332Z" fill="#0F0F0F"/>
<path d="M279.655 273.042C279.207 272.25 278.697 271.501 278.102 270.627C276.953 268.942 275.657 267.174 274.447 265.531C274.319 265.343 274.149 265.094 274.021 264.906L275.389 265.437C276.557 267.018 277.725 268.599 278.831 270.222C279.469 271.158 280.064 272.032 280.555 272.886L279.93 273.312L279.718 272.999L279.655 273.042Z" fill="#0F0F0F"/>
<path d="M255.395 273.117C255.522 273.304 255.65 273.491 255.777 273.679L255.068 273.979C254.983 273.854 254.898 273.729 254.77 273.542C254.728 273.48 254.643 273.355 254.6 273.292C254.515 273.168 254.388 272.98 254.28 272.688L255.012 272.555C255.139 272.742 255.267 272.93 255.395 273.117Z" fill="#0F0F0F"/>
<path d="M284.084 273.774C282.995 271.773 281.759 269.691 280.1 267.256L281.362 267.767C282.766 269.827 283.832 271.66 284.75 273.411L284.084 273.774Z" fill="#0F0F0F"/>
<path d="M268.532 262.615L275.805 273.29L275.18 273.715L267.27 262.104L268.532 262.615Z" fill="#0F0F0F"/>
<path d="M257.587 270.163C257.842 270.538 258.097 270.912 258.353 271.287C258.608 271.661 258.863 272.036 259.161 272.473C259.458 272.91 259.714 273.285 259.969 273.659L259.302 274.022C259.152 273.667 258.792 273.273 258.536 272.898C258.239 272.461 257.983 272.087 257.728 271.712C257.473 271.338 257.26 271.026 257.005 270.651L257.587 270.163Z" fill="#0F0F0F"/>
<path d="M242.113 254.56L242.252 253.825C244.099 254.121 246.07 254.331 248.334 254.434C248.879 254.429 249.466 254.486 250.011 254.48C250.558 254.747 251.148 255.076 251.758 255.301C250.626 255.249 249.494 255.198 248.362 255.146C245.931 255.066 243.959 254.855 242.113 254.56Z" fill="#0F0F0F"/>
<path d="M286.206 269.771C286.606 269.955 286.964 270.077 287.363 270.262C287.939 271.241 288.577 272.177 289.152 273.156L288.486 273.519C287.74 272.291 286.994 271.062 286.206 269.771Z" fill="#0F0F0F"/>
<path d="M227.945 235.239C229.727 235.305 232.161 235.657 234.342 235.908C235.139 236.005 235.936 236.101 236.629 236.178L236.532 236.975C235.84 236.899 235.042 236.802 234.245 236.705C232.064 236.455 229.63 236.102 227.848 236.036L227.945 235.239Z" fill="#0F0F0F"/>
<path d="M240.014 237.53C240.377 238.196 242.013 240.464 242.524 241.213C242.694 241.463 242.821 241.65 242.949 241.837C243.162 242.149 243.312 242.504 243.672 242.898L243.048 243.324C242.963 243.199 242.877 243.074 242.792 242.949C242.58 242.637 242.41 242.387 242.282 242.2C242.154 242.013 242.027 241.825 241.857 241.576C241.304 240.764 239.71 238.559 239.305 237.83L240.014 237.53Z" fill="#0F0F0F"/>
<path d="M230.838 239.757L230.705 239.025C231.772 238.846 233.891 239.139 234.901 239.548L234.551 240.243C233.647 239.854 231.737 239.601 230.838 239.757Z" fill="#0F0F0F"/>
<path d="M266.667 267.262C265.814 265.742 264.918 264.158 263.9 262.932L264.482 262.445C265.5 263.67 266.438 265.316 267.291 266.837C267.909 267.879 268.507 269.025 269.188 270.024C269.911 271.085 270.674 271.936 271.414 272.62L270.875 273.171C270.092 272.424 269.287 271.51 268.521 270.387C267.946 269.408 267.285 268.304 266.667 267.262Z" fill="#0F0F0F"/>
<path d="M237.357 241.808C237.102 241.433 236.889 241.121 236.634 240.747L237.216 240.259C237.471 240.633 237.726 241.008 237.981 241.383C238.237 241.757 238.492 242.132 238.79 242.569C239.087 243.006 239.342 243.38 239.598 243.755L238.931 244.118C238.781 243.763 238.42 243.369 238.165 242.994C237.805 242.6 237.612 242.182 237.357 241.808Z" fill="#0F0F0F"/>
<path d="M234.314 243.516C234.059 243.141 233.846 242.829 233.696 242.474L234.448 242.236C234.513 242.466 234.726 242.778 234.896 243.028C235.066 243.277 235.194 243.465 235.406 243.777L234.739 244.14C234.612 243.953 234.442 243.703 234.314 243.516Z" fill="#0F0F0F"/>
<path d="M251.408 270.347L251.442 269.593C252.092 269.607 252.574 269.644 253.014 269.619C253.831 269.611 254.375 269.605 255.425 269.804L255.286 270.539C254.341 270.36 253.796 270.365 253.042 270.331C252.602 270.356 252.057 270.362 251.408 270.347Z" fill="#0F0F0F"/>
<path d="M293.895 274.76C293.35 274.766 292.868 274.729 292.323 274.734L292.295 274.022C292.84 274.017 293.384 274.011 293.971 274.068C295.103 274.12 296.215 274.276 297.327 274.432C298.19 274.759 299.032 275.19 299.832 275.56C299.202 275.44 298.615 275.383 297.985 275.264C296.621 275.005 295.236 274.851 293.895 274.76Z" fill="#0F0F0F"/>
<path d="M334.637 289.878C333.46 289.492 335.1 290.02 336.172 290.387C331.327 289.849 326.189 289.418 320.592 289.119C315.372 288.836 309.713 288.578 302.629 288.377L302.663 287.622C309.747 287.824 315.406 288.081 320.626 288.364C324.987 288.592 328.992 288.971 332.788 289.31C334.07 289.716 336.129 290.324 334.637 289.878Z" fill="#0F0F0F"/>
<path d="M340.231 298.224C340.718 298.805 341.186 299.492 341.739 300.304C342.675 301.677 346.542 307.086 347.478 308.459C349.307 311.143 350.67 313.414 351.844 315.539L351.177 315.902C350.004 313.776 348.682 311.569 346.854 308.884C345.918 307.511 342.05 302.102 341.115 300.729C340.562 299.917 340.032 299.273 339.606 298.649C338.821 297.63 338.12 296.736 337.329 295.173L337.996 294.81C338.787 296.373 339.445 297.205 340.231 298.224Z" fill="#0F0F0F"/>
<path d="M297.889 281.826L297.756 281.094C298.823 280.916 300.942 281.209 301.951 281.618L301.602 282.312C300.697 281.923 298.788 281.67 297.889 281.826Z" fill="#0F0F0F"/>
<path d="M294.996 277.308C296.777 277.374 299.211 277.727 301.393 277.977C302.19 278.074 302.987 278.171 303.679 278.248L303.583 279.045C302.89 278.968 302.093 278.871 301.296 278.774C299.115 278.524 296.681 278.171 294.899 278.105L294.996 277.308Z" fill="#0F0F0F"/>
<path d="M336.106 294.724C333.462 294.331 330.588 294.004 327.045 293.767C325.221 293.639 317.885 293.335 316.061 293.207C312.518 292.97 309.582 292.685 306.895 292.23L307.034 291.496C309.678 291.888 312.552 292.215 316.095 292.452C317.919 292.581 325.255 292.884 327.08 293.012C330.623 293.249 333.559 293.534 336.245 293.989L336.106 294.724Z" fill="#0F0F0F"/>
<path d="M330.096 301.759L330.051 302.513L311.727 301.418L311.773 300.664L330.096 301.759Z" fill="#0F0F0F"/>
<path d="M332.813 298.07L332.436 298.052C331.471 297.978 330.402 297.884 329.27 297.833C326.963 297.667 324.637 297.607 322.311 297.547C319.985 297.486 317.658 297.426 315.29 297.303C312.983 297.137 310.949 296.969 309.102 296.674L309.242 295.939C311.088 296.235 313.06 296.445 315.324 296.548C317.63 296.714 320.019 296.732 322.345 296.792C324.671 296.852 326.998 296.913 329.304 297.078C330.541 297.15 331.715 297.264 332.847 297.315L332.813 298.07Z" fill="#0F0F0F"/>
<path d="M301.986 285.157C302.156 285.406 302.283 285.594 302.496 285.906L301.829 286.269C301.702 286.081 301.532 285.832 301.404 285.644C301.149 285.27 300.936 284.958 300.786 284.603L301.538 284.365C301.603 284.595 301.773 284.845 301.986 285.157Z" fill="#0F0F0F"/>
<path d="M329.609 308.389C329.269 307.889 329.014 307.515 328.759 307.14L329.383 306.715C329.638 307.089 329.893 307.464 330.233 307.963C331.637 310.023 333.571 312.728 334.427 314.521L333.76 314.884C332.904 313.091 330.97 310.386 329.609 308.389Z" fill="#0F0F0F"/>
<path d="M329.703 314.17C329.576 313.982 329.448 313.795 329.278 313.545C328.725 312.734 327.132 310.529 326.726 309.8L327.393 309.437C327.756 310.104 329.392 312.371 329.902 313.12C330.073 313.37 330.2 313.557 330.328 313.744C330.54 314.057 330.691 314.411 331.051 314.806L330.427 315.231C330.341 315.106 330.256 314.981 330.171 314.856C329.939 314.649 329.831 314.357 329.703 314.17Z" fill="#0F0F0F"/>
<path d="M333.718 309.332C332.864 307.811 331.969 306.228 330.951 305.002L331.532 304.514C332.55 305.74 333.489 307.386 334.342 308.906C334.96 309.948 335.558 311.094 336.239 312.093C336.962 313.154 337.725 314.006 338.465 314.69L337.926 315.24C337.143 314.493 336.337 313.58 335.572 312.456C334.996 311.477 334.336 310.373 333.718 309.332Z" fill="#0F0F0F"/>
<path d="M325.583 314.967C325.286 314.53 325.03 314.155 324.775 313.781C324.52 313.406 324.307 313.094 324.052 312.719L324.634 312.232C324.889 312.606 325.144 312.981 325.399 313.355C325.655 313.73 325.91 314.104 326.208 314.541C326.505 314.978 326.76 315.353 327.016 315.728L326.349 316.09C326.094 315.716 325.838 315.341 325.583 314.967Z" fill="#0F0F0F"/>
<path d="M333.537 301.687L342.852 315.358L342.227 315.784L332.913 302.112L333.537 301.687Z" fill="#0F0F0F"/>
<path d="M315.524 308.38L315.559 307.625C318.033 307.768 320.884 307.928 323.385 308.783L323.141 309.497C320.744 308.663 317.998 308.523 315.524 308.38Z" fill="#0F0F0F"/>
<path d="M322.472 311.875L322.333 312.609C321.388 312.43 320.843 312.436 320.089 312.401C319.649 312.427 319.167 312.39 318.474 312.313L318.509 311.558C319.158 311.573 319.641 311.61 320.08 311.584C320.878 311.681 321.422 311.676 322.472 311.875Z" fill="#0F0F0F"/>
<path d="M322.441 315.185C322.569 315.373 322.697 315.56 322.824 315.747L322.115 316.048C322.03 315.923 321.945 315.798 321.817 315.611C321.775 315.548 321.69 315.423 321.647 315.361C321.562 315.236 321.434 315.049 321.327 314.756L322.059 314.623C322.186 314.811 322.314 314.998 322.441 315.185Z" fill="#0F0F0F"/>
<path d="M305.216 285.06C304.918 284.623 304.663 284.249 304.408 283.874C304.153 283.5 303.94 283.188 303.685 282.813L304.267 282.325C304.522 282.7 304.777 283.074 305.032 283.449C305.287 283.824 305.543 284.198 305.84 284.635C306.138 285.072 306.393 285.447 306.648 285.821L305.982 286.184C305.769 285.872 305.514 285.497 305.216 285.06Z" fill="#0F0F0F"/>
<path d="M317.096 283.727C317.456 284.121 317.817 284.516 318.177 284.91L317.637 285.46C316.897 284.776 316.177 283.988 315.496 282.989C316.044 283.256 316.549 283.46 317.096 283.727Z" fill="#0F0F0F"/>
<path d="M310.633 280.544C311.076 280.791 311.581 280.995 312.023 281.242C312.874 282.491 313.619 283.719 314.09 284.678L313.423 285.041C312.845 283.79 311.697 282.104 310.633 280.544Z" fill="#0F0F0F"/>
<path d="M319.45 304.888C322.261 305.258 325.45 305.645 326.644 305.654L326.61 306.408C325.373 306.337 322.184 305.95 319.373 305.58C317.192 305.33 315.115 305.099 314.528 305.042C313.941 304.985 313.501 305.011 312.956 305.016L312.928 304.304C313.473 304.299 313.955 304.336 314.605 304.35C315.149 304.345 317.164 304.618 319.45 304.888Z" fill="#0F0F0F"/>
<path d="M335.506 297.328C336.317 298.787 337.276 300.328 338.424 302.013C339.615 303.761 340.868 305.467 342.121 307.172C343.332 308.815 344.628 310.583 345.776 312.269C346.414 313.205 347.01 314.079 347.5 314.933L346.876 315.358L346.706 315.109C346.195 314.36 345.747 313.568 345.152 312.694C344.004 311.008 342.708 309.241 341.497 307.597C340.244 305.892 338.99 304.187 337.8 302.439C336.609 300.691 335.65 299.15 334.84 297.691L335.506 297.328Z" fill="#0F0F0F"/>
<path d="M322.023 285.858L321.899 285.943L321.771 285.756C321.814 285.819 321.918 285.839 322.023 285.858Z" fill="#0F0F0F"/>
<path d="M355.622 314.245C355.478 314.435 355.27 314.668 355.083 314.795C352.548 310.672 349.824 306.404 346.591 301.66C344.507 298.601 343.382 297.083 341.831 294.94C341.088 293.984 340.365 292.923 339.324 291.529L339.449 291.444C339.806 291.566 340.059 291.669 340.416 291.791C341.202 292.81 341.797 293.684 342.412 294.453C343.963 296.595 345.089 298.113 347.173 301.172C350.405 305.917 353.13 310.184 355.622 314.245C355.435 314.373 355.228 314.605 355.041 314.733L355.622 314.245Z" fill="#0F0F0F"/>
<path d="M309.371 284.328C309.244 284.141 309.116 283.953 308.946 283.704C308.393 282.892 306.8 280.687 306.394 279.958L307.061 279.595C307.424 280.262 309.06 282.529 309.57 283.278C309.741 283.528 309.868 283.715 309.996 283.903C310.208 284.215 310.359 284.569 310.719 284.964L310.094 285.389C310.009 285.264 309.924 285.139 309.839 285.015C309.607 284.807 309.499 284.515 309.371 284.328Z" fill="#0F0F0F"/>
<path d="M351.806 297.104C351.763 297.041 351.678 296.917 351.636 296.854C352.163 297.226 352.648 297.535 353.176 297.907L352.571 298.228C352.316 297.853 352.061 297.478 351.806 297.104Z" fill="#0F0F0F"/>
<path d="M348.664 297.323C348.792 297.51 348.919 297.697 349.047 297.885L348.338 298.185C348.252 298.06 348.167 297.936 348.04 297.748C347.997 297.686 347.912 297.561 347.87 297.499C347.785 297.374 347.657 297.186 347.549 296.894L348.281 296.761C348.409 296.948 348.537 297.136 348.664 297.323Z" fill="#0F0F0F"/>
<path d="M347.273 294.613C346.959 294.554 346.624 294.599 346.246 294.582C345.807 294.607 345.324 294.57 344.632 294.493L344.667 293.739C344.939 293.736 345.211 293.733 345.484 293.73C345.569 293.855 346.769 294.409 347.273 294.613Z" fill="#0F0F0F"/>
</g>
<path d="M342.545 293.582C341.824 291.577 340.781 289.733 339.578 288.049C339.337 281.713 334.766 275.217 330.676 270.325C325.624 264.311 318.807 256.371 310.707 254.928C305.976 254.046 302.126 257.654 303.169 262.466C303.73 265.113 304.933 267.679 306.297 270.085C298.197 266.957 290.177 263.669 282.077 260.702C272.133 257.013 246.55 247.71 243.744 246.668C238.37 243.62 232.997 240.412 227.785 237.204C222.572 233.997 217.359 230.227 211.825 227.421C208.778 225.897 198.192 221.085 196.749 227.18C195.465 232.633 200.839 238.247 204.447 241.615C209.019 245.866 213.75 249.875 218.562 253.725C228.907 261.905 239.493 269.283 251.282 275.298C262.991 281.232 275.341 285.964 287.13 291.738C298.838 297.432 310.146 303.928 321.053 311.145C325.143 313.872 330.756 312.91 334.445 309.862C340.54 307.136 344.951 300.319 342.545 293.582Z" fill="#EEEAE0"/>
<path d="M420.743 215.552C413.284 211.783 405.425 208.575 397.887 204.966C390.108 201.277 382.409 197.267 374.63 193.498C367.091 189.809 359.473 186.12 351.774 182.832C347.844 181.148 343.995 179.223 339.985 177.78C337.9 177.058 335.815 176.336 333.649 175.935C332.607 175.694 331.645 175.534 330.522 175.694C330.201 175.694 327.474 176.336 328.758 176.176C326.592 176.416 324.106 178.501 325.069 180.987C325.79 182.752 325.87 184.195 327.073 185.799C328.357 187.564 330.041 189.087 331.645 190.611C334.772 193.498 338.301 195.984 341.669 198.55C348.566 203.683 355.864 208.495 363.242 212.986C370.379 217.316 377.758 221.326 385.136 225.336C392.674 229.426 400.212 233.837 408.072 237.365C414.086 240.092 421.946 239.29 425.394 232.794C428.281 227.1 426.998 218.68 420.743 215.552Z" fill="#EEEAE0"/>
<path d="M419.503 77.41V224.57L287.66 148.464V1.22363L419.503 77.41ZM401.058 188.161V150.549L370.984 133.146V170.758L401.058 188.161ZM351.977 159.772V64.4984L307.789 38.996V134.269L351.977 159.772Z" fill="#EBEDEF"/>
<path d="M401.058 150.549V188.161L370.984 170.758V133.146L401.058 150.549Z" fill="#DAF7D2"/>
<path d="M351.978 64.499V159.772L329.844 99.3844L351.978 64.499Z" fill="#FDFAEF"/>
<path d="M351.981 64.4985L329.847 99.3838L307.793 38.9961L351.981 64.4985Z" fill="#FDFAEF"/>
<path d="M329.847 99.3838L351.981 159.772L307.793 134.269L329.847 99.3838Z" fill="#FDFAEF"/>
<path d="M307.793 38.9961L329.847 99.3838L307.793 134.269V38.9961Z" fill="#FDFAEF"/>
<path d="M419.505 225.772C419.264 225.772 419.104 225.692 418.863 225.612L287.02 149.506C286.619 149.265 286.379 148.864 286.379 148.463V1.22298C286.379 0.822001 286.619 0.42103 287.02 0.180441C287.421 -0.0601471 287.822 -0.0601471 288.223 0.180441L420.066 76.2866C420.467 76.5272 420.708 76.9282 420.708 77.3291V224.489C420.708 224.89 420.467 225.291 420.066 225.532C419.906 225.692 419.665 225.772 419.505 225.772ZM288.865 147.741L418.302 222.484V78.0509L288.865 3.30806V147.741Z" fill="#0F0F0F"/>
<path d="M351.983 160.974C351.742 160.974 351.582 160.894 351.342 160.813L307.153 135.311C306.752 135.071 306.512 134.67 306.512 134.269V38.9954C306.512 38.5945 306.752 38.1935 307.153 37.9529C307.554 37.7123 307.955 37.7123 308.356 37.9529L352.544 63.4553C352.945 63.6959 353.186 64.0968 353.186 64.4978V159.771C353.186 160.172 352.945 160.573 352.544 160.813C352.384 160.974 352.224 160.974 351.983 160.974ZM308.998 133.547L350.78 157.686V65.2196L308.998 41.0806V133.547Z" fill="#0F0F0F"/>
<path d="M401.06 189.363C400.819 189.363 400.659 189.283 400.418 189.203L370.345 171.8C369.944 171.56 369.703 171.159 369.703 170.758V133.146C369.703 132.745 369.944 132.344 370.345 132.103C370.746 131.863 371.147 131.863 371.548 132.103L401.621 149.506C402.022 149.746 402.263 150.147 402.263 150.548V188.16C402.263 188.561 402.022 188.962 401.621 189.203C401.461 189.283 401.301 189.363 401.06 189.363ZM372.189 170.036L399.857 185.995V151.19L372.189 135.231V170.036Z" fill="#0F0F0F"/>
<path d="M400.896 95.9345C400.656 95.9345 400.495 95.8543 400.335 95.7741L370.823 78.6923C370.261 78.3715 370.021 77.6498 370.422 77.0884C370.743 76.527 371.464 76.2864 372.026 76.6874L401.538 93.7692C402.099 94.09 402.34 94.8117 401.939 95.3731C401.698 95.6939 401.297 95.9345 400.896 95.9345Z" fill="#0F0F0F"/>
<path d="M400.896 106.039C400.656 106.039 400.495 105.959 400.335 105.879L370.823 88.7968C370.261 88.476 370.021 87.7542 370.422 87.1929C370.743 86.6315 371.464 86.3909 372.026 86.7919L401.538 103.874C402.099 104.194 402.34 104.916 401.939 105.478C401.698 105.798 401.297 106.039 400.896 106.039Z" fill="#0F0F0F"/>
<path d="M400.896 116.143C400.656 116.143 400.495 116.063 400.335 115.983L370.823 98.9013C370.261 98.5805 370.021 97.8587 370.422 97.2974C370.743 96.736 371.464 96.4954 372.026 96.8964L401.538 113.978C402.099 114.299 402.34 115.021 401.939 115.582C401.698 115.903 401.297 116.143 400.896 116.143Z" fill="#0F0F0F"/>
<path d="M400.896 126.249C400.656 126.249 400.495 126.169 400.335 126.089L370.823 109.007C370.261 108.686 370.021 107.964 370.422 107.403C370.743 106.841 371.464 106.601 372.026 107.002L401.538 124.084C402.099 124.404 402.34 125.126 401.939 125.688C401.698 126.008 401.297 126.249 400.896 126.249Z" fill="#0F0F0F"/>
<path d="M400.896 136.353C400.656 136.353 400.495 136.273 400.335 136.193L370.823 119.111C370.261 118.79 370.021 118.069 370.422 117.507C370.743 116.946 371.464 116.705 372.026 117.106L401.538 134.188C402.099 134.509 402.34 135.231 401.939 135.792C401.698 136.113 401.297 136.353 400.896 136.353Z" fill="#0F0F0F"/>
<path d="M307.788 135.471C307.548 135.471 307.307 135.391 307.147 135.31C306.585 134.99 306.425 134.188 306.746 133.626L350.934 63.8555C351.254 63.2941 352.056 63.1337 352.618 63.4545C353.179 63.7753 353.339 64.5773 353.019 65.1387L308.831 134.909C308.59 135.31 308.189 135.471 307.788 135.471Z" fill="#0F0F0F"/>
<path d="M351.977 160.974C351.495 160.974 351.014 160.653 350.854 160.172L306.666 39.3165C306.425 38.6749 306.746 38.0334 307.388 37.7928C308.029 37.5522 308.671 37.873 308.911 38.5146L353.1 159.37C353.34 160.012 353.019 160.653 352.378 160.894C352.297 160.974 352.137 160.974 351.977 160.974Z" fill="#0F0F0F"/>
<path d="M329.527 114.46V300.836L162.559 204.44V18.0645L329.527 114.46ZM308.436 256.087V204.922L280.768 188.963V240.128L308.436 256.087ZM308.436 180.141V128.976L183.57 56.8794V108.045L308.436 180.141ZM264.969 230.985V179.82L237.302 163.861V215.026L264.969 230.985Z" fill="#FDFAEF"/>
<path d="M308.435 204.842V256.087L280.848 240.128V188.883L308.435 204.842Z" fill="#0F0F0F"/>
<path d="M308.436 128.974V180.139L246.043 118.549L308.436 128.974Z" fill="#FDFAEF"/>
<path d="M308.436 128.975L246.043 118.55L183.57 56.8789L308.436 128.975Z" fill="#FDFAEF"/>
<path d="M308.436 180.14L183.57 108.044L246.043 118.55L308.436 180.14Z" fill="#FDFAEF"/>
<path d="M264.972 179.74V230.986L237.305 215.027V163.781L264.972 179.74Z" fill="#F1FEA1"/>
<path d="M246.043 118.55L183.57 108.044V56.8789L246.043 118.55Z" fill="#FDFAEF"/>
<path d="M329.525 302.12C329.284 302.12 329.124 302.04 328.884 301.959L161.915 205.563C161.514 205.323 161.273 204.922 161.273 204.521V18.0648C161.273 17.6638 161.514 17.2628 161.915 17.0222C162.316 16.7816 162.717 16.7816 163.118 17.0222L330.087 113.418C330.488 113.659 330.728 114.06 330.728 114.461V300.837C330.728 301.238 330.488 301.638 330.087 301.879C329.926 302.039 329.766 302.12 329.525 302.12ZM163.76 203.799L328.322 298.832V115.182L163.76 20.1499V203.799Z" fill="#0F0F0F"/>
<path d="M308.434 181.344C308.193 181.344 308.033 181.264 307.792 181.183L182.927 109.087C182.526 108.846 182.285 108.445 182.285 108.044V56.8792C182.285 56.4783 182.526 56.0773 182.927 55.8367C183.328 55.5961 183.729 55.5961 184.13 55.8367L308.995 127.933C309.396 128.174 309.637 128.575 309.637 128.976V180.141C309.637 180.542 309.396 180.943 308.995 181.183C308.915 181.344 308.674 181.344 308.434 181.344ZM184.771 107.403L307.231 178.136V129.697L184.771 58.9644V107.403Z" fill="#0F0F0F"/>
<path d="M308.431 257.29C308.191 257.29 308.03 257.21 307.79 257.13L280.122 241.171C279.721 240.93 279.48 240.529 279.48 240.128V188.963C279.48 188.562 279.721 188.161 280.122 187.921C280.523 187.68 280.924 187.68 281.325 187.921L308.993 203.88C309.394 204.12 309.634 204.521 309.634 204.922V256.087C309.634 256.488 309.394 256.889 308.993 257.13C308.913 257.21 308.672 257.29 308.431 257.29ZM282.047 239.407L307.309 254.002V205.564L282.047 190.968V239.407Z" fill="#0F0F0F"/>
<path d="M264.97 232.189C264.73 232.189 264.569 232.109 264.329 232.028L236.661 216.069C236.26 215.829 236.02 215.428 236.02 215.027V163.862C236.02 163.461 236.26 163.06 236.661 162.819C237.062 162.579 237.463 162.579 237.864 162.819L265.532 178.778C265.933 179.019 266.173 179.42 266.173 179.821V230.986C266.173 231.387 265.933 231.788 265.532 232.028C265.371 232.109 265.131 232.189 264.97 232.189ZM238.506 214.305L263.767 228.901V180.462L238.506 165.867V214.305Z" fill="#0F0F0F"/>
<path d="M221.019 155.601C220.779 155.601 220.618 155.521 220.458 155.441L183.006 133.868C182.445 133.547 182.204 132.826 182.605 132.264C182.926 131.703 183.648 131.462 184.209 131.863L221.661 153.436C222.222 153.757 222.463 154.479 222.062 155.04C221.821 155.361 221.42 155.601 221.019 155.601Z" fill="#0F0F0F"/>
<path d="M221.019 168.352C220.779 168.352 220.618 168.272 220.458 168.192L183.006 146.619C182.445 146.298 182.204 145.577 182.605 145.015C182.926 144.454 183.648 144.213 184.209 144.614L221.661 166.187C222.222 166.508 222.463 167.23 222.062 167.791C221.821 168.192 221.42 168.352 221.019 168.352Z" fill="#0F0F0F"/>
<path d="M221.019 181.183C220.779 181.183 220.618 181.103 220.458 181.023L183.006 159.45C182.445 159.129 182.204 158.408 182.605 157.846C182.926 157.285 183.648 157.044 184.209 157.445L221.661 179.018C222.222 179.339 222.463 180.061 222.062 180.622C221.821 180.943 221.42 181.183 221.019 181.183Z" fill="#0F0F0F"/>
<path d="M221.019 194.014C220.779 194.014 220.618 193.934 220.458 193.854L183.006 172.281C182.445 171.96 182.204 171.239 182.605 170.677C182.926 170.116 183.648 169.875 184.209 170.276L221.661 191.849C222.222 192.17 222.463 192.892 222.062 193.453C221.821 193.774 221.42 194.014 221.019 194.014Z" fill="#0F0F0F"/>
<path d="M221.019 206.766C220.779 206.766 220.618 206.686 220.458 206.606L183.006 185.033C182.445 184.712 182.204 183.991 182.605 183.429C182.926 182.868 183.648 182.627 184.209 183.028L221.661 204.601C222.222 204.922 222.463 205.644 222.062 206.205C221.821 206.526 221.42 206.766 221.019 206.766Z" fill="#0F0F0F"/>
<path d="M308.43 130.179C308.349 130.179 308.269 130.179 308.269 130.179L183.404 109.247C182.762 109.167 182.281 108.526 182.441 107.884C182.521 107.243 183.163 106.761 183.805 106.922L308.67 127.853C309.312 127.933 309.793 128.575 309.632 129.216C309.552 129.778 309.071 130.179 308.43 130.179Z" fill="#0F0F0F"/>
<path d="M308.433 181.344C308.112 181.344 307.791 181.264 307.551 181.023L182.685 57.7618C182.204 57.2807 182.204 56.5589 182.685 56.0777C183.166 55.5965 183.888 55.5965 184.369 56.0777L309.235 179.339C309.716 179.82 309.716 180.542 309.235 181.023C309.074 181.264 308.754 181.344 308.433 181.344Z" fill="#0F0F0F"/>
<path d="M192.306 162.498V280.948L181.961 286.882V168.513L192.306 162.498Z" fill="#0F0F0F"/>
<path d="M192.305 162.499L181.96 168.513L119.246 132.265L129.591 126.33L192.305 162.499Z" fill="#FDFAEF"/>
<path d="M181.96 168.513V286.883L119.246 250.714V132.265L181.96 168.513Z" fill="#FDFAEF"/>
<path d="M181.958 169.716C181.717 169.716 181.557 169.635 181.316 169.555L118.603 133.307C118.202 133.066 117.961 132.665 117.961 132.264C117.961 131.863 118.202 131.462 118.603 131.221L128.948 125.287C129.349 125.046 129.75 125.046 130.151 125.287L192.864 161.536C193.265 161.776 193.506 162.177 193.506 162.578C193.506 162.979 193.265 163.38 192.864 163.621L182.519 169.555C182.358 169.635 182.198 169.716 181.958 169.716ZM121.65 132.264L181.958 167.069L189.897 162.498L129.589 127.693L121.65 132.264Z" fill="#0F0F0F"/>
<path d="M181.957 288.085C181.315 288.085 180.754 287.524 180.754 286.882V168.432C180.754 167.791 181.315 167.229 181.957 167.229C182.598 167.229 183.16 167.791 183.16 168.432V286.882C183.16 287.604 182.598 288.085 181.957 288.085Z" fill="#0F0F0F"/>
<path d="M181.958 288.086C181.717 288.086 181.557 288.006 181.316 287.925L118.603 251.677C118.202 251.436 117.961 251.035 117.961 250.634V132.184C117.961 131.543 118.522 130.981 119.164 130.981C119.805 130.981 120.367 131.543 120.367 132.184V249.912L181.877 285.439L191.02 280.146V162.418C191.02 161.777 191.581 161.215 192.223 161.215C192.864 161.215 193.426 161.777 193.426 162.418V280.868C193.426 281.269 193.185 281.67 192.784 281.911L182.439 287.845C182.358 288.086 182.198 288.086 181.958 288.086Z" fill="#0F0F0F"/>
<path d="M169.767 182.067V208.211L150.199 183.832L169.767 182.067Z" fill="#FDFAEF"/>
<path d="M169.769 182.066L150.201 183.831L130.633 159.451L169.769 182.066Z" fill="#FDFAEF"/>
<path d="M169.769 208.21L130.633 185.675L150.201 183.83L169.769 208.21Z" fill="#FDFAEF"/>
<path d="M150.201 183.831L130.633 185.675V159.451L150.201 183.831Z" fill="#FDFAEF"/>
<path d="M169.774 209.411C169.534 209.411 169.373 209.331 169.133 209.25L129.997 186.715C129.596 186.475 129.355 186.074 129.355 185.673V159.449C129.355 159.048 129.596 158.647 129.997 158.406C130.398 158.165 130.799 158.165 131.2 158.406L170.336 181.021C170.737 181.262 170.977 181.663 170.977 182.064V208.208C170.977 208.609 170.737 209.01 170.336 209.25C170.175 209.411 169.935 209.411 169.774 209.411ZM131.842 184.951L168.571 206.123V182.706L131.842 161.534V184.951Z" fill="#0F0F0F"/>
<path d="M130.637 186.876C129.996 186.876 129.515 186.395 129.434 185.753C129.354 185.112 129.835 184.47 130.557 184.47L169.693 180.861C170.335 180.781 170.976 181.262 170.976 181.984C171.056 182.626 170.575 183.267 169.853 183.267L130.718 186.876C130.718 186.876 130.718 186.876 130.637 186.876Z" fill="#0F0F0F"/>
<path d="M169.773 209.411C169.452 209.411 169.051 209.25 168.81 208.93L129.675 160.17C129.274 159.689 129.354 158.887 129.835 158.486C130.316 158.085 131.118 158.165 131.519 158.647L170.655 207.406C171.056 207.887 170.976 208.689 170.495 209.09C170.254 209.331 170.013 209.411 169.773 209.411Z" fill="#0F0F0F"/>
<path d="M167.035 224.008C168.158 224.649 169.04 226.013 169.04 227.135C169.04 227.697 168.799 228.018 168.478 228.178C168.158 228.338 167.596 228.258 167.035 227.937L157.251 222.324C156.128 221.682 155.246 220.319 155.246 219.196C155.246 218.635 155.487 218.314 155.807 218.153C156.128 217.993 156.69 218.073 157.251 218.394L167.035 224.008Z" fill="#0F0F0F"/>
<path d="M169.685 239.325C170.807 239.967 171.69 241.33 171.69 242.453C171.69 243.014 171.449 243.335 171.128 243.495C170.807 243.656 170.246 243.576 169.685 243.255L149.716 231.707C148.593 231.065 147.711 229.702 147.711 228.579C147.711 228.017 147.952 227.697 148.272 227.536C148.673 227.376 149.154 227.456 149.716 227.777L169.685 239.325Z" fill="#0F0F0F"/>
<path d="M167.677 251.996C168.8 252.638 169.682 254.001 169.682 255.124C169.682 255.685 169.442 256.006 169.121 256.166C168.8 256.327 168.239 256.247 167.677 255.926L156.61 249.51C155.488 248.869 154.605 247.505 154.605 246.382C154.605 245.821 154.846 245.5 155.167 245.34C155.568 245.18 156.049 245.26 156.61 245.581L167.677 251.996Z" fill="#0F0F0F"/>
<path d="M141.777 223.206C142.9 223.848 143.782 225.211 143.782 226.334C143.782 226.895 143.541 227.216 143.221 227.377C142.82 227.537 142.338 227.457 141.777 227.136L129.427 219.998C128.304 219.357 127.422 217.994 127.422 216.871C127.422 216.309 127.662 215.989 127.983 215.828C128.384 215.668 128.865 215.748 129.427 216.069L141.777 223.206Z" fill="#0F0F0F"/>
<path d="M149.396 213.822C150.518 214.464 151.401 215.827 151.401 216.95C151.401 217.511 151.16 217.832 150.839 217.992C150.518 218.153 149.957 218.073 149.396 217.752L129.427 206.203C128.304 205.562 127.422 204.199 127.422 203.076C127.422 202.514 127.662 202.194 127.983 202.033C128.384 201.873 128.865 201.953 129.427 202.274L149.396 213.822Z" fill="#0F0F0F"/>
<path d="M148.676 241.009C149.799 241.651 150.681 243.014 150.681 244.137C150.681 244.698 150.44 245.019 150.119 245.179C149.799 245.34 149.237 245.259 148.676 244.939L129.349 233.791C128.226 233.15 127.344 231.786 127.344 230.664C127.344 230.102 127.584 229.782 127.905 229.621C128.306 229.461 128.787 229.541 129.349 229.862L148.676 241.009Z" fill="#0F0F0F"/>
<path d="M150.358 219.276C149.877 219.276 149.315 219.116 148.754 218.795L128.785 207.327C127.341 206.445 126.219 204.68 126.219 203.157C126.219 202.114 126.7 201.312 127.502 200.991C128.224 200.671 129.106 200.751 129.988 201.312L149.957 212.86C151.4 213.743 152.523 215.507 152.523 217.031C152.523 218.073 152.042 218.875 151.24 219.196C150.999 219.276 150.679 219.276 150.358 219.276ZM149.957 216.79C150.037 216.79 150.117 216.87 150.117 216.87C150.037 216.229 149.476 215.346 148.754 214.865L128.785 203.317C128.705 203.317 128.625 203.237 128.625 203.237C128.705 203.878 129.266 204.761 129.988 205.242L149.957 216.79Z" fill="#0F0F0F"/>
<path d="M168.083 229.541C167.602 229.541 167.04 229.381 166.479 229.06L156.695 223.446C155.252 222.564 154.129 220.8 154.129 219.276C154.129 218.233 154.61 217.431 155.412 217.11C156.134 216.79 157.016 216.87 157.898 217.431L167.682 223.045C169.126 223.927 170.248 225.692 170.248 227.215C170.248 228.258 169.767 229.06 168.965 229.381C168.644 229.461 168.404 229.541 168.083 229.541ZM167.682 226.975C167.762 226.975 167.842 227.055 167.842 227.055C167.762 226.413 167.201 225.531 166.479 225.05L156.695 219.436C156.615 219.436 156.535 219.356 156.535 219.356C156.615 219.998 157.176 220.88 157.898 221.361L167.682 226.975Z" fill="#0F0F0F"/>
<path d="M142.739 228.659C142.258 228.659 141.697 228.499 141.135 228.178L128.785 221.041C127.341 220.159 126.219 218.394 126.219 216.871C126.219 215.828 126.7 215.026 127.502 214.705C128.224 214.384 129.106 214.465 129.988 215.026L142.338 222.163C143.782 223.046 144.904 224.81 144.904 226.334C144.904 227.376 144.423 228.178 143.621 228.499C143.301 228.659 143.06 228.659 142.739 228.659ZM142.338 226.173C142.418 226.173 142.499 226.253 142.499 226.253C142.418 225.612 141.857 224.65 141.135 224.249L128.785 217.111C128.705 217.111 128.625 217.031 128.625 217.031C128.705 217.672 129.266 218.555 129.988 219.036L142.338 226.173Z" fill="#0F0F0F"/>
<path d="M170.647 244.858C170.166 244.858 169.604 244.698 169.043 244.377L149.074 232.829C147.631 231.947 146.508 230.182 146.508 228.659C146.508 227.616 146.989 226.814 147.791 226.493C148.513 226.172 149.395 226.253 150.277 226.814L170.246 238.362C171.689 239.244 172.812 241.009 172.812 242.533C172.812 243.575 172.331 244.377 171.449 244.698C171.288 244.778 170.968 244.858 170.647 244.858ZM148.914 228.739C148.994 229.38 149.555 230.262 150.277 230.744L170.246 242.292C170.326 242.292 170.406 242.372 170.406 242.372C170.326 241.73 169.765 240.848 169.043 240.367L149.074 228.819C148.994 228.819 148.914 228.739 148.914 228.739Z" fill="#0F0F0F"/>
<path d="M149.716 246.543C149.235 246.543 148.674 246.383 148.112 246.062L128.785 234.915C127.341 234.033 126.219 232.268 126.219 230.744C126.219 229.702 126.7 228.9 127.502 228.579C128.224 228.258 129.106 228.339 129.988 228.9L149.315 240.047C150.759 240.929 151.882 242.694 151.882 244.217C151.882 245.26 151.4 246.062 150.598 246.383C150.278 246.463 150.037 246.543 149.716 246.543ZM149.315 243.977C149.395 243.977 149.476 244.057 149.476 244.057C149.395 243.416 148.834 242.453 148.112 242.052L128.785 230.905C128.705 230.905 128.625 230.825 128.625 230.825C128.705 231.466 129.266 232.348 129.988 232.83L149.315 243.977Z" fill="#0F0F0F"/>
<path d="M168.64 257.449C168.158 257.449 167.597 257.289 167.036 256.968L155.969 250.552C154.525 249.67 153.402 247.906 153.402 246.382C153.402 245.34 153.884 244.538 154.685 244.217C155.407 243.896 156.289 243.976 157.172 244.538L168.239 250.953C169.682 251.836 170.805 253.6 170.805 255.124C170.805 256.166 170.324 256.968 169.442 257.289C169.281 257.449 168.96 257.449 168.64 257.449ZM168.239 254.963C168.319 254.963 168.399 255.043 168.399 255.043C168.319 254.402 167.757 253.52 167.036 253.038L155.969 246.623C155.888 246.623 155.808 246.543 155.808 246.543C155.888 247.184 156.45 248.066 157.172 248.548L168.239 254.963Z" fill="#0F0F0F"/>
<path d="M105.214 259.814C104.974 259.814 104.813 259.734 104.653 259.654L75.3009 242.732C72.6545 241.209 71.2109 239.123 71.2109 236.878C71.2109 234.632 72.6545 232.547 75.3009 231.024L94.0669 220.197C95.9114 219.155 96.9539 217.791 96.9539 216.428C96.9539 215.065 95.9114 213.701 94.0669 212.659L76.1029 202.313C75.5415 201.993 75.3009 201.271 75.7019 200.709C76.0227 200.148 76.7445 199.908 77.3058 200.308L95.2698 210.654C97.9163 212.177 99.3598 214.263 99.3598 216.508C99.3598 218.754 97.9163 220.839 95.2698 222.362L76.5039 233.189C74.6594 234.231 73.6168 235.595 73.6168 236.958C73.6168 238.321 74.6594 239.685 76.5039 240.727L105.775 257.649C106.337 257.97 106.577 258.691 106.176 259.253C106.016 259.573 105.615 259.814 105.214 259.814Z" fill="#0F0F0F"/>
<path d="M105.219 259.814H94.3123C93.6707 259.814 93.1094 259.253 93.1094 258.612C93.1094 257.97 93.6707 257.409 94.3123 257.409H104.016V252.356C104.016 251.715 104.577 251.153 105.219 251.153C105.861 251.153 106.422 251.715 106.422 252.356V258.612C106.422 259.253 105.861 259.814 105.219 259.814Z" fill="#0F0F0F"/>
<path d="M73.0563 203.357C71.5326 203.357 70.0089 203.036 68.8059 202.314C67.4426 201.512 66.6406 200.389 66.6406 199.106C66.6406 197.903 67.4426 196.7 68.8059 195.898C71.2118 194.535 74.981 194.535 77.3869 195.898C78.7502 196.7 79.5522 197.823 79.5522 199.106C79.5522 200.309 78.7502 201.512 77.3869 202.314C76.1038 202.956 74.58 203.357 73.0563 203.357ZM69.9287 198.064C69.3673 198.385 68.9663 198.786 68.9663 199.187C68.9663 199.507 69.2871 199.908 69.9287 200.309C71.6128 201.272 74.4197 201.272 76.1038 200.309C76.6651 199.988 77.0661 199.587 77.0661 199.187C77.0661 198.866 76.7453 198.465 76.1038 198.064C74.4999 197.101 71.6128 197.101 69.9287 198.064Z" fill="#0F0F0F"/>
<path d="M424.721 274.75C421.513 274.75 418.305 274.029 415.819 272.585L397.053 261.759C392.803 259.272 385.826 259.272 381.575 261.759L363.611 272.104C363.05 272.425 362.328 272.264 362.007 271.703C361.686 271.141 361.847 270.42 362.408 270.099L380.372 259.754C385.344 256.867 393.204 256.867 398.256 259.754L417.022 270.58C421.272 273.066 428.249 273.066 432.5 270.58L461.771 253.659C462.333 253.338 463.054 253.498 463.375 254.06C463.696 254.621 463.536 255.343 462.974 255.664L433.703 272.585C431.217 274.029 427.929 274.75 424.721 274.75Z" fill="#0F0F0F"/>
<path d="M462.332 262.08C461.691 262.08 461.129 261.519 461.129 260.877V255.825H451.426C450.784 255.825 450.223 255.263 450.223 254.622C450.223 253.98 450.784 253.419 451.426 253.419H462.332C462.974 253.419 463.535 253.98 463.535 254.622V260.877C463.535 261.519 463.054 262.08 462.332 262.08Z" fill="#0F0F0F"/>
<path d="M359.357 277.398C357.833 277.398 356.31 277.077 355.107 276.355C353.743 275.553 352.941 274.43 352.941 273.147C352.941 271.944 353.743 270.741 355.107 269.939C357.513 268.576 361.282 268.576 363.688 269.939C365.051 270.741 365.853 271.864 365.853 273.147C365.853 274.35 365.051 275.553 363.688 276.355C362.405 277.077 360.881 277.398 359.357 277.398ZM359.357 271.383C358.234 271.383 357.112 271.624 356.31 272.105C355.748 272.426 355.347 272.827 355.347 273.228C355.347 273.628 355.668 273.949 356.31 274.35C357.994 275.313 360.801 275.313 362.485 274.35C363.046 274.03 363.447 273.628 363.447 273.228C363.447 272.827 363.126 272.506 362.485 272.105C361.603 271.624 360.48 271.383 359.357 271.383Z" fill="#0F0F0F"/>
</g>
<defs>
<clipPath id="clip0_658_213864">
<rect width="545" height="322" fill="white" transform="translate(0.636719)"/>
</clipPath>
</defs>
</svg>
