<svg width="21" height="21" viewBox="0 0 21 21" fill="none" xmlns="http://www.w3.org/2000/svg">
<path d="M0 0H20.6998V20.2685H0V0Z" fill="url(#paint0_linear_408_44991)"/>
<path d="M7.55118 10.3184H9.38597L8.4686 6.76051L7.55118 10.3184ZM1.56604 1.58704V18.6914H19.16V1.58704H1.56604ZM10.3929 14.2193L9.72162 11.9071H7.23786L6.56656 14.2193H4.86597L7.26024 6.0445V5.14946H9.54263L12.2725 14.2193H10.3929V14.2193ZM14.913 14.2193H13.0782V7.31999H14.913V14.2193ZM14.0067 6.49206C13.4815 6.49206 13.0556 6.07128 13.0556 5.55227C13.0556 5.03322 13.4814 4.61244 14.0067 4.61244C14.532 4.61244 14.9577 5.03322 14.9577 5.55227C14.9577 6.07128 14.532 6.49206 14.0067 6.49206Z" fill="url(#paint1_linear_408_44991)"/>
<defs>
<linearGradient id="paint0_linear_408_44991" x1="20.592" y1="-0.107853" x2="0.305521" y2="20.1786" gradientUnits="userSpaceOnUse">
<stop stop-color="#FFAA2A"/>
<stop offset="1" stop-color="#FFC06C"/>
</linearGradient>
<linearGradient id="paint1_linear_408_44991" x1="10.363" y1="1.55831" x2="10.363" y2="18.6051" gradientUnits="userSpaceOnUse">
<stop stop-color="#251200"/>
<stop offset="1"/>
</linearGradient>
</defs>
</svg>
