<svg width="21" height="17" viewBox="0 0 21 17" fill="none" xmlns="http://www.w3.org/2000/svg">
<path fill-rule="evenodd" clip-rule="evenodd" d="M4.29941 0C3.11831 0 2.24435 1.03378 2.28349 2.15488C2.32104 3.23196 2.27225 4.62693 1.92108 5.76453C1.56866 6.90532 0.973052 7.62823 0 7.72102V8.76862C0.973052 8.86161 1.56866 9.58416 1.92104 10.7251C2.27225 11.8627 2.321 13.2577 2.28344 14.3348C2.24431 15.4557 3.11827 16.4896 4.29957 16.4896H16.402C17.5831 16.4896 18.4568 15.4559 18.4177 14.3348C18.3802 13.2577 18.429 11.8627 18.7801 10.7251C19.1325 9.58416 19.7267 8.86133 20.6998 8.76862V7.72102C19.7267 7.62803 19.1326 6.90548 18.7801 5.76453C18.4289 4.62709 18.3802 3.23196 18.4177 2.15488C18.4568 1.03394 17.5831 0 16.402 0H4.29925H4.29941ZM14.0338 10.1505C14.0338 11.6942 12.8823 12.6304 10.9714 12.6304H7.71855C7.6255 12.6304 7.53626 12.5934 7.47047 12.5276C7.40467 12.4618 7.36771 12.3726 7.36771 12.2795V4.21014C7.36771 4.11709 7.40467 4.02785 7.47047 3.96206C7.53626 3.89626 7.6255 3.8593 7.71855 3.8593H10.9529C12.5463 3.8593 13.592 4.72238 13.592 6.04749C13.592 6.97757 12.8885 7.81021 11.9923 7.95608V8.00459C13.2123 8.13841 14.0338 8.98338 14.0338 10.1505V10.1505ZM10.6167 4.97147H8.76199V7.59128H10.3241C11.5318 7.59128 12.1976 7.105 12.1976 6.23581C12.1975 5.42124 11.625 4.97147 10.6167 4.97147ZM8.76199 8.63076V11.5179H10.685C11.9423 11.5179 12.6083 11.0133 12.6083 10.0652C12.6083 9.11704 11.9236 8.6306 10.6041 8.6306H8.76199V8.63076Z" fill="#7952B3"/>
</svg>
