<svg width="19" height="21" viewBox="0 0 19 21" fill="none" xmlns="http://www.w3.org/2000/svg">
<path d="M18.252 0L16.5892 18.6276L9.11484 20.6998L1.66104 18.6306L0 0H18.252Z" fill="#264DE4"/>
<path d="M15.1656 17.4415L16.5866 1.52335H9.12598V19.116L15.1656 17.4415Z" fill="#2965F1"/>
<path d="M3.80798 8.43314L4.01278 10.7181H9.12608V8.43314H3.80798Z" fill="#EBEBEB"/>
<path d="M9.12609 3.80829H9.11819H3.39648L3.6042 6.09328H9.12609V3.80829Z" fill="#EBEBEB"/>
<path d="M9.12608 16.7447V14.3674L9.11607 14.37L6.57129 13.6829L6.40861 11.8605H5.17205H4.11487L4.43499 15.4483L9.11556 16.7476L9.12608 16.7447Z" fill="#EBEBEB"/>
<path d="M11.9318 10.718L11.6666 13.6815L9.11816 14.3693V16.7465L13.8025 15.4483L13.8368 15.0622L14.3738 9.04669L14.4295 8.43311L14.842 3.80829H9.11816V6.09328H12.3379L12.13 8.43311H9.11816V10.718H11.9318Z" fill="white"/>
</svg>
