<svg width="21" height="21" viewBox="0 0 21 21" fill="none" xmlns="http://www.w3.org/2000/svg">
<path d="M6.89992 20.6998C8.8043 20.6998 10.3499 19.1542 10.3499 17.2498V13.7999H6.89992C4.99554 13.7999 3.44995 15.3454 3.44995 17.2498C3.44995 19.1542 4.99554 20.6998 6.89992 20.6998Z" fill="#0ACF83"/>
<path d="M3.44995 10.3499C3.44995 8.44548 4.99554 6.8999 6.89992 6.8999H10.3499V13.7998H6.89992C4.99554 13.7998 3.44995 12.2542 3.44995 10.3499Z" fill="#A259FF"/>
<path d="M3.44995 3.44996C3.44995 1.54558 4.99554 0 6.89992 0H10.3499V6.89993H6.89992C4.99554 6.89993 3.44995 5.35434 3.44995 3.44996Z" fill="#F24E1E"/>
<path d="M10.3499 0H13.7998C15.7042 0 17.2498 1.54558 17.2498 3.44996C17.2498 5.35434 15.7042 6.89993 13.7998 6.89993H10.3499V0Z" fill="#FF7262"/>
<path d="M17.2498 10.3499C17.2498 12.2542 15.7042 13.7998 13.7998 13.7998C11.8954 13.7998 10.3499 12.2542 10.3499 10.3499C10.3499 8.44548 11.8954 6.8999 13.7998 6.8999C15.7042 6.8999 17.2498 8.44548 17.2498 10.3499Z" fill="#1ABCFE"/>
</svg>
