<svg width="21" height="21" viewBox="0 0 21 21" fill="none" xmlns="http://www.w3.org/2000/svg">
<path d="M20.3094 9.4276L11.2717 0.390365C10.7515 -0.130122 9.90735 -0.130122 9.38654 0.390365L7.50982 2.26709L9.89054 4.64781C10.4438 4.46086 11.0782 4.58628 11.5192 5.02728C11.9623 5.47111 12.0868 6.11095 11.8953 6.66596L14.1897 8.9604C14.7448 8.76917 15.3853 8.89288 15.8286 9.33696C16.4482 9.95633 16.4482 10.9602 15.8286 11.58C15.2088 12.1998 14.205 12.1998 13.5849 11.58C13.1188 11.1134 13.0037 10.429 13.2396 9.85478L11.0999 7.7151L11.0997 13.3458C11.2548 13.4225 11.3965 13.5238 11.5192 13.6458C12.1388 14.2652 12.1388 15.2691 11.5192 15.8894C10.8994 16.509 9.89506 16.509 9.27617 15.8894C8.65655 15.2691 8.65655 14.2653 9.27617 13.6459C9.42466 13.4973 9.60113 13.3797 9.79536 13.2998V7.61653C9.60084 7.53712 9.42428 7.4194 9.27617 7.27038C8.80671 6.80156 8.69383 6.11272 8.93438 5.53628L6.58755 3.1892L0.390547 9.3858C-0.130182 9.90677 -0.130182 10.751 0.390547 11.2716L9.42843 20.309C9.94875 20.8295 10.7928 20.8295 11.3137 20.309L20.3093 11.3135C20.8299 10.7928 20.8299 9.94809 20.3093 9.4276" fill="#DE4C36"/>
</svg>
