<svg width="21" height="21" viewBox="0 0 21 21" fill="none" xmlns="http://www.w3.org/2000/svg">
<path d="M10.3499 0C4.63456 0 0 4.63375 0 10.3499C0 14.9229 2.96557 18.8025 7.07794 20.171C7.59517 20.2668 7.78512 19.9465 7.78512 19.6731C7.78512 19.4263 7.77546 18.611 7.77108 17.7462C4.89163 18.3722 4.28406 16.525 4.28406 16.525C3.81325 15.3287 3.13489 15.0106 3.13489 15.0106C2.19589 14.3682 3.20568 14.3814 3.20568 14.3814C4.24501 14.4544 4.79228 15.448 4.79228 15.448C5.71537 17.0303 7.2135 16.5728 7.80411 16.3084C7.89697 15.6394 8.16525 15.1829 8.46121 14.9244C6.16239 14.6626 3.74572 13.7752 3.74572 9.8094C3.74572 8.67948 4.15004 7.75614 4.81217 7.03135C4.70469 6.77062 4.35045 5.71797 4.91241 4.29233C4.91241 4.29233 5.78153 4.01416 7.75939 5.35326C8.58491 5.12387 9.47035 5.00893 10.3499 5.00503C11.2295 5.00893 12.1156 5.12387 12.9428 5.35326C14.9183 4.01416 15.7862 4.29233 15.7862 4.29233C16.3495 5.71797 15.9951 6.77062 15.8876 7.03135C16.5512 7.75614 16.9528 8.6794 16.9528 9.8094C16.9528 13.7846 14.5316 14.66 12.2269 14.9161C12.5981 15.2373 12.9289 15.8672 12.9289 16.8328C12.9289 18.2176 12.9169 19.3322 12.9169 19.6731C12.9169 19.9485 13.1032 20.2713 13.6279 20.1696C17.738 18.7995 20.6998 14.9213 20.6998 10.3499C20.6998 4.63375 16.0659 0 10.3499 0Z" fill="#161614"/>
<path d="M3.87633 14.7437C3.8536 14.7951 3.77259 14.8105 3.69897 14.7753C3.62388 14.7416 3.58167 14.6714 3.60603 14.6198C3.62835 14.5669 3.70936 14.5521 3.78428 14.5876C3.85953 14.6213 3.90239 14.6921 3.87633 14.7437V14.7437ZM4.38545 15.198C4.33609 15.2438 4.23958 15.2225 4.17407 15.1502C4.10637 15.078 4.09371 14.9816 4.1438 14.9351C4.19469 14.8894 4.28828 14.9107 4.35614 14.983C4.42384 15.0559 4.43699 15.1518 4.38537 15.1981L4.38545 15.198ZM4.73473 15.7792C4.67126 15.8233 4.56752 15.7819 4.50347 15.6899C4.44008 15.5979 4.44008 15.4875 4.50485 15.4433C4.56914 15.3991 4.67126 15.4388 4.7362 15.5301C4.79951 15.6237 4.79951 15.7341 4.73465 15.7793L4.73473 15.7792ZM5.32535 16.4524C5.26861 16.5149 5.14782 16.4981 5.05934 16.4127C4.96892 16.3293 4.94367 16.2109 5.00058 16.1483C5.05796 16.0856 5.17948 16.1032 5.26861 16.1879C5.35847 16.2712 5.3859 16.3905 5.32543 16.4524H5.32535ZM6.0887 16.6796C6.06378 16.7606 5.94738 16.7975 5.83016 16.7631C5.71311 16.7276 5.63648 16.6326 5.66011 16.5507C5.68446 16.4692 5.80135 16.4308 5.91945 16.4676C6.03634 16.5029 6.11313 16.5972 6.08878 16.6796H6.0887ZM6.95757 16.776C6.9605 16.8614 6.86106 16.9322 6.738 16.9337C6.61421 16.9364 6.51413 16.8673 6.51283 16.7834C6.51283 16.6972 6.60999 16.627 6.7337 16.625C6.85676 16.6226 6.95757 16.6912 6.95757 16.776V16.776ZM7.81102 16.7433C7.8258 16.8266 7.74024 16.9121 7.61808 16.9348C7.49794 16.9568 7.38673 16.9054 7.37139 16.8228C7.35646 16.7374 7.44364 16.652 7.56353 16.6298C7.68594 16.6085 7.79544 16.6586 7.81102 16.7433" fill="#161614"/>
</svg>
