<svg width="16" height="21" viewBox="0 0 16 21" fill="none" xmlns="http://www.w3.org/2000/svg">
<path d="M4.91675 16.0083C4.91675 16.0083 4.12575 16.4683 5.4797 16.624C7.12001 16.8111 7.9583 16.7843 9.76595 16.4421C9.76595 16.4421 10.2412 16.7401 10.9049 16.9982C6.85271 18.7349 1.73393 16.8976 4.91675 16.0083V16.0083ZM4.42158 13.742C4.42158 13.742 3.53439 14.3988 4.88936 14.5389C6.64157 14.7197 8.02531 14.7345 10.4198 14.2734C10.4198 14.2734 10.751 14.6091 11.2717 14.7928C6.37235 16.2254 0.915361 14.9058 4.42158 13.742" fill="#5382A1"/>
<path d="M8.59598 9.89768C9.59447 11.0472 8.33366 12.0816 8.33366 12.0816C8.33366 12.0816 10.8689 10.7729 9.70456 9.13395C8.61714 7.60565 7.78317 6.84618 12.2977 4.22794C12.2977 4.22794 5.21138 5.99777 8.59598 9.89762" fill="#E76F00"/>
<path d="M13.9553 17.6847C13.9553 17.6847 14.5406 18.1669 13.3106 18.5401C10.9716 19.2487 3.57551 19.4626 1.52088 18.5683C0.78232 18.2471 2.16738 17.8012 2.60303 17.7075C3.05738 17.609 3.31708 17.6274 3.31708 17.6274C2.49569 17.0488 -1.99199 18.7636 1.03758 19.2546C9.29955 20.5945 16.0983 18.6513 13.9553 17.6847ZM5.29709 11.3939C5.29709 11.3939 1.53502 12.2875 3.96489 12.6119C4.99083 12.7493 7.03605 12.7183 8.94115 12.5586C10.4981 12.4274 12.0614 12.1481 12.0614 12.1481C12.0614 12.1481 11.5125 12.3832 11.1153 12.6544C7.2949 13.6592 -0.0853927 13.1917 2.0393 12.1639C3.83616 11.2954 5.29715 11.3939 5.29715 11.3939H5.29709ZM12.0459 15.1662C15.9296 13.1482 14.1339 11.2088 12.8806 11.4702C12.5734 11.534 12.4365 11.5894 12.4365 11.5894C12.4365 11.5894 12.5505 11.4108 12.7683 11.3335C15.2477 10.4618 17.1546 13.9045 11.9679 15.268C11.9679 15.268 12.028 15.2143 12.0459 15.1662" fill="#5382A1"/>
<path d="M9.7045 5.99324e-05C9.7045 5.99324e-05 11.8553 2.15166 7.66455 5.46003C4.30404 8.114 6.89825 9.62719 7.66318 11.3561C5.70156 9.58625 4.26196 8.02823 5.22779 6.57821C6.64527 4.44956 10.5723 3.41757 9.7045 0" fill="#E76F00"/>
<path d="M5.67868 20.6347C9.40647 20.8734 15.1309 20.5023 15.2664 18.7384C15.2664 18.7384 15.0059 19.4072 12.1856 19.9382C9.0039 20.5369 5.07971 20.467 2.7522 20.0833C2.75226 20.0833 3.22867 20.4776 5.67874 20.6347" fill="#5382A1"/>
</svg>
