<svg width="21" height="21" viewBox="0 0 21 21" fill="none" xmlns="http://www.w3.org/2000/svg">
<path d="M20.6998 0H0V20.6998H20.6998V0Z" fill="#F7DF1E"/>
<path d="M13.9049 16.1718C14.3219 16.8526 14.8643 17.353 15.8237 17.353C16.6297 17.353 17.1446 16.9502 17.1446 16.3936C17.1446 15.7266 16.6156 15.4903 15.7285 15.1023L15.2422 14.8937C13.8385 14.2957 12.9061 13.5465 12.9061 11.9628C12.9061 10.504 14.0176 9.39343 15.7547 9.39343C16.9915 9.39343 17.8806 9.82386 18.5213 10.9508L17.0066 11.9234C16.6731 11.3254 16.3133 11.0898 15.7547 11.0898C15.185 11.0898 14.8239 11.4513 14.8239 11.9234C14.8239 12.5069 15.1853 12.7432 16.0199 13.1046L16.5062 13.3129C18.1589 14.0216 19.092 14.7442 19.092 16.3686C19.092 18.1199 17.7163 19.0793 15.8688 19.0793C14.0623 19.0793 12.8952 18.2184 12.3242 17.0901L13.9049 16.1718ZM7.03356 16.3403C7.33913 16.8825 7.6171 17.3408 8.28541 17.3408C8.92447 17.3408 9.32763 17.0908 9.32763 16.1186V9.50449H11.2727V16.1448C11.2727 18.159 10.0919 19.0757 8.36821 19.0757C6.8108 19.0757 5.90888 18.2697 5.4502 17.2989L7.03356 16.3403Z" fill="black"/>
</svg>
