<svg width="21" height="21" viewBox="0 0 21 21" fill="none" xmlns="http://www.w3.org/2000/svg">
<path d="M0 0H20.6998V20.3548H0V0Z" fill="url(#paint0_linear_408_44985)"/>
<path d="M1.64624 1.61871H19.0536V18.7362H1.64624V1.61871Z" fill="url(#paint1_linear_408_44985)"/>
<path d="M5.00227 5.73688C5.00227 5.73688 6.31104 5.70245 7.3884 5.70245C8.47707 5.70245 9.25331 5.95858 9.77446 6.40866C10.2726 6.83397 10.6085 7.55902 10.6085 8.38439C10.6085 9.20976 10.3536 9.88512 9.89018 10.36C9.28788 10.9728 8.58602 11.3355 7.3884 11.3856C7.05755 11.3995 6.75133 11.4028 6.75133 11.4028V14.0858H5.0022L5.00227 5.73688V5.73688ZM6.75126 9.91638C6.94128 9.93487 7.06038 9.92597 7.34203 9.92259C8.28028 9.91134 8.85926 9.34079 8.85926 8.47795C8.85926 7.70281 8.38185 7.06636 7.48113 7.03338C7.12213 7.02027 6.75126 7.03338 6.75126 7.03338V9.91638V9.91638Z" fill="url(#paint2_linear_408_44985)"/>
<path d="M11.276 12.2167C11.6285 12.433 12.4604 12.757 13.0274 12.757C13.6067 12.757 13.846 12.5528 13.846 12.2345C13.846 11.9158 13.657 11.581 12.939 11.339C11.6667 10.9057 11.1753 10.3871 11.1881 9.66125C11.1881 8.48888 12.1705 7.60983 13.6947 7.60983C14.4127 7.60983 14.9863 7.84457 15.3639 8.03556V9.44259C15.0865 9.28955 14.2867 8.94787 13.7578 8.94787C13.2914 8.94787 13.0271 9.13899 13.0271 9.45722C13.0271 9.75033 13.2666 9.90323 14.0223 10.1709C15.1936 10.5786 15.6849 11.1772 15.6973 12.0946C15.6973 13.2541 14.8035 14.1762 13.0271 14.1202C12.4174 14.101 11.742 13.86 11.2759 13.6055L11.276 12.2167V12.2167Z" fill="url(#paint3_linear_408_44985)"/>
<defs>
<linearGradient id="paint0_linear_408_44985" x1="5.03039" y1="-1.063" x2="12.9653" y2="15.7039" gradientUnits="userSpaceOnUse">
<stop stop-color="#A0CBFF"/>
<stop offset="0.394" stop-color="#A0CBFE"/>
<stop offset="0.583" stop-color="#8EC2FC"/>
<stop offset="0.784" stop-color="#83BCFB"/>
<stop offset="1" stop-color="#7FBAFB"/>
</linearGradient>
<linearGradient id="paint1_linear_408_44985" x1="7.84693" y1="1.85994" x2="12.3319" y2="16.7639" gradientUnits="userSpaceOnUse">
<stop stop-color="#090058"/>
<stop offset="1" stop-color="#070033"/>
</linearGradient>
<linearGradient id="paint2_linear_408_44985" x1="2.56238" y1="-0.170835" x2="10.4972" y2="16.5959" gradientUnits="userSpaceOnUse">
<stop stop-color="#A0CBFF"/>
<stop offset="0.394" stop-color="#A0CBFE"/>
<stop offset="0.583" stop-color="#8EC2FC"/>
<stop offset="0.784" stop-color="#83BCFB"/>
<stop offset="1" stop-color="#7FBAFB"/>
</linearGradient>
<linearGradient id="paint3_linear_408_44985" x1="7.08217" y1="-2.36008" x2="15.0485" y2="14.4731" gradientUnits="userSpaceOnUse">
<stop stop-color="#A0CBFF"/>
<stop offset="0.394" stop-color="#A0CBFE"/>
<stop offset="0.583" stop-color="#8EC2FC"/>
<stop offset="0.784" stop-color="#83BCFB"/>
<stop offset="1" stop-color="#7FBAFB"/>
</linearGradient>
</defs>
</svg>
