<svg width="22" height="21" viewBox="0 0 22 21" fill="none" xmlns="http://www.w3.org/2000/svg">
<path d="M10.7922 12.1748C11.8001 12.1748 12.6172 11.3578 12.6172 10.3499C12.6172 9.34202 11.8001 8.52496 10.7922 8.52496C9.78434 8.52496 8.96729 9.34202 8.96729 10.3499C8.96729 11.3578 9.78434 12.1748 10.7922 12.1748Z" fill="#61DAFB"/>
<path d="M10.7924 14.0888C16.2005 14.0888 20.5847 12.4148 20.5847 10.3499C20.5847 8.28496 16.2005 6.61099 10.7924 6.61099C5.38419 6.61099 1 8.28496 1 10.3499C1 12.4148 5.38419 14.0888 10.7924 14.0888Z" stroke="#61DAFB" stroke-width="1.03499"/>
<path d="M7.55425 12.2193C10.2583 16.903 13.9001 19.8628 15.6884 18.8303C17.4767 17.7979 16.7343 13.1641 14.0302 8.48044C11.3261 3.79682 7.68434 0.836982 5.89605 1.86945C4.10776 2.90192 4.85016 7.53573 7.55425 12.2193Z" stroke="#61DAFB" stroke-width="1.03499"/>
<path d="M7.55436 8.48046C4.85027 13.1641 4.10787 17.7979 5.89616 18.8304C7.68445 19.8628 11.3262 16.903 14.0303 12.2194C16.7344 7.53574 17.4768 2.90194 15.6885 1.86947C13.9002 0.837 10.2584 3.79684 7.55436 8.48046Z" stroke="#61DAFB" stroke-width="1.03499"/>
</svg>
