<svg width="21" height="16" viewBox="0 0 21 16" fill="none" xmlns="http://www.w3.org/2000/svg">
<path d="M17.8241 8.92391C17.102 8.92769 16.4744 9.10161 15.9488 9.35871C15.756 8.97684 15.5632 8.63656 15.5291 8.38702C15.4913 8.0959 15.4459 7.91819 15.4913 7.57035C15.5367 7.22251 15.7409 6.72721 15.7371 6.6894C15.7333 6.65159 15.6917 6.47389 15.2758 6.47011C14.8599 6.46633 14.5007 6.54951 14.4591 6.65915C14.4175 6.7688 14.3381 7.01834 14.2852 7.27544C14.2134 7.65353 13.4534 9.00331 13.0186 9.71034C12.8787 9.43433 12.7577 9.19236 12.7313 8.99953C12.6935 8.7084 12.6481 8.5307 12.6935 8.18286C12.7388 7.83501 12.943 7.33972 12.9392 7.30191C12.9354 7.2641 12.8938 7.0864 12.4779 7.08262C12.062 7.07883 11.7029 7.16201 11.6613 7.27166C11.6197 7.38131 11.5743 7.63841 11.4874 7.88795C11.4004 8.13749 10.3909 10.3909 10.1262 10.9732C9.99012 11.2718 9.87291 11.51 9.78973 11.6726C9.78973 11.6726 9.78595 11.684 9.77461 11.7029C9.70277 11.8428 9.66118 11.9184 9.66118 11.9184C9.66118 11.9184 9.66118 11.9184 9.66118 11.9222C9.60447 12.0242 9.54397 12.1188 9.51372 12.1188C9.49104 12.1188 9.44945 11.8465 9.52129 11.476C9.67252 10.6934 10.0317 9.47592 10.0279 9.43433C10.0279 9.41165 10.096 9.19992 9.79351 9.09027C9.4986 8.98062 9.39274 9.16211 9.36627 9.16211C9.3398 9.16211 9.3209 9.22638 9.3209 9.22638C9.3209 9.22638 9.64984 7.8577 8.69327 7.8577C8.09589 7.8577 7.27165 8.51179 6.86332 9.10161C6.60622 9.24151 6.05799 9.5402 5.47195 9.86157C5.24887 9.98634 5.01824 10.1111 4.80273 10.2283C4.78761 10.2132 4.77248 10.1943 4.75736 10.1792C3.6004 8.94282 1.46042 8.06943 1.55116 6.40962C1.58519 5.80467 1.79314 4.2167 5.66099 2.28844C8.84451 0.719367 11.3777 1.15417 11.8163 2.1183C12.4439 3.49455 10.4589 6.05043 7.16957 6.42096C5.91431 6.56085 5.25644 6.0769 5.09008 5.89541C4.91616 5.70637 4.88969 5.69503 4.82541 5.73284C4.71955 5.78955 4.78761 5.95969 4.82541 6.05799C4.92372 6.31509 5.32827 6.7688 6.01262 6.99187C6.61756 7.18848 8.08833 7.29813 9.86913 6.61C11.8617 5.8387 13.4194 3.69493 12.9619 1.89901C12.5044 0.076615 9.4797 -0.524547 6.61756 0.492514C4.91616 1.09746 3.07108 2.05024 1.74398 3.29038C0.16735 4.76493 -0.0821884 6.04665 0.0198958 6.58354C0.386643 8.48911 3.01437 9.72924 4.06545 10.648C4.01252 10.6782 3.96337 10.7047 3.92178 10.7274C3.39624 10.9883 1.39236 12.0356 0.893283 13.1434C0.326148 14.3986 0.984024 15.2985 1.41883 15.4195C2.76861 15.7938 4.1562 15.1208 4.90103 14.0092C5.64587 12.8976 5.55513 11.4533 5.21107 10.7917C5.20728 10.7841 5.2035 10.7765 5.19594 10.769C5.33205 10.6896 5.47195 10.6064 5.60806 10.527C5.8765 10.3682 6.14117 10.2208 6.36802 10.0998C6.23947 10.4514 6.14495 10.8711 6.09958 11.476C6.04286 12.1868 6.33399 13.1094 6.71586 13.4723C6.886 13.6311 7.08639 13.6349 7.21494 13.6349C7.66109 13.6349 7.86147 13.2644 8.08455 12.8258C8.35677 12.2889 8.60253 11.6651 8.60253 11.6651C8.60253 11.6651 8.29628 13.3513 9.12807 13.3513C9.43054 13.3513 9.7368 12.9581 9.87291 12.7577C9.87291 12.7615 9.87291 12.7615 9.87291 12.7615C9.87291 12.7615 9.88047 12.7502 9.8956 12.7237C9.92584 12.6746 9.94475 12.6443 9.94475 12.6443C9.94475 12.6443 9.94475 12.6405 9.94475 12.6368C10.0657 12.425 10.338 11.9448 10.7425 11.1471C11.2643 10.1187 11.7671 8.83317 11.7671 8.83317C11.7671 8.83317 11.8125 9.14698 11.9675 9.66875C12.0583 9.975 12.2473 10.3115 12.3985 10.6367C12.2776 10.8068 12.2019 10.9013 12.2019 10.9013C12.2019 10.9013 12.2019 10.9013 12.2057 10.9051C12.1074 11.0337 12.0016 11.1735 11.8843 11.3097C11.4722 11.8012 10.9807 12.3645 10.9127 12.5271C10.8333 12.7199 10.8522 12.8598 11.0034 12.9733C11.113 13.0564 11.3096 13.0678 11.51 13.0564C11.8806 13.03 12.1414 12.9392 12.27 12.8825C12.4704 12.8107 12.7048 12.701 12.9241 12.5384C13.3286 12.2398 13.5744 11.8125 13.5517 11.2492C13.5404 10.9391 13.4383 10.6291 13.3135 10.338C13.3513 10.285 13.3854 10.2321 13.4232 10.1792C14.0621 9.24529 14.5574 8.22067 14.5574 8.22067C14.5574 8.22067 14.6028 8.53448 14.7578 9.05624C14.8334 9.32091 14.9885 9.60825 15.1246 9.88804C14.5234 10.3758 14.1529 10.9429 14.0206 11.3134C13.7824 12.0016 13.9676 12.3116 14.3192 12.3834C14.478 12.4175 14.7049 12.3418 14.8713 12.27C15.083 12.2019 15.3325 12.0847 15.5707 11.9108C15.9753 11.6121 16.3647 11.1962 16.342 10.6329C16.3307 10.3758 16.2626 10.1225 16.1681 9.8767C16.6785 9.66497 17.3364 9.54776 18.1758 9.64606C19.9755 9.85779 20.3309 10.9807 20.2628 11.4533C20.1948 11.9259 19.8167 12.183 19.6919 12.2624C19.5671 12.3418 19.5255 12.3683 19.5369 12.425C19.552 12.5082 19.6125 12.5044 19.7184 12.4893C19.8658 12.4628 20.6636 12.1074 20.6976 11.2378C20.7543 10.1262 19.6957 8.91257 17.8241 8.92391ZM3.94068 13.6047C3.3433 14.255 2.51151 14.5007 2.15232 14.2928C1.76667 14.0697 1.91791 13.1094 2.6514 12.4212C3.09754 12.0016 3.67224 11.6121 4.05411 11.3739C4.14107 11.321 4.26962 11.2454 4.42464 11.1509C4.45111 11.1357 4.46623 11.1282 4.46623 11.1282C4.49648 11.1093 4.52672 11.0904 4.55697 11.0715C4.82541 12.0545 4.56831 12.9203 3.94068 13.6047ZM8.28871 10.648C8.08077 11.1546 7.64596 12.4515 7.3813 12.3796C7.15445 12.3192 7.01455 11.3361 7.33593 10.3644C7.49851 9.8767 7.84257 9.29444 8.04296 9.06759C8.36811 8.70462 8.7273 8.58363 8.81426 8.73109C8.9239 8.92391 8.41726 10.3304 8.28871 10.648ZM11.8768 12.3645C11.7898 12.4099 11.7066 12.4401 11.6688 12.4175C11.6424 12.4023 11.7066 12.3418 11.7066 12.3418C11.7066 12.3418 12.1566 11.8579 12.3343 11.6386C12.4364 11.51 12.5573 11.3588 12.6859 11.1887C12.6859 11.2038 12.6859 11.2227 12.6859 11.2378C12.6859 11.8163 12.1263 12.2057 11.8768 12.3645ZM14.6444 11.7331C14.5801 11.6877 14.5915 11.5365 14.807 11.0639C14.8902 10.8786 15.0868 10.5686 15.4233 10.2699C15.4611 10.3909 15.4875 10.5081 15.4838 10.6178C15.48 11.3475 14.9582 11.6197 14.6444 11.7331Z" fill="#CD6799"/>
</svg>
