<svg width="24" height="24" viewBox="0 0 24 24" fill="none" xmlns="http://www.w3.org/2000/svg">
<path d="M11.8291 1H11.8191C11.6491 1 4.28907 1.05 4.28907 9.97C4.28907 9.97 1.46907 13.16 2.08907 13.98C2.83907 14.98 4.28907 13.98 4.28907 14.98C4.28907 15.98 4.28907 18.99 6.28907 18.99C7.28907 18.99 8.03907 18.74 8.53907 18.74C9.03907 18.74 9.28907 18.99 9.28907 19.99V23H17.2891V19H15.2891V21H11.2891V19.99C11.2891 16.97 9.18907 16.74 8.53907 16.74C8.15907 16.74 7.79907 16.8 7.44907 16.86C7.14907 16.91 6.84907 16.97 6.51907 16.98C6.41907 16.74 6.28907 16.19 6.28907 14.98C6.28907 14.64 6.19907 13.18 4.69907 12.66C5.01907 12.22 5.40907 11.72 5.78907 11.29L6.28907 10.73V9.97C6.28907 3.4 10.8891 3.01 11.8191 3C15.0691 3.03 16.9191 4.21 17.9591 5.61C18.1491 5.86 18.4591 6 18.7691 6C19.5491 6 20.0291 5.12 19.5791 4.49C18.2491 2.62 15.9091 1.02 11.8291 1Z" fill="#FEA1A1"/>
<path d="M16.049 7C14.769 7 13.489 7.49 12.509 8.46C10.559 10.42 10.559 13.58 12.509 15.54C13.489 16.51 14.769 17 16.049 17C17.019 17 17.989 16.72 18.819 16.17C18.839 16.2 18.859 16.22 18.879 16.24L20.289 17.66C20.489 17.86 20.739 17.95 20.999 17.95C21.259 17.95 21.519 17.85 21.709 17.66C22.099 17.27 22.099 16.63 21.709 16.24L20.289 14.83C20.289 14.83 20.249 14.79 20.219 14.77C21.509 12.83 21.299 10.18 19.589 8.46C18.609 7.49 17.329 7 16.049 7ZM16.049 15C15.249 15 14.499 14.69 13.929 14.12C13.359 13.55 13.049 12.8 13.049 12C13.049 11.2 13.359 10.45 13.929 9.88C14.499 9.31 15.249 9 16.049 9C16.849 9 17.599 9.31 18.169 9.88C18.739 10.45 19.049 11.2 19.049 12C19.049 12.8 18.739 13.55 18.169 14.12C17.599 14.69 16.849 15 16.049 15Z" fill="#FEA1A1"/>
</svg>
