<svg width="24" height="24" viewBox="0 0 24 24" fill="none" xmlns="http://www.w3.org/2000/svg">
<path d="M16 17H10C9.4 17 9 17.4 9 18C9 18.6 9.4 19 10 19H16C16.6 19 17 18.6 17 18C17 17.4 16.6 17 16 17Z" fill="#FEA1A1"/>
<path d="M20 23H2C1.4 23 1 22.6 1 22V4C1 3.4 1.4 3 2 3H12C12.6 3 13 3.4 13 4C13 4.6 12.6 5 12 5H3V21H19V12C19 11.4 19.4 11 20 11C20.6 11 21 11.4 21 12V22C21 22.6 20.6 23 20 23Z" fill="#FEA1A1"/>
<path d="M11 9V13H7V9H11ZM12 7H6C5.4 7 5 7.5 5 8V14C5 14.6 5.4 15 6 15H12C12.6 15 13 14.6 13 14V8C13 7.5 12.6 7 12 7Z" fill="#FEA1A1"/>
<path d="M23 2C23 2.3 22.9 2.5 22.7 2.7L20.6 4.8C20.6 4.8 20.5 4.8 20.5 4.9L17 8.4L14.9 9.1L15.6 7L19 3.6C19 3.6 19 3.6 19.1 3.5L20.6 2L21.3 1.3C21.7 0.9 22.3 0.9 22.7 1.3C22.9 1.5 23 1.7 23 2Z" fill="#FEA1A1"/>
<path d="M20.6 2L19.1 3.5C19.1 3.5 19.1 3.5 19.2 3.4L20.6 2Z" fill="#FEA1A1"/>
<path d="M16 11C15.4 11 15 11.4 15 12V14C15 14.6 15.4 15 16 15C16.6 15 17 14.6 17 14V12C17 11.5 16.6 11 16 11Z" fill="#FEA1A1"/>
<path d="M6 17C5.4 17 5 17.4 5 18C5 18.6 5.4 19 6 19C6.6 19 7 18.6 7 18C7 17.4 6.6 17 6 17Z" fill="#FEA1A1"/>
</svg>
