<svg width="24" height="24" viewBox="0 0 24 24" fill="none" xmlns="http://www.w3.org/2000/svg">
<path d="M19.21 2.29C19.02 2.11 18.77 2 18.5 2C18.23 2 17.98 2.11 17.79 2.29L11.54 8.54C11.43 8.65 11.35 8.78 11.3 8.93L10.05 12.68C9.99999 12.83 9.98999 12.99 10.01 13.15C10.03 13.31 10.09 13.46 10.19 13.58C10.28 13.71 10.4 13.81 10.55 13.89C10.69 13.96 10.85 14 11.01 14C11.12 14 11.22 13.98 11.33 13.95L15.08 12.7C15.23 12.65 15.36 12.57 15.47 12.46L21.72 6.21C21.91 6.02 22.01 5.77 22.01 5.5C22.01 5.23 21.9 4.98 21.72 4.79L19.21 2.29ZM14.21 10.87L12.58 11.41L13.12 9.78L18.5 4.4L19.59 5.49L14.21 10.87Z" fill="#FEA1A1"/>
<path d="M21.13 16.99L21.71 17.57C22.1 17.96 22.1 18.6 21.71 18.99C21.32 19.38 20.68 19.38 20.29 18.99L19.71 18.41L19.13 18.99C18.74 19.38 18.1 19.38 17.71 18.99C17.32 18.6 17.32 17.96 17.71 17.57L18.29 16.99L17.71 16.41C17.32 16.02 17.32 15.38 17.71 14.99C18.1 14.6 18.74 14.6 19.13 14.99L19.71 15.57L20.29 14.99C20.68 14.6 21.32 14.6 21.71 14.99C22.1 15.38 22.1 16.02 21.71 16.41L21.13 16.99Z" fill="#FEA1A1"/>
<path d="M15.91 14.6899C16.46 14.6899 16.91 15.1399 16.91 15.6899V16.9899C16.91 18.3299 15.75 19.3999 14.38 19.2699C13.19 19.1499 12.32 18.0599 12.32 16.8599V15.6899C12.32 15.1399 12.77 14.6899 13.32 14.6899C13.87 14.6899 14.32 15.1399 14.32 15.6899V16.9899C14.32 17.1499 14.45 17.2799 14.61 17.2799C14.78 17.2799 14.91 17.1499 14.91 16.9899V15.6899C14.91 15.1399 15.36 14.6899 15.91 14.6899Z" fill="#FEA1A1"/>
<path d="M19 21C19 21.55 18.55 22 18 22H4C3.45 22 2.95 21.78 2.59 21.41C2.22 21.05 2 20.55 2 20V4C2 2.9 2.9 2 4 2H11C11.55 2 12 2.45 12 3C12 3.55 11.55 4 11 4H4V20H18C18.55 20 19 20.45 19 21Z" fill="#FEA1A1"/>
</svg>
