<svg width="24" height="24" viewBox="0 0 24 24" fill="none" xmlns="http://www.w3.org/2000/svg">
<path d="M21 3V5H3V3H21ZM22 1H2C1.4 1 1 1.4 1 2V6C1 6.6 1.4 7 2 7H22C22.6 7 23 6.6 23 6V2C23 1.4 22.6 1 22 1Z" fill="#FEA1A1"/>
<path d="M11 9H2C1.5 9 1 9.5 1 10V22C1 22.5 1.5 23 2 23H11C11.5 23 12 22.5 12 22V10C12 9.5 11.5 9 11 9ZM10 19.3L7.7 16L10 12.7V19.3ZM8.8 11L6.5 14.3L4.2 11H8.8ZM3 12.7L5.3 16L3 19.3V12.7ZM4.2 21L6.5 17.7L8.8 21H4.2Z" fill="#FEA1A1"/>
<path d="M18.5 11.6C19.6 11.6 20.4 12.5 20.4 13.5C20.4 14.5 19.5 15.4 18.5 15.4C17.5 15.4 16.6 14.5 16.6 13.5C16.6 12.5 17.4 11.6 18.5 11.6ZM18.5 9C16 9 14 11 14 13.5C14 16 16 18 18.5 18C21 18 23 16 23 13.5C23 11 21 9 18.5 9Z" fill="#FEA1A1"/>
<path d="M22 21H15C14.4 21 14 21.4 14 22C14 22.6 14.4 23 15 23H22C22.6 23 23 22.6 23 22C23 21.4 22.6 21 22 21Z" fill="#FEA1A1"/>
</svg>
