<svg width="24" height="25" viewBox="0 0 24 25" fill="none" xmlns="http://www.w3.org/2000/svg">
<path d="M6 6.5C4.80653 6.5 3.66193 6.97411 2.81802 7.81802C1.97411 8.66193 1.5 9.80653 1.5 11V20H10.5V11C10.5 9.80653 10.0259 8.66193 9.18198 7.81802C8.33807 6.97411 7.19347 6.5 6 6.5V6.5ZM6 5H18C19.5913 5 21.1174 5.63214 22.2426 6.75736C23.3679 7.88258 24 9.4087 24 11V20C24 20.3978 23.842 20.7794 23.5607 21.0607C23.2794 21.342 22.8978 21.5 22.5 21.5H1.5C1.10218 21.5 0.720644 21.342 0.43934 21.0607C0.158035 20.7794 0 20.3978 0 20V11C0 9.4087 0.632141 7.88258 1.75736 6.75736C2.88258 5.63214 4.4087 5 6 5V5ZM9.969 6.5C10.6081 7.06246 11.1199 7.75482 11.4701 8.53082C11.8204 9.30682 12.001 10.1486 12 11V20H22.5V11C22.5 9.80653 22.0259 8.66193 21.182 7.81802C20.3381 6.97411 19.1935 6.5 18 6.5H9.969Z" fill="black"/>
<path d="M17.6895 13.25H13.5V11.75H21C21.1989 11.75 21.3897 11.829 21.5303 11.9697C21.671 12.1103 21.75 12.3011 21.75 12.5V14C21.75 14.1989 21.671 14.3897 21.5303 14.5303C21.3897 14.671 21.1989 14.75 21 14.75H19.5C19.4014 14.7502 19.3038 14.7309 19.2127 14.6933C19.1216 14.6558 19.0388 14.6006 18.969 14.531L17.6895 13.25V13.25ZM7.5 11C7.5 11.828 6.828 11 6 11C5.172 11 4.5 11.828 4.5 11C4.5 10.6022 4.65804 10.2206 4.93934 9.93934C5.22064 9.65804 5.60218 9.5 6 9.5C6.39782 9.5 6.77936 9.65804 7.06066 9.93934C7.34196 10.2206 7.5 10.6022 7.5 11V11Z" fill="black"/>
</svg>
