<svg width="23" height="24" viewBox="0 0 23 24" fill="none" xmlns="http://www.w3.org/2000/svg">
<path d="M19.9926 12.9646C19.367 13.1307 18.7226 13.2148 18.0754 13.2147C16.1046 13.2147 14.2538 12.4486 12.8637 11.0584C11.9508 10.1403 11.2945 8.9989 10.9602 7.74806C10.6259 6.49723 10.6253 5.18063 10.9584 3.92949C11 3.77305 10.9998 3.60843 10.9577 3.45213C10.9156 3.29584 10.8331 3.15336 10.7185 3.039C10.604 2.92463 10.4614 2.8424 10.305 2.80055C10.1486 2.7587 9.98402 2.7587 9.82766 2.80056C8.26134 3.21796 6.83233 4.03991 5.68397 5.18395C2.08581 8.7821 2.08581 14.639 5.68397 18.239C6.53922 19.099 7.55655 19.7809 8.67708 20.2452C9.79761 20.7094 10.9991 20.9468 12.212 20.9436C13.4245 20.947 14.6257 20.7098 15.746 20.2457C16.8662 19.7816 17.8832 19.0999 18.7381 18.2399C19.883 17.0914 20.7053 15.6616 21.1224 14.0944C21.1639 13.938 21.1635 13.7735 21.1214 13.6174C21.0793 13.4612 20.997 13.3188 20.8826 13.2044C20.7682 13.09 20.6258 13.0076 20.4696 12.9656C20.3134 12.9235 20.1489 12.9231 19.9926 12.9646V12.9646ZM17.4338 16.9347C16.7498 17.6225 15.9361 18.1678 15.04 18.539C14.1438 18.9103 13.1829 19.1001 12.2129 19.0975C11.2425 19.0999 10.2813 18.9099 9.38488 18.5385C8.48842 18.1671 7.67447 17.6217 6.99012 16.9338C4.11197 14.0547 4.11197 9.36918 6.99012 6.4901C7.54628 5.93457 8.18836 5.47233 8.89166 5.12118C8.78871 6.44954 8.97377 7.78447 9.43418 9.03474C9.89458 10.285 10.6195 11.4211 11.5594 12.3655C12.5016 13.3083 13.6374 14.0352 14.8882 14.496C16.139 14.9567 17.4749 15.1403 18.8037 15.0341C18.4506 15.7362 17.9882 16.3777 17.4338 16.9347V16.9347Z" fill="white"/>
</svg>
