<svg width="23" height="24" viewBox="0 0 23 24" fill="none" xmlns="http://www.w3.org/2000/svg">
<path d="M6.98455 12.0181C6.98455 14.5667 9.05778 16.64 11.6064 16.64C14.155 16.64 16.2282 14.5667 16.2282 12.0181C16.2282 9.46951 14.155 7.39628 11.6064 7.39628C9.05778 7.39628 6.98455 9.46951 6.98455 12.0181ZM11.6064 9.24243C13.1369 9.24243 14.3821 10.4877 14.3821 12.0181C14.3821 13.5486 13.1369 14.7938 11.6064 14.7938C10.0759 14.7938 8.8307 13.5486 8.8307 12.0181C8.8307 10.4877 10.0759 9.24243 11.6064 9.24243ZM10.6815 18.4797H12.5276V21.2489H10.6815V18.4797ZM10.6815 2.78735H12.5276V5.55658H10.6815V2.78735ZM2.37378 11.095H5.14301V12.9412H2.37378V11.095ZM18.0661 11.095H20.8353V12.9412H18.0661V11.095ZM4.42393 17.8917L6.38086 15.9329L7.68701 17.2381L5.73009 19.1969L4.42393 17.8917ZM15.5202 6.7972L17.479 4.83843L18.7842 6.14366L16.8255 8.10243L15.5202 6.7972ZM6.38363 8.10335L4.42486 6.14458L5.73101 4.83935L7.68793 6.79812L6.38363 8.10335ZM18.7842 17.8926L17.479 19.1978L15.5202 17.239L16.8255 15.9338L18.7842 17.8926Z" fill="#0D1124"/>
</svg>
