<svg width="960" height="964" viewBox="0 0 960 964" fill="none" xmlns="http://www.w3.org/2000/svg">
<circle cx="488" cy="492" r="472" fill="#0F0F0F"/>
<circle cx="468.307" cy="468.307" r="454.534" fill="#FDFAEF" stroke="#0F0F0F" stroke-width="27.5475"/>
<path fill-rule="evenodd" clip-rule="evenodd" d="M626.635 156.544C597.301 169.971 645.194 168.847 647.756 197.198C650.758 230.228 607.28 280.683 573.267 296.226C473.536 341.868 266.484 246.459 164.894 292.915C73.1055 334.871 26.0875 442.708 27.5252 527.814C27.9607 570.275 43.7567 605.309 71.2323 624.791C94.5259 640.961 123.809 643.397 151.346 630.846C231.454 594.196 251.812 513.46 247.442 465.004C245.944 448.646 238.324 406.934 200.11 424.416C186.127 430.846 173.202 443.832 174.827 461.127C176.138 475.672 187.003 456.631 202.363 449.578C212.605 444.895 219.911 466.625 221.348 482.36C224.72 519.764 189.878 568.898 156.783 584.011C134.927 594.075 103.082 596.435 84.8507 582.643C69.8648 572.462 53.6286 548.672 53.3195 512.833C52.0692 445.649 90.845 380.334 154.226 351.365C239.017 312.523 380.886 373.905 387.438 376.34L389.377 376.527C389.377 376.527 259.501 742.996 266.245 817.991C270.928 869.378 315.698 902.965 313.202 875.687C306.646 803.319 448.07 381.458 448.07 381.458L450.505 381.959C455.872 382.273 462.246 382.643 468.053 382.709C494.84 383.645 528.563 375.839 560.281 361.354C616.651 335.569 681.034 275.433 675.236 210.873C672.413 179.899 657.862 142.308 626.635 156.544ZM583.136 616.548C591.181 612.863 599.044 605.178 606.612 595.137C605.296 601.815 604.73 607.496 605.165 612.048C608.916 653.324 644.077 677.311 640.574 638.84C638.396 614.361 755.787 378.522 771.208 371.469C771.208 371.469 711.7 508.088 715.704 552.165C719.254 591.569 735.242 612.174 753.408 603.871C799.499 582.764 883.977 379.023 892.219 357.729C900.47 335.873 885.981 337.058 880.474 351.608C845.332 440.394 785.515 561.85 757.534 574.639C736.123 584.446 830.899 377.519 828.595 351.791C826.281 326.132 814.105 303.897 797.808 311.394C782.513 318.386 711.143 445.077 706.202 453.882C708.141 450.327 720.003 427.722 717.882 404.119C713.143 351.73 677.298 347.36 678.98 365.718C680.661 384.45 671.178 415.86 658.444 450.454C657.18 452.074 656.005 454.135 655.059 456.574C623.092 538.055 605.226 587.326 582.878 597.497C580.574 598.631 575.264 598.813 573.7 597.881C586.63 568.968 593.495 548.302 592.624 538.809C588.624 494.601 544.229 534.688 548.036 577.276C549.788 596.256 555.159 607.496 555.159 607.496C555.159 607.496 509.949 692.606 482.473 705.157C441.951 723.706 504.207 500.347 581.576 465.009C602.552 455.39 605.605 446.337 603.428 443.527C589.753 426.856 569.391 415.925 543.292 427.853C492.467 451.081 412.232 593.386 420.722 687.539C425.719 743.057 457.878 739.179 476.544 730.628L481.167 728.506C481.602 727.757 482.534 727.326 483.471 726.942C483.911 726.694 484.407 726.502 484.848 725.762C510.071 709.891 535.481 674.365 555.468 637.908C559.219 630.719 561.275 626.537 561.275 626.537C562.9 623.601 564.521 620.107 565.766 617.363C569.766 618.791 576.13 619.733 583.136 616.548Z" fill="#0F0F0F"/>
</svg>
