<svg width="603" height="441" viewBox="0 0 603 441" fill="none" xmlns="http://www.w3.org/2000/svg">
<path fill-rule="evenodd" clip-rule="evenodd" d="M417.912 4.95246C482.445 -9.49331 542.232 7.64587 574.366 56.6006C606.5 105.555 598.094 183.237 591.133 217.526C584.172 251.815 566.514 283.221 544.598 310.487C503.892 361.129 448.883 399.883 387.387 420.803C325.891 441.722 259.123 446.012 195.037 435.429C159.087 429.492 46.6329 400.408 22.3581 312.64C-1.9166 224.872 -17.2795 149.858 35.2878 119.387C87.8552 88.9155 124.267 111.834 150.29 123.104C271.869 175.757 353.38 19.3982 417.912 4.95246Z" fill="#F1FEA1"/>
<path fill-rule="evenodd" clip-rule="evenodd" d="M508.784 87.1599C519.136 86.3604 530.294 86.8775 538.73 92.9304C547.166 98.9832 550.998 112.275 544.071 120.009C551.903 116.947 561.107 122.14 565.03 129.578C568.953 137.015 568.748 145.926 567.567 154.252C564.644 174.87 556.239 194.686 543.446 211.117C542.858 212.849 542.27 214.582 541.683 216.314C556.804 220.212 615.85 243.143 599.896 299.673C583.942 356.203 514.267 377.719 507.135 384.485C494.705 396.278 475.732 397.084 458.606 396.54C416.498 395.204 374.518 389.853 333.421 380.583C329.927 379.794 325.501 379.314 323.487 382.276C308.909 403.71 278.423 405.626 252.569 403.76C219.358 401.364 186.339 396.327 153.924 388.713C135.538 384.394 116.013 378.381 104.559 363.364C91.2061 345.857 92.7482 321.584 94.9149 299.673C86.1383 304.553 71.5817 307.196 51.2452 307.602C39.2716 305.16 31.8027 300.819 28.8387 294.581C15.2843 266.052 10.6362 229.29 27.5152 201.17C29.5428 197.792 31.8822 194.463 35.1838 192.314C38.6841 190.035 42.9515 189.286 47.112 188.917C63.5222 187.464 80.3594 191.294 94.5257 199.704C94.3992 153.661 94.2727 107.618 94.1462 61.5748C94.139 58.9381 94.1757 56.1402 95.5814 53.9094C97.6146 50.683 101.78 49.6829 105.529 48.9831C139.631 42.6169 174.12 38.3235 208.742 36.1342C220.055 35.4189 235.537 38.5673 235.588 49.9023C235.785 93.3113 235.983 136.72 236.18 180.129C236.227 190.461 236.891 189.597 241.731 186.603C238.689 186.919 239.368 181.758 241.673 179.747C250.282 172.243 262.827 171.967 274.246 172.084C299.79 172.345 325.333 172.606 350.877 172.868C375.627 173.121 405.307 176.26 416.512 198.329C416.187 191.77 422.131 185.581 428.698 185.641C435.859 185.707 441.849 179.494 443.939 172.644C446.03 165.794 445.107 158.434 444.167 151.334C432.619 140.153 429.597 121.146 437.105 106.934C444.614 92.7217 462.019 84.5073 477.763 87.7449C487.933 89.8362 498.432 87.9593 508.784 87.1599ZM212.387 300.092C212.047 309.232 211.687 318.494 208.998 327.235L212.387 300.092ZM201.804 187.929C204.182 188.625 207.123 190.733 205.875 192.872C216.203 193.904 213.119 193.426 213.583 181.256C214.055 168.906 214.094 155.251 206.009 145.904C198.855 137.633 187.188 135.046 176.292 134.116C163.574 133.03 150.719 133.552 138.131 135.665C131.989 136.696 125.336 138.472 121.772 143.579C119.777 146.438 119.043 149.968 118.457 153.404C116.152 166.919 115.432 180.704 116.317 194.386C142.795 182.067 173.776 179.727 201.804 187.929ZM431.596 278.664C432.243 278.01 433.224 277.851 434.135 277.726C437.774 277.225 441.413 276.725 445.052 276.224C436.701 272.453 431.639 263.493 430.127 254.456C428.615 245.419 430.092 236.179 431.583 227.138C426.241 233.082 426.627 242.051 427.326 250.013C428.858 267.437 430.949 279.318 431.596 278.664ZM362.894 364.492C363.609 362.164 366.045 360.914 367.829 359.256C371.04 356.272 372.233 351.761 373.28 347.504C376.9 332.795 380.541 317.907 380.496 302.759C380.486 299.55 380.323 296.253 381.386 293.225C382.448 290.197 385.111 287.458 388.32 287.443C391.704 287.426 392.512 282.732 392.21 279.362C391.166 267.741 390.123 256.119 389.08 244.498C388.747 240.786 388.407 237.04 387.281 233.488C383.116 220.354 367.068 212.412 354.1 217.069C352.513 217.639 352.088 219.644 351.908 221.321C349.912 239.91 347.916 258.499 345.92 277.088C345.566 280.39 349.83 282.498 353.05 281.68C356.269 280.862 358.727 278.347 361.511 276.534C364.294 274.722 368.219 273.679 370.774 275.8C373.663 278.198 377.94 275.534 380.449 272.742C382.959 269.95 386.227 266.584 389.796 267.749C385.61 271.753 381.423 275.758 377.236 279.762C375.848 281.091 374.624 283.743 376.378 284.527C381.189 282.821 385.537 279.831 388.852 275.951C390.385 275.902 390.458 278.309 389.602 279.582C386.379 284.379 378.793 285.447 376.84 290.886C372.281 303.581 358.063 312.013 344.736 309.925C342.003 309.497 340.64 313.093 340.311 315.84C338.999 326.794 337.687 337.748 336.376 348.702C336.074 351.222 335.792 353.887 336.83 356.203C338.561 360.068 343.191 361.53 347.296 362.57C352.722 363.945 358.211 365.326 363.757 365.927C366.093 366.18 366.083 365.324 362.894 364.492ZM146.719 344.408C154.472 347.005 162.678 347.885 170.809 348.748C174.257 349.115 177.929 349.443 181.022 347.876C184.663 346.032 186.603 342.035 188.169 338.266C196.902 317.246 201.888 294.677 202.823 271.934C202.955 268.703 198.818 267.276 195.591 267.059C169.829 265.33 145.191 276.655 121.859 287.714C120.741 288.244 119.544 288.849 118.992 289.956C118.58 290.782 118.602 291.748 118.632 292.67C119.05 305.234 119.577 318.248 125.196 329.494C126.714 332.531 128.644 335.453 131.377 337.468C133.032 338.688 134.927 339.535 136.806 340.371C140.067 341.823 143.334 343.275 146.719 344.408ZM313.376 297.909C316.81 279.442 319.23 260.786 320.622 242.054C321.098 235.645 321.447 229.131 320.061 222.856C318.676 216.581 315.334 210.481 309.87 207.099C306.503 205.015 302.562 204.08 298.664 203.385C291.55 202.116 284.313 201.54 277.089 201.668C270.713 201.781 264.022 202.558 258.817 206.242C257.096 207.46 255.533 209.055 254.904 211.068C254.276 213.08 254.805 215.553 256.551 216.735C260.964 219.724 262.762 225.315 263.589 230.58C264.416 235.844 264.615 241.357 267.014 246.116C268.251 248.57 270.025 250.711 271.886 252.734C281.973 263.702 295.131 271.816 309.46 275.905C311.979 276.624 315.184 278.18 314.652 280.745C322.577 285.744 313.244 298.618 313.376 297.909ZM291.536 352.378C294.454 350.605 296.432 347.654 298.174 344.718C305.564 332.258 310.409 318.297 312.327 303.939C285.747 303.818 259.325 293.79 239.36 276.242C238.676 278.985 238.807 281.855 238.9 284.68C239.483 302.315 238.437 320.004 235.779 337.447C235.145 341.605 237.629 345.763 241.044 348.219C244.459 350.674 248.666 351.729 252.796 352.525C262.107 354.318 271.622 355.054 281.098 354.712C284.702 354.582 288.454 354.25 291.536 352.378ZM459.265 200.263C457.716 196.529 456.553 192.319 453.339 189.868C450.124 187.416 444.072 188.616 443.883 192.654C447.064 192.068 449.496 195.995 448.954 199.184C448.412 202.373 446.094 204.908 444.252 207.567C441.707 211.241 439.966 215.401 438.244 219.525C434.147 229.338 432.553 240.184 433.652 250.761C434.299 256.988 436.005 263.385 440.216 268.018C444.426 272.651 451.644 274.968 457.192 272.068C461.958 269.577 464.335 264.086 465.428 258.821C466.521 253.556 466.716 248.045 468.78 243.08C472.589 233.92 481.982 228.387 491.274 224.913C477.306 223.015 464.668 213.283 459.265 200.263ZM420.639 210.171C421.26 212.572 422.12 214.911 423.202 217.143C423.852 213.998 424.895 210.935 426.299 208.047C424.879 207.885 423.448 207.808 422.019 207.816C421.672 207.818 421.305 207.831 421.012 208.017C420.351 208.436 420.443 209.414 420.639 210.171ZM252.272 207.699C251.393 208.407 250.877 209.931 251.806 210.573C253.227 209.149 254.649 207.725 256.071 206.302C255.777 205.937 255.35 205.683 254.89 205.599C254.326 206.577 253.152 206.992 252.272 207.699Z" fill="white"/>
<path d="M498.5 197.5C501.538 197.5 504 195.038 504 192C504 188.962 501.538 186.5 498.5 186.5C495.462 186.5 493 188.962 493 192C493 195.038 495.462 197.5 498.5 197.5Z" fill="#CFC9F3"/>
<path d="M467 192C468.657 192 470 190.657 470 189C470 187.343 468.657 186 467 186C465.343 186 464 187.343 464 189C464 190.657 465.343 192 467 192Z" fill="#CFC9F3"/>
<path fill-rule="evenodd" clip-rule="evenodd" d="M182.926 113.077C191.926 113.134 200.925 113.191 209.925 113.248C210.347 113.251 210.799 113.263 211.139 113.512C211.833 114.022 211.556 115.216 210.841 115.696C210.127 116.176 209.2 116.156 208.339 116.126C200.419 115.851 192.475 116.263 184.626 117.354C183.432 117.52 182.173 117.694 181.056 117.241C179.94 116.787 179.086 115.45 179.6 114.36C180.137 113.221 181.667 113.069 182.926 113.077ZM152.83 112.193C153.4 112.761 153.127 113.805 152.493 114.302C151.86 114.799 151.011 114.898 150.21 114.979C142.231 115.787 134.252 116.595 126.274 117.403C125.33 117.499 124.354 117.591 123.452 117.3C122.549 117.01 121.732 116.229 121.711 115.281C121.689 114.303 122.519 113.472 123.447 113.16C124.374 112.848 125.381 112.935 126.357 113.012C134.532 113.655 142.787 113.284 150.871 111.911C151.549 111.796 152.343 111.708 152.83 112.193ZM151.712 96.8771C152.308 97.3582 152.096 98.3894 151.498 98.868C150.9 99.3466 150.086 99.4259 149.322 99.4862L123.698 101.508C122.739 101.584 121.745 101.655 120.841 101.328C119.936 101 119.142 100.157 119.194 99.1965C119.247 98.2231 120.146 97.4681 121.093 97.2382C122.04 97.0084 123.032 97.18 123.996 97.3225C132.693 98.6079 141.536 97.436 150.291 96.64C150.782 96.5953 151.328 96.5675 151.712 96.8771ZM187.498 91.8005C192.844 92.4834 198.264 92.5873 203.633 92.1097C205.768 91.9198 208.348 91.8307 209.56 93.5973C208.121 94.761 206.143 94.9261 204.296 95.0425C198.173 95.4284 192.051 95.8143 185.929 96.2002C184.532 96.2882 182.791 96.1825 182.216 94.9068C181.7 93.762 182.608 92.3854 183.775 91.9217C184.942 91.4581 186.252 91.6413 187.498 91.8005ZM141.309 85.2547C141.315 86.1794 140.156 86.5784 139.241 86.7125L125.786 88.6848C124.825 88.8256 123.833 88.9648 122.895 88.7144C121.957 88.464 121.08 87.7178 120.993 86.7511C120.885 85.5676 121.996 84.5688 123.156 84.311C124.316 84.0531 125.518 84.3228 126.697 84.4747C130.761 84.9983 134.861 84.1051 138.957 83.9644C139.959 83.93 141.301 84.252 141.309 85.2547ZM206.234 82.0339C207.276 82.1502 208.344 82.7714 208.622 83.7813C206.773 85.1796 204.329 85.4342 202.02 85.6389C198.068 85.9892 194.115 86.3395 190.163 86.6898C188.77 86.8132 187.378 86.9367 185.986 87.0601C184.968 87.1503 183.909 87.2354 182.952 86.874C181.996 86.5127 181.179 85.564 181.322 84.5519C181.546 82.9569 183.64 82.5429 185.25 82.5775C191.225 82.7059 197.274 83.6076 203.128 82.4048C204.154 82.1939 205.193 81.9175 206.234 82.0339ZM211.483 66.9464C182.196 70.8954 152.169 68.8505 123.285 75.0979C121.572 75.4684 119.181 75.4867 118.738 73.7909C118.778 71.7928 121.362 71.0717 123.355 70.9295C151.454 68.9256 179.552 66.9217 207.65 64.9178C209.299 64.8002 211.612 65.2988 211.483 66.9464Z" fill="#E7EAEE"/>
<path fill-rule="evenodd" clip-rule="evenodd" d="M108.462 370.528C108.768 374.071 103.884 375.271 100.328 375.285C81.8444 375.358 63.3797 378.787 46.1021 385.353C43.4653 386.355 40.6432 387.618 39.3599 390.13C37.6606 393.456 39.5152 397.713 42.5216 399.929C45.5279 402.146 49.3652 402.822 53.0518 403.422C148.879 419.026 246.132 425.866 343.2 423.829L344.76 423.794C355.955 423.536 367.381 422.934 377.637 418.501C369.146 412.55 360.656 406.6 352.165 400.649C366.863 397.713 382.028 399.804 396.943 401.277C431.08 404.647 465.543 404.716 499.693 401.482C497.29 405.324 492.004 405.857 487.473 405.954C444.515 406.879 401.505 405.353 358.721 401.386C364.303 405.059 369.885 408.733 375.467 412.406C377.49 413.737 379.728 415.427 379.845 417.846C380.02 421.481 375.555 423.294 371.964 423.888C360.05 425.856 347.93 426.17 335.856 426.346C241.557 427.725 147.141 420.977 53.9971 406.203C49.4522 405.482 44.743 404.677 40.9533 402.067C37.1637 399.456 34.5801 394.492 36.1725 390.175C37.7565 385.88 42.5758 383.864 46.9269 382.443C66.8384 375.939 87.5621 371.926 108.462 370.528ZM235.588 49.9023C235.785 93.3113 235.983 136.72 236.18 180.129C236.227 190.461 238.262 203.535 248.254 206.166C262.06 199.793 277.622 197.275 292.734 198.97C301.385 199.94 310.369 202.555 316.225 208.996C324.258 217.83 324.271 231.136 323.408 243.046C321.66 267.187 318.216 291.206 313.111 314.866C317.167 314.61 321.304 316.237 324.098 319.188C319.795 321.156 314.667 321.239 310.303 319.409C313.3 335.66 300.062 351.692 284.206 356.347C268.351 361.003 251.146 356.613 236.237 349.488C234.839 354.933 242.123 358.132 247.684 358.954C261.802 361.041 275.92 363.128 290.037 365.214C272.603 365.738 255.11 364.311 237.991 360.968C234.838 365.432 241.977 369.94 247.372 370.813C261.682 373.129 275.991 375.444 290.301 377.76C274.138 377.652 257.983 376.575 241.949 374.535C252.146 383.733 266.065 388.679 279.78 387.977C272.044 390.521 263.448 390.368 255.807 387.55C265.366 400.351 284.923 402.722 299.205 395.562C313.487 388.403 322.812 373.754 327.373 358.443C331.935 343.132 332.378 326.95 333.187 310.994C334.679 281.542 337.53 252.129 342.69 223.093C346.164 203.541 354.698 180.227 374.364 177.464C339.329 175.849 304.259 174.979 269.186 174.852C258.529 174.814 245.29 176.557 241.731 186.603C238.689 186.919 239.368 181.758 241.673 179.747C250.282 172.243 262.827 171.967 274.246 172.084L350.877 172.868C375.627 173.121 405.307 176.26 416.512 198.329C416.187 191.77 422.131 185.581 428.698 185.641C435.859 185.707 441.849 179.494 443.939 172.644C446.03 165.794 445.108 158.434 444.167 151.334C432.619 140.153 429.597 121.146 437.105 106.934C439.229 102.914 442.367 93.3292 459.893 87.1599C471.576 83.0469 483.125 83.4992 494.539 88.5165C515.975 84.3714 530.705 85.8427 538.73 92.9304C550.767 103.562 550.998 112.275 544.071 120.009C551.903 116.947 561.107 122.14 565.03 129.578C568.953 137.015 568.748 145.926 567.567 154.252C564.644 174.87 556.239 194.686 543.446 211.117L541.683 216.314C572.629 224.292 597.664 251.645 602.877 283.176C592.589 259.985 578.66 235.425 554.663 227.192C549.248 232.872 543.68 238.799 541.137 246.223C538.594 253.647 539.968 263.027 546.416 267.5C542.366 268.438 538.316 269.377 534.266 270.316C535.614 272.707 536.962 275.098 538.311 277.489C523.007 289.123 521.247 311.128 521.339 330.351C521.432 349.575 521.082 371.254 507.135 384.485C494.705 396.278 475.732 397.084 458.606 396.54C416.498 395.204 374.518 389.853 333.421 380.583C329.927 379.794 325.501 379.314 323.487 382.276C308.909 403.71 278.423 405.626 252.569 403.76C219.358 401.364 186.339 396.327 153.924 388.713C135.538 384.394 116.013 378.381 104.559 363.364C91.2061 345.857 92.7482 321.584 94.9149 299.673C81.75 306.993 66.1429 309.826 51.2453 307.602C66.949 297.335 74.5643 277.694 74.7073 258.932C74.8504 240.171 68.588 221.985 61.6207 204.565C46.2696 213.469 38.1927 232.237 39.3938 249.943C40.5949 267.648 49.989 284.082 62.5933 296.575C47.0557 286.769 36.7744 269.104 35.9234 250.751C35.0725 232.397 43.675 213.857 58.2385 202.655C55.9113 194.697 43.9051 193.724 37.6124 199.124C31.3198 204.523 29.345 213.287 27.7263 221.42C24.7354 236.446 21.7322 251.823 23.9053 266.989C26.0784 282.155 34.456 297.336 48.4945 303.473C41.9339 308.202 33.1957 301.394 28.8387 294.581C11.1698 266.95 10.6362 229.29 27.5152 201.17C29.5428 197.792 31.8823 194.463 35.1839 192.314C38.6842 190.035 42.9515 189.286 47.1121 188.917C63.5223 187.464 80.3594 191.294 94.5258 199.704C94.3993 153.661 94.2728 107.618 94.1463 61.5748C94.139 58.9381 94.1757 56.1402 95.5815 53.9094C97.6147 50.683 101.78 49.6829 105.529 48.9831C139.631 42.6169 174.12 38.3235 208.742 36.1342C220.055 35.4189 235.537 38.5673 235.588 49.9023ZM212.465 38.9083C175.757 40.6362 139.182 45.174 103.165 52.4687C101.632 52.7791 100.009 53.1417 98.8951 54.2392C97.3774 55.7342 97.26 58.1032 97.24 60.2335C96.8099 106.08 96.9918 151.932 97.7856 197.773C102.193 196.674 106.601 195.575 111.009 194.476C109.286 185.07 107.555 175.536 108.292 166.001C109.029 156.467 112.528 146.77 119.724 140.472C127.513 133.656 138.383 131.73 148.708 131.005C158.637 130.308 168.625 130.47 178.526 131.487C188.633 132.526 199.28 134.771 206.572 141.846C217.104 152.067 217.275 168.625 216.73 183.291C215.282 222.225 213.835 261.159 212.387 300.092C212.047 309.232 211.687 318.494 208.998 327.235C206.308 335.976 200.969 344.283 192.892 348.573C184.966 352.782 175.482 352.663 166.565 351.65C158.052 350.682 149.621 348.994 141.391 346.61C136.392 345.162 131.39 343.418 127.142 340.412C113.083 330.463 111.421 310.611 111.08 293.392C105.682 292.418 100.404 296.526 98.1756 301.538C95.9468 306.55 96.0455 312.245 96.1839 317.729C96.5293 331.407 97.0623 345.769 104.045 357.536C114.819 375.691 137.448 382.399 158.11 386.734C194.783 394.429 232.018 399.447 269.419 401.735C252.727 393.234 237.928 378.683 234.408 360.285C233.451 355.287 233.349 350.171 233.249 345.083C231.3 245.604 229.351 146.126 227.403 46.6472C227.279 40.3562 218.75 38.6125 212.465 38.9083ZM354.762 202.233C353.834 204.498 353.159 207.01 353.777 209.378C354.396 211.746 356.696 213.814 359.111 213.412C369.923 211.611 381.579 216.937 387.295 226.29C392.011 234.008 392.666 243.45 393.197 252.479L398.033 334.724C398.55 343.513 398.805 353.185 393.343 360.089C386.255 369.048 372.948 369.346 361.579 368.234C352.198 367.317 342.33 365.757 335.047 359.773C335.305 363.256 334.29 366.819 332.236 369.642C329.7 373.127 333.794 377.713 337.776 379.361C342.641 381.374 347.931 382.075 353.151 382.752C377.063 385.856 400.988 388.849 424.928 391.731C443.354 393.949 462.075 396.097 480.394 393.12C468.805 389.868 457.715 384.842 447.631 378.271C442.599 374.992 437.734 371.247 434.303 366.318C428.701 358.273 427.521 348.051 426.589 338.293C423.817 309.275 421.754 280.189 420.402 251.07C419.405 229.593 412.519 208.418 400.691 190.463C398.576 187.252 395.989 183.921 392.249 183.027C377.382 179.473 360.563 188.091 354.762 202.233ZM286.592 388.093C287.853 388.307 289.147 388.589 290.187 389.335C291.226 390.081 291.951 391.405 291.631 392.643C291.311 393.882 289.677 394.696 288.644 393.941C287.504 393.108 285.989 393.079 284.631 392.695C283.272 392.311 281.848 391.183 282.093 389.793C282.402 388.031 284.828 387.793 286.592 388.093ZM234.234 388.616C235.799 388.941 237.63 390.056 237.31 391.622C237.027 393.003 235.319 393.463 233.922 393.649C232.356 393.858 230.685 394.052 229.264 393.364C227.842 392.675 226.92 390.733 227.853 389.459C228.482 388.599 229.659 388.37 230.723 388.327C231.899 388.279 233.081 388.376 234.234 388.616ZM327.842 371.215C326.357 372.286 325.337 373.864 324.289 375.366C319.512 382.21 313.458 388.159 306.531 392.815C306.704 393.55 307.805 393.364 308.458 392.986C316.478 388.339 322.202 380.662 327.695 373.196C328.145 372.585 328.516 371.563 327.842 371.215ZM399.559 186.32C403.838 191.373 408.151 196.474 411.281 202.308C414.675 208.634 416.581 215.643 418.116 222.655C426.703 261.883 424.411 302.666 429.976 342.435C430.981 349.611 432.308 356.94 436.042 363.149C440.416 370.424 447.675 375.467 455.071 379.634C461.052 383.004 467.296 385.964 473.864 387.96C484.31 391.134 496.859 391.357 504.866 383.935C509.363 379.768 511.728 373.822 513.575 367.976C521.494 342.92 522.365 315.678 516.062 290.167C516.221 305.425 518.202 320.646 517.749 335.898C517.295 351.149 514.164 366.854 505.199 379.2C503.423 381.646 501.365 383.993 498.681 385.384C495.146 387.215 490.947 387.179 486.995 386.697C480.094 385.854 473.346 383.768 467.172 380.571C462.482 378.141 458.143 375.089 453.939 371.892C449.052 368.176 444.254 364.173 440.83 359.078C437.437 354.027 435.545 348.127 434.045 342.23C423.09 299.173 430.923 252.728 417.924 210.243C414.86 200.23 409.539 189.488 399.559 186.32ZM138.212 375.741C163.502 379.645 188.791 383.548 214.081 387.452C213.44 389.125 211.128 389.183 209.352 388.946C187.724 386.057 166.096 383.168 144.468 380.278C142.023 379.952 139.578 379.625 137.133 379.299C135.972 379.144 134.531 378.723 134.384 377.562C134.178 375.925 136.581 375.49 138.212 375.741ZM431.583 227.138C426.242 233.082 426.627 242.051 427.326 250.013C428.858 267.437 430.389 284.862 431.92 302.287C431.992 303.103 432.079 303.962 432.557 304.626C433.339 305.712 434.852 305.901 436.188 305.995C454.37 307.276 472.552 308.557 490.734 309.839C489.374 311.988 486.31 312.02 483.774 311.824C466.657 310.503 449.47 310.074 432.308 310.542C432.013 319.343 433.31 328.195 436.118 336.541C437.335 340.159 442.022 340.929 445.836 341.084C460.379 341.673 474.923 342.261 489.466 342.85C490.135 344.357 487.785 345.298 486.137 345.279C471.188 345.107 456.239 344.935 441.29 344.763C439.243 344.74 438.502 347.641 439.273 349.537C441.29 354.494 447.71 355.562 453.051 355.896L486.474 357.989C487.236 358.037 487.395 359.236 486.838 359.759C486.281 360.283 485.432 360.297 484.668 360.281L445.536 359.451C455.654 371.493 469.845 380.049 485.218 383.377C488.53 384.094 492.042 384.565 495.26 383.503C499.11 382.231 501.95 378.962 504.173 375.57C515.963 357.582 515.179 334.438 513.974 312.964L512.609 288.625C513.086 287.969 514.066 287.741 514.783 288.121C515.059 286.928 513.507 286.219 512.302 285.998C485.704 281.113 458.411 276.219 431.792 280.991C430.941 280.642 430.949 279.318 431.596 278.664C432.243 278.01 433.224 277.851 434.135 277.726C437.774 277.225 441.413 276.725 445.052 276.224C436.701 272.453 431.639 263.493 430.127 254.456C428.615 245.419 430.092 236.179 431.583 227.138ZM300.856 375.102C303.225 375.543 305.961 376.267 306.886 378.493C304.248 380.29 300.784 380.106 297.602 379.852C296.727 379.782 295.77 379.675 295.155 379.048C294.067 377.939 294.879 375.895 296.279 375.221C297.679 374.548 299.329 374.818 300.856 375.102ZM120.425 358.843C147.671 367.404 175.906 372.817 204.387 374.939C206.596 375.104 209.566 376.157 209.142 378.331C179.02 374.925 149.083 369.89 119.504 363.256C117.616 362.833 115.194 361.489 115.897 359.686C116.515 358.103 118.803 358.334 120.425 358.843ZM220.222 372.057C221.613 372.054 222.956 372.531 224.257 373.026C224.918 373.277 225.646 373.602 225.902 374.261C226.449 375.667 224.51 376.672 223.026 376.941C222.027 377.123 221.029 377.304 220.03 377.485C219.187 377.638 218.28 377.783 217.504 377.42C216.245 376.83 215.918 375.012 216.64 373.823C217.363 372.634 218.831 372.061 220.222 372.057ZM348.525 369.054C360.578 371.346 372.922 371.476 385.19 371.599C386.14 371.608 386.396 373.102 385.717 373.766C385.039 374.431 383.981 374.46 383.031 374.441C371.58 374.216 360.113 373.009 348.694 373.909C347.451 374.007 346.16 374.124 344.993 373.687C343.826 373.249 342.83 372.069 343.052 370.843C343.243 369.785 344.274 369.044 345.329 368.84C346.384 368.635 347.469 368.853 348.525 369.054ZM375.753 180.116C362.107 182.154 350.642 194.299 349.395 208.04C348.23 220.874 344.687 233.354 342.166 245.991C334.068 286.573 336.524 328.63 329.365 369.388C331.98 364.627 332.686 359.085 333.344 353.692L350.704 211.523C351.166 207.74 351.638 203.914 352.997 200.354C356.711 190.623 366.31 184.51 375.753 180.116ZM313.707 364.248C314.45 364.484 315.212 364.794 315.708 365.397C316.203 365.999 316.328 366.972 315.786 367.533C315.377 367.957 314.737 368.033 314.151 368.085C312.233 368.254 310.315 368.424 308.397 368.593C307.362 368.685 306.292 368.772 305.305 368.446C304.319 368.119 303.429 367.264 303.4 366.225C303.352 364.465 305.523 363.58 307.28 363.466C309.446 363.324 311.638 363.591 313.707 364.248ZM354.1 217.069C352.513 217.639 352.088 219.644 351.908 221.321L345.92 277.088C345.566 280.39 349.83 282.498 353.05 281.68C356.269 280.862 358.727 278.347 361.511 276.534C364.294 274.722 368.219 273.679 370.775 275.8C373.663 278.198 377.94 275.534 380.449 272.742C382.959 269.95 386.227 266.584 389.796 267.749C385.61 271.753 381.423 275.758 377.237 279.762C375.848 281.091 374.624 283.743 376.378 284.527C381.189 282.821 385.537 279.831 388.852 275.951C390.385 275.902 390.458 278.309 389.602 279.582C386.379 284.379 378.793 285.447 376.84 290.886C372.281 303.581 358.063 312.013 344.736 309.925C342.003 309.497 340.64 313.093 340.311 315.84C338.999 326.794 337.687 337.748 336.376 348.702C336.074 351.222 335.792 353.887 336.83 356.203C338.561 360.068 343.191 361.53 347.296 362.57C355.007 364.524 362.845 366.491 370.794 366.211C378.743 365.93 386.963 363.087 391.997 356.928C390.603 355.118 387.498 357.439 385.468 356.392C383.481 355.367 384.537 351.956 386.669 351.285C388.801 350.614 391.052 351.68 393.032 352.717C394.276 350.289 395.555 347.692 395.299 344.976C395.044 342.261 392.551 339.576 389.893 340.186C388.146 340.588 387.434 337.56 388.843 336.451C390.251 335.343 392.274 335.702 394.018 336.117C394.115 329.563 394.212 323.01 394.309 316.457C394.329 315.12 394.333 313.715 393.699 312.538C393.065 311.36 391.561 310.535 390.356 311.116C388.714 311.907 387.29 309.111 388.389 307.656C389.488 306.202 391.563 306.014 393.385 305.95C393.526 300.13 393.15 294.298 392.262 288.544C385.403 291.981 384.203 301.05 383.511 308.691C382.185 323.345 379.515 337.877 375.548 352.046C374.66 355.22 373.659 358.466 371.582 361.026C369.505 363.585 366.083 365.324 362.894 364.492C363.609 362.164 366.045 360.914 367.829 359.256C371.04 356.272 372.233 351.761 373.28 347.504C376.9 332.795 380.541 317.907 380.496 302.759L380.489 301.743C380.465 298.859 380.435 295.934 381.386 293.225C382.448 290.197 385.111 287.458 388.32 287.443C391.704 287.426 392.512 282.732 392.21 279.362C391.166 267.741 390.123 256.119 389.08 244.498C388.747 240.786 388.407 237.04 387.281 233.488C383.116 220.354 367.068 212.412 354.1 217.069ZM405.162 358.804C406.753 359.231 408.296 360.866 407.635 362.374C407.004 363.815 405.022 363.895 403.456 363.746C402.69 363.674 401.875 363.582 401.276 363.098C400.227 362.25 400.375 360.451 401.358 359.527C402.34 358.603 403.86 358.454 405.162 358.804ZM214.031 357.193C215.078 357.419 216.168 357.724 216.92 358.486C217.672 359.248 217.921 360.606 217.173 361.372C216.563 361.998 215.577 362.009 214.703 361.979C213.446 361.935 212.189 361.89 210.932 361.846C210.204 361.821 209.426 361.778 208.842 361.344C207.593 360.415 208.141 358.239 209.482 357.45C210.823 356.66 212.51 356.863 214.031 357.193ZM117.182 345.789C124.219 349.062 131.949 350.489 139.594 351.821C155.071 354.517 170.593 356.945 186.153 359.104C188.331 359.406 190.742 359.834 192.069 361.587C186.043 361.999 180.021 360.995 174.065 359.995C154.43 356.698 134.795 353.401 115.161 350.104C113.102 349.758 110.445 348.615 110.846 346.567C111.321 344.139 114.939 344.746 117.182 345.789ZM239.36 276.242C238.676 278.985 238.807 281.855 238.9 284.68C239.483 302.315 238.437 320.004 235.779 337.447C235.145 341.605 237.629 345.763 241.044 348.219C244.459 350.674 248.666 351.729 252.796 352.525C262.107 354.318 271.622 355.054 281.098 354.712C284.702 354.582 288.454 354.25 291.536 352.378C294.454 350.605 296.432 347.654 298.174 344.718C305.564 332.258 310.409 318.297 312.327 303.939C285.747 303.818 259.325 293.79 239.36 276.242ZM308.879 346.162C310.694 346.761 312.509 347.36 314.323 347.959C314.929 348.158 315.578 348.39 315.937 348.916C316.543 349.806 315.954 351.108 315.016 351.636C314.077 352.164 312.937 352.136 311.861 352.093C309.902 352.015 307.738 351.85 306.37 350.445C305.003 349.04 305.472 346.009 307.428 345.882C307.923 345.849 308.408 346.007 308.879 346.162ZM404.008 346.425C405.088 346.597 406.226 346.796 407.058 347.505C407.89 348.214 408.231 349.618 407.465 350.398C407.156 350.712 406.728 350.873 406.312 351.018C404.705 351.577 402.921 352.024 401.332 351.415C399.744 350.806 398.661 348.706 399.659 347.329C400.577 346.063 402.464 346.178 404.008 346.425ZM121.86 287.714C120.741 288.244 119.544 288.849 118.992 289.956C118.58 290.782 118.602 291.748 118.632 292.67C119.05 305.234 119.577 318.248 125.196 329.494C126.714 332.531 128.644 335.453 131.377 337.468C133.033 338.688 134.927 339.535 136.806 340.371C140.067 341.823 143.334 343.275 146.719 344.408C154.472 347.005 162.678 347.885 170.809 348.748C174.257 349.115 177.929 349.443 181.022 347.876C184.663 346.032 186.603 342.035 188.169 338.266C196.902 317.246 201.888 294.677 202.823 271.934C202.955 268.703 198.818 267.276 195.591 267.059C169.829 265.33 145.191 276.655 121.86 287.714ZM206.823 271.023C206.162 271.892 206.08 273.055 206.015 274.145C204.473 299.865 198.072 325.284 187.249 348.666C197.56 343.447 205.243 333.313 207.484 321.975C208.254 318.077 208.412 314.088 208.567 310.117C209.057 297.598 209.547 285.078 210.038 272.559C210.063 271.899 210.068 271.173 209.648 270.663C208.954 269.82 207.484 270.153 206.823 271.023ZM211.094 333.666C212.402 333.737 213.632 334.281 214.904 334.597C216.043 334.88 216.387 336.502 215.751 337.489C215.115 338.475 213.889 338.904 212.727 339.067C211.514 339.238 210.209 339.173 209.165 338.531C208.122 337.889 207.445 336.548 207.862 335.396C208.307 334.164 209.785 333.595 211.094 333.666ZM404.758 330.266C405.982 330.519 407.031 331.277 408.038 332.016C408.585 332.417 409.167 332.867 409.345 333.521C409.574 334.356 409.023 335.255 408.264 335.671C407.505 336.087 406.596 336.117 405.733 336.048C404.507 335.95 403.241 335.646 402.316 334.836C401.39 334.025 400.92 332.603 401.497 331.516C402.082 330.413 403.535 330.013 404.758 330.266ZM113.706 291.372C113.371 291.969 113.439 292.7 113.516 293.38L115.334 309.385C116.32 318.071 117.612 327.431 123.683 333.72C124.695 333.241 124.124 331.719 123.486 330.798C118.568 323.701 117.621 314.678 116.824 306.081C116.356 301.042 115.889 296.003 115.421 290.963C114.951 290.467 114.04 290.776 113.706 291.372ZM437.432 324.158C454.111 324.57 470.79 324.981 487.469 325.393C490.022 325.456 492.582 325.52 495.108 325.899C494.581 327.723 492.183 328.066 490.284 328.048C473.558 327.89 456.777 326.855 440.141 328.594C438.719 328.743 437.184 328.889 435.949 328.167C434.715 327.444 434.162 325.463 435.297 324.593C435.885 324.141 436.691 324.14 437.432 324.158ZM391.607 320.881C391.974 321.001 392.349 321.128 392.649 321.372C393.646 322.184 393.275 323.918 392.255 324.701C391.236 325.483 389.861 325.574 388.576 325.605C387.238 325.638 385.678 325.533 384.916 324.433C383.959 323.052 385.096 321.009 386.68 320.449C388.264 319.889 390.01 320.358 391.607 320.881ZM403.801 317.51C405.357 317.678 406.87 318.224 408.176 319.086C409.173 319.745 408.974 321.401 408.066 322.179C407.159 322.957 405.863 323.066 404.668 323.023C403.46 322.979 402.199 322.796 401.222 322.084C400.244 321.373 399.662 319.998 400.186 318.908C400.784 317.665 402.429 317.362 403.801 317.51ZM235.779 279.447C234.87 292.538 234.463 305.663 234.558 318.785C234.562 319.339 234.94 320.127 235.414 319.839C236.418 308.809 236.911 297.733 236.89 286.658C236.886 284.204 236.836 281.661 235.779 279.447ZM217.948 313.029C219.379 313.137 220.642 313.969 221.808 314.805C222.167 315.062 222.537 315.337 222.738 315.731C223.153 316.546 222.655 317.596 221.874 318.073C221.092 318.55 220.125 318.587 219.211 318.545C217.131 318.447 214.516 317.316 214.749 315.247C214.909 313.82 216.517 312.921 217.948 313.029ZM407.266 304.211C408.659 304.783 410.092 306.276 409.373 307.598C408.886 308.493 407.698 308.687 406.679 308.697C405.496 308.709 404.312 308.612 403.146 308.409C401.506 308.123 401.255 305.544 402.528 304.471C403.801 303.399 405.726 303.579 407.266 304.211ZM569.567 278.597C570.141 279.558 570.151 280.741 570.144 281.86C570.095 289.781 570.047 297.703 569.998 305.624C569.992 306.586 569.863 307.752 568.99 308.156C568.235 308.505 567.305 308.015 566.885 307.297C566.465 306.579 566.427 305.709 566.413 304.877C566.291 297.805 567.079 290.565 565.076 283.781C564.481 281.765 563.769 279.248 565.326 277.836C566.542 276.732 568.724 277.187 569.567 278.597ZM365.911 277.679C359.907 281.405 353.591 285.236 346.542 285.744C345.26 285.836 344.683 287.368 344.43 288.628C343.291 294.299 342.663 300.072 342.555 305.854C342.549 306.208 342.552 306.588 342.756 306.876C343.081 307.335 343.744 307.354 344.306 307.325C349.804 307.037 355.378 306.463 360.484 304.404C365.591 302.346 370.237 298.616 372.318 293.519C374.399 288.421 373.398 281.92 369.148 278.419C368.234 277.666 366.918 277.055 365.911 277.679ZM319.942 299.977C321.871 300.483 323.801 300.99 325.73 301.497C326.451 301.686 327.252 301.937 327.597 302.598C328.003 303.376 327.53 304.38 326.796 304.861C326.061 305.342 325.147 305.433 324.273 305.511C322.886 305.634 321.458 305.753 320.127 305.344C318.797 304.934 317.572 303.861 317.419 302.477C317.267 301.093 318.596 299.623 319.942 299.977ZM52.3272 194.416C59.5475 197.34 64.9822 203.666 68.3529 210.689C71.7237 217.712 73.2585 225.455 74.5962 233.129C76.8101 245.831 78.5731 258.796 76.9588 271.587C75.3445 284.379 69.9974 297.134 60.0845 305.378C67.3053 305.764 75.927 305.478 79.8472 299.402C81.6064 296.675 85.3928 295.468 88.4055 296.674C86.5114 295.036 87.9412 291.987 89.3469 289.916C95.1066 281.426 99.0585 271.669 100.471 261.508C103.209 241.806 96.3245 221.838 86.1093 204.769C79.4816 193.695 64.0219 188.957 52.3272 194.416ZM223.524 296.478C225.014 297.064 224.667 299.526 223.275 300.317C221.882 301.108 220.147 300.752 218.595 300.358C217.871 300.174 217.103 299.958 216.612 299.396C215.465 298.083 216.781 295.864 218.48 295.472C220.179 295.081 221.902 295.839 223.524 296.478ZM277.089 201.668C270.713 201.781 264.022 202.558 258.817 206.242C257.096 207.46 255.533 209.055 254.904 211.068C254.276 213.08 254.805 215.553 256.551 216.735C260.964 219.724 262.762 225.315 263.589 230.58C264.416 235.844 264.615 241.357 267.014 246.116C268.251 248.57 270.025 250.711 271.886 252.734C281.973 263.702 295.131 271.816 309.46 275.905C311.979 276.624 315.184 278.18 314.652 280.745C294.037 276.421 275.238 263.981 263.2 246.695C259.542 257.929 252.327 267.976 242.85 275.03C261.336 290.762 285.259 299.979 309.522 300.717C310.621 300.751 311.865 300.709 312.606 299.897C313.092 299.365 313.244 298.618 313.376 297.909C316.81 279.442 319.23 260.786 320.622 242.054C321.098 235.645 321.447 229.131 320.062 222.856C318.676 216.581 315.334 210.481 309.87 207.099C306.503 205.015 302.562 204.08 298.664 203.385C291.55 202.116 284.313 201.54 277.089 201.668ZM403.758 291.543C405.43 291.545 407.539 292.033 407.832 293.678C408.124 295.318 406.256 296.54 404.603 296.751C403.395 296.905 402.081 296.759 401.122 296.007C400.163 295.255 399.717 293.782 400.383 292.761C401.066 291.715 402.509 291.542 403.758 291.543ZM527.263 258.612C524.195 270.496 522.404 282.668 520.619 294.812C520.53 295.416 520.479 296.131 520.935 296.537C525.717 290.595 530.104 284.336 534.058 277.813C534.448 277.17 534.832 276.328 534.394 275.716C533.403 274.331 532.413 272.945 531.422 271.56C530.687 270.533 529.929 269.178 530.576 268.093C531.102 267.21 532.278 267.024 533.301 266.929L541.703 266.156C541.612 265.635 541.296 265.187 540.987 264.758C538.738 261.627 536.284 258.335 532.682 256.962C530.686 256.201 527.797 256.543 527.263 258.612ZM138.131 135.665C131.989 136.696 125.337 138.472 121.772 143.579C119.777 146.438 119.043 149.968 118.457 153.404C116.152 166.919 115.432 180.704 116.317 194.386C142.795 182.067 173.776 179.727 201.804 187.929C204.182 188.625 207.123 190.733 205.875 192.872C184.85 185.096 161.431 183.936 139.741 189.597C132.722 191.429 125.901 193.948 118.923 195.927C108.552 198.868 97.8402 200.606 87.0714 201.097C106.684 227.726 109.222 265.856 93.3116 294.85C103.211 292.977 112.512 288.817 121.64 284.552C135.268 278.183 148.836 271.467 163.313 267.379C177.789 263.291 193.44 261.954 207.799 266.436C209.479 266.96 210.405 264.536 210.472 262.778L213.583 181.256C214.055 168.906 214.094 155.251 206.009 145.904C198.855 137.633 187.188 135.046 176.292 134.116C163.574 133.03 150.72 133.552 138.131 135.665ZM327.831 286.974C328.233 287.236 328.648 287.567 328.742 288.038C328.933 288.993 327.77 289.601 326.833 289.867C325.472 290.253 324.069 290.64 322.662 290.492C321.255 290.344 319.823 289.535 319.361 288.198C318.898 286.861 319.828 285.106 321.242 285.08C323.561 285.037 325.889 285.706 327.831 286.974ZM527.551 235.676C522.43 238.548 516.31 239.597 510.524 238.596C511.264 240.66 514.509 241.379 514.525 243.572C514.535 244.907 513.277 245.847 512.562 246.974C512.012 247.842 511.774 248.866 511.555 249.869C509.493 259.309 508.31 268.94 508.024 278.598C507.975 280.262 508.389 282.46 510.044 282.641C513.472 283.017 516.7 284.939 518.664 287.774C520.274 277.647 521.883 267.521 523.492 257.395C523.865 255.045 524.179 252.421 522.803 250.481C520.908 247.811 522.557 244.154 524.218 241.334L527.551 235.676ZM222.584 279.444C224.332 279.793 226.321 281.303 225.658 282.958C225.25 283.978 224.018 284.39 222.922 284.448C221.825 284.507 220.684 284.344 219.657 284.734C218.448 285.192 217.025 284.121 216.877 282.837C216.73 281.553 217.622 280.306 218.785 279.742C219.949 279.178 221.316 279.191 222.584 279.444ZM403.737 277.88C404.839 278.033 406.002 278.275 406.804 279.046C407.606 279.818 407.826 281.285 406.972 281.999C406.69 282.234 406.334 282.359 405.986 282.478C404.472 282.995 402.852 283.501 401.299 283.117C399.746 282.734 398.396 281.085 398.933 279.578C399.552 277.84 401.91 277.628 403.737 277.88ZM504.06 257.063C502.893 257.344 502.042 258.318 501.273 259.24L496.638 264.79C495.733 265.874 497.326 267.386 498.734 267.504C500.143 267.622 501.787 267.291 502.789 268.287C503.839 269.331 503.406 271.151 502.547 272.356C501.687 273.561 500.468 274.546 499.948 275.932C499.171 278.004 500.457 280.601 502.576 281.24C503.727 281.586 505.342 281.053 505.352 279.851C505.412 272.825 505.822 265.802 506.582 258.817C506.712 257.624 505.227 256.782 504.06 257.063ZM268.895 260.552C269.783 261.142 270.357 262.086 270.949 262.973C276.034 270.586 284.538 275.819 293.626 276.925C295.728 277.181 298.208 277.437 299.262 279.273C297.282 281.234 294.056 280.995 291.341 280.364C281.719 278.125 272.903 272.567 266.735 264.85C265.751 263.619 264.853 261.747 265.95 260.616C266.692 259.851 268.007 259.962 268.895 260.552ZM499.063 226.91C492.268 228.579 485.482 230.936 479.975 235.252C474.468 239.568 470.372 246.126 470.415 253.123C470.47 261.996 466.11 270.79 459.014 276.118L470.962 277.524C472.36 277.688 473.929 277.807 475.024 276.922C476.626 275.626 476.216 273.139 475.811 271.119C475.406 269.099 475.496 266.429 477.418 265.686C479.804 264.763 481.779 268.074 481.418 270.607C481.056 273.14 479.586 275.578 480.046 278.095C485.704 278.898 491.38 279.574 497.069 280.124C495.937 279.195 495.813 277.434 496.386 276.087C496.958 274.739 498.07 273.708 499.15 272.72C500.301 271.668 498.642 269.813 497.092 269.646C495.541 269.48 493.717 269.852 492.624 268.74C491.264 267.357 492.284 265.038 493.444 263.483C495.694 260.466 498.484 256.83 497.035 253.356C493.503 244.885 494.28 234.743 499.063 226.91ZM238.48 203.764C237.533 226.953 237.663 250.186 238.869 273.364C247.727 268.557 254.199 260.1 258.213 250.855C260.662 245.215 262.301 238.999 261.322 232.929C260.592 228.402 258.449 224.22 255.957 220.372C251.537 213.544 245.766 207.38 238.48 203.764ZM443.883 192.654C447.064 192.068 449.496 195.995 448.954 199.184C448.412 202.373 446.094 204.908 444.252 207.567C441.707 211.241 439.966 215.401 438.244 219.525C434.147 229.338 432.553 240.184 433.652 250.761C434.299 256.988 436.005 263.385 440.216 268.018C444.427 272.651 451.644 274.968 457.192 272.068C461.958 269.577 464.335 264.086 465.428 258.821C466.521 253.556 466.716 248.045 468.78 243.08C472.589 233.92 481.982 228.387 491.274 224.913C477.306 223.015 464.668 213.283 459.265 200.263C457.716 196.529 456.553 192.319 453.339 189.868C450.124 187.416 444.072 188.616 443.883 192.654ZM325.814 267.355C326.796 267.543 327.76 267.829 328.687 268.206C330.216 268.828 331.858 270.548 330.875 271.873C330.337 272.598 329.305 272.685 328.404 272.708C326.76 272.75 324.987 272.755 323.645 271.806C322.302 270.856 321.837 268.56 323.191 267.626C323.935 267.114 324.927 267.185 325.814 267.355ZM399.866 263.44C401.197 263.553 402.521 263.738 403.831 263.993C404.479 264.119 405.178 264.295 405.586 264.815C406.203 265.603 405.815 266.838 405.033 267.464C404.252 268.09 403.213 268.266 402.224 268.421C400.713 268.657 399.102 268.882 397.708 268.252C396.314 267.623 395.363 265.781 396.215 264.511C396.958 263.403 398.537 263.328 399.866 263.44ZM19.6982 256.287C18.5719 256.275 18.1822 257.779 18.2163 258.905C18.3145 262.14 18.9695 265.358 20.1438 268.375C20.4707 268.708 20.8502 268.012 20.8046 267.548L19.6982 256.287ZM236.139 264.618C235.436 264.999 235.168 266.009 235.59 266.688L235.607 266.713L235.592 266.73C235.573 266.752 235.553 266.779 235.532 266.811C235.249 267.239 235.645 267.918 236.157 267.882C236.503 266.83 236.497 265.666 236.139 264.618ZM221.499 260.038C223.023 260.376 224.678 261.64 224.298 263.155C224.047 264.158 222.991 264.747 221.982 264.971C220.972 265.195 219.905 265.18 218.941 265.555C217.714 266.031 216.238 265.042 215.985 263.751C215.732 262.46 216.523 261.112 217.665 260.458C218.806 259.803 220.214 259.754 221.499 260.038ZM230.32 46.4386C230.408 116.246 232.012 186.052 235.129 255.79L235.457 263L235.507 260.681C235.596 255.26 235.517 249.838 235.438 244.417C234.507 180.874 233.576 117.332 232.646 53.7894C232.607 51.1289 232.397 48.1007 230.32 46.4386ZM330.166 249.83C331.021 250.086 331.879 250.475 332.434 251.174C332.988 251.873 333.147 252.948 332.598 253.652C332.067 254.333 331.105 254.462 330.244 254.539L326.572 254.865C325.971 254.918 325.326 254.962 324.804 254.661C324.382 254.417 324.103 253.972 323.975 253.503C323.59 252.088 324.546 250.553 325.869 249.923C327.193 249.293 328.762 249.41 330.166 249.83ZM34.3303 195.186C30.5119 198.938 28.5258 204.124 26.6907 209.153C21.5774 223.166 16.7182 238.04 19.2412 252.742C20.0213 252.885 20.3932 251.824 20.451 251.033C21.4882 236.849 24.3225 222.798 28.8647 209.322C30.5978 204.18 32.6822 198.958 36.5321 195.134C36.4795 194.202 34.9957 194.532 34.3303 195.186ZM503.76 225.841C503.094 226.004 502.663 226.633 502.315 227.223C499.029 232.799 497.482 239.383 497.941 245.839C498.131 248.504 498.988 251.575 501.477 252.546C503.501 250.603 505.525 248.66 507.549 246.717C507.87 246.408 508.2 246.089 508.377 245.68C508.821 244.658 508.186 243.517 507.603 242.567C504.719 237.874 502.553 231.926 504.955 226.968C505.254 226.351 504.426 225.677 503.76 225.841ZM545.814 219.825C545.491 219.993 545.242 220.272 545 220.545C539.026 227.302 533.256 234.239 527.701 241.345C526.541 242.829 525.33 244.502 525.444 246.382C525.545 248.054 526.721 249.51 528.146 250.389C529.571 251.268 531.231 251.669 532.86 252.057C533.296 252.161 533.769 252.262 534.179 252.08C534.556 251.913 534.795 251.543 535.013 251.193C538.414 245.709 541.863 240.117 543.469 233.867C543.812 232.534 544.968 231.604 545.891 230.583C547.705 228.579 548.769 225.911 548.829 223.208C548.85 222.293 548.743 221.327 548.213 220.581C547.684 219.834 546.626 219.401 545.814 219.825ZM400.308 246.572C401.131 246.776 402.039 247.088 402.408 247.852C403.059 249.197 401.532 250.6 400.104 251.042C398.997 251.384 397.764 251.503 396.702 251.039C395.64 250.575 394.835 249.404 395.075 248.271C395.503 246.259 398.312 246.077 400.308 246.572ZM222.862 243.634C223.25 243.982 223.61 244.392 223.758 244.892C224.054 245.899 223.351 247.01 222.386 247.424C221.422 247.838 220.295 247.678 219.323 247.281C218.299 246.864 217.302 246.066 217.172 244.968C217.023 243.713 218.161 242.557 219.412 242.376C220.663 242.194 221.92 242.79 222.862 243.634ZM333.588 232.596C334.586 233.003 334.69 234.513 334.001 235.343C333.313 236.172 332.164 236.448 331.09 236.539C330.016 236.629 328.905 236.59 327.901 236.983C326.359 237.587 324.681 235.723 325.048 234.108C325.416 232.493 327.15 231.489 328.805 231.412C330.459 231.335 332.054 231.971 333.588 232.596ZM398.597 230.167C400.012 230.236 401.412 230.608 402.675 231.25C403.224 231.528 403.79 231.913 403.946 232.508C404.267 233.733 402.731 234.574 401.487 234.812C400.385 235.024 399.267 235.15 398.145 235.189C396.761 235.237 395.09 234.97 394.539 233.699C394.11 232.712 394.632 231.502 395.509 230.878C396.386 230.254 397.522 230.114 398.597 230.167ZM489.855 139.758C481.597 141.091 473.301 142.195 464.982 143.07C458.956 143.703 453.28 147.122 449.902 152.153C449.208 153.187 448.73 154.836 449.802 155.47C452.834 151.972 456.951 149.426 461.435 148.276C463.038 147.865 464.792 147.641 466.304 148.314C467.815 148.988 468.896 150.842 468.212 152.348C467.162 154.662 463.811 154.015 461.275 153.86C454.222 153.43 448.123 161.502 450.462 168.17C452.104 161.805 461.192 159.042 466.285 163.197C471.378 167.352 470.755 176.478 465.308 180.157C463.508 181.372 461.196 182.22 460.375 184.231C459.67 185.955 460.348 187.902 461.024 189.637C462.084 192.361 463.145 195.085 464.205 197.808C466.429 203.519 468.791 209.438 473.291 213.597C476.751 216.796 481.239 218.699 485.817 219.814C502.324 223.837 520.906 217.435 531.43 204.098C532.274 203.029 534.199 204.043 534.349 205.396C534.499 206.749 533.575 207.966 532.659 208.974C527.947 214.161 522.007 218.226 515.465 220.739C512.373 221.928 508.698 223.213 507.747 226.386C506.96 229.014 508.616 231.918 510.994 233.285C513.372 234.653 516.271 234.769 518.998 234.47C524.436 233.876 529.699 231.747 534.021 228.393C535.331 227.377 536.6 226.189 537.182 224.636C537.734 223.165 537.608 221.539 537.474 219.974L537.358 218.629C536.848 212.795 536.187 206.892 533.809 201.557C532.665 198.99 531.134 196.585 530.292 193.904C529.253 190.598 529.315 187.052 528.617 183.657C527.919 180.263 526.151 176.738 522.919 175.486C523.773 173.318 525.903 171.953 527.282 170.074C528.661 168.195 528.863 164.913 526.693 164.064C525.654 163.658 524.472 164.008 523.483 164.522C519.314 166.687 517.064 171.986 518.403 176.489C519.276 179.428 514.633 181.4 512.133 179.624C509.634 177.849 509.017 174.469 508.525 171.443C506.614 159.712 502.779 147.066 492.76 140.672C491.884 140.113 490.881 139.593 489.855 139.758ZM221.986 222.968C223.303 223.395 224.617 224.579 224.342 225.936C224.083 227.219 222.607 227.82 221.316 228.041C219.486 228.354 217.099 227.995 216.585 226.211C216.095 224.513 217.872 222.886 219.63 222.7C220.421 222.616 221.228 222.722 221.986 222.968ZM433.223 198.535C431.995 199.699 431.397 201.36 430.839 202.957C429.58 206.561 428.305 210.269 428.45 214.083C428.543 216.539 427.118 218.75 426.102 220.987C425.085 223.224 424.533 226.089 426.127 227.959C429.934 224.758 430.848 219.369 431.685 214.466C432.686 208.604 434.047 202.528 437.838 197.946C436.511 196.897 434.451 197.371 433.223 198.535ZM332.904 214.871C333.884 215.186 334.994 215.816 335.006 216.846C335.02 218.098 333.479 218.673 332.248 218.899C331.63 219.012 331.013 219.125 330.395 219.238C328.822 219.525 327.136 219.802 325.673 219.154C324.211 218.506 323.237 216.532 324.192 215.249C324.809 214.419 325.945 214.193 326.978 214.129C328.976 214.005 330.998 214.258 332.904 214.871ZM189.836 196.79C191.557 197.614 193.483 199.236 192.846 201.035C175.11 197.168 156.163 199.08 139.558 206.413C132.087 209.712 125.073 214.075 117.34 216.705C114.695 217.605 111.807 218.296 109.134 217.48C106.462 216.664 104.233 213.828 105.015 211.145C105.748 208.627 108.553 207.43 111.037 206.589C123.282 202.443 135.741 198.928 148.347 196.06C162.101 192.932 177.111 190.704 189.836 196.79ZM444.491 196.578C443.225 196.573 442.16 197.502 441.327 198.456C439.307 200.77 437.871 203.546 436.804 206.426C435.477 210.004 434.692 213.783 434.485 217.593C438.152 211.285 442.073 205.124 446.235 199.13C446.957 198.09 445.757 196.583 444.491 196.578ZM422.019 207.816C421.672 207.818 421.305 207.831 421.012 208.017C420.351 208.436 420.443 209.414 420.639 210.171C421.26 212.572 422.12 214.911 423.203 217.143C423.852 213.998 424.895 210.935 426.299 208.047C424.879 207.885 423.449 207.808 422.019 207.816ZM144.111 199.71C133.613 202.936 123.116 206.163 112.618 209.389C111.364 209.774 109.909 210.369 109.642 211.654C110.495 212.899 112.121 213.428 113.629 213.355C115.137 213.282 116.568 212.703 117.966 212.132C128.616 207.78 139.266 203.429 149.916 199.077C148.014 198.546 145.999 199.13 144.111 199.71ZM254.89 205.599C254.326 206.577 253.152 206.992 252.272 207.699C251.393 208.407 250.877 209.931 251.806 210.573C253.228 209.149 254.649 207.725 256.071 206.302C255.777 205.937 255.35 205.683 254.89 205.599ZM365.651 204.841C373.282 205.636 380.982 206.042 388.625 205.383C390.603 205.213 392.968 205.133 394.141 206.734C392.66 208.243 390.331 208.425 388.218 208.515C380.285 208.855 372.351 209.195 364.417 209.535C362.869 209.601 360.909 209.404 360.407 207.939C360.012 206.785 360.91 205.512 362.038 205.049C363.166 204.586 364.438 204.715 365.651 204.841ZM483.622 196.504C485.468 198.75 486.143 201.909 485.374 204.713C485.184 205.405 484.907 206.084 484.464 206.649C483.304 208.13 481.161 208.568 479.33 208.13C477.5 207.691 475.932 206.526 474.535 205.264C473.095 203.964 471.745 202.482 471.054 200.669C470.363 198.857 470.443 196.651 471.669 195.148C472.68 193.909 474.312 193.314 475.907 193.198C478.806 192.985 481.776 194.258 483.622 196.504ZM226.388 201.725C227.117 202.314 226.995 203.538 226.373 204.238C225.75 204.939 224.801 205.238 223.891 205.465C222.817 205.733 221.688 205.942 220.611 205.686C219.535 205.43 218.525 204.595 218.392 203.496C218.2 201.902 219.869 200.655 221.455 200.404C223.186 200.131 225.025 200.623 226.388 201.725ZM475.173 197.033C474.365 198.079 474.896 199.968 476.207 200.147C477.72 200.354 478.898 201.944 478.654 203.452C478.462 204.636 479.906 205.625 481.052 205.27C482.197 204.914 482.86 203.63 482.835 202.431C482.809 201.232 482.237 200.114 481.588 199.106C480.873 197.994 479.998 196.914 478.791 196.372C477.585 195.831 475.982 195.986 475.173 197.033ZM471.143 89.5369C460.142 91.5518 449.245 96.3569 442.149 105.002C435.054 113.646 432.6 126.584 438.147 136.295C440.107 139.727 443.1 142.72 446.863 143.928C450.626 145.136 455.177 144.247 457.687 141.194C460.535 137.732 466.285 141.053 470.571 139.739C476.499 137.921 482.661 136.866 488.857 136.608C490.326 136.547 491.841 136.538 493.212 137.07C494.7 137.647 495.876 138.804 497.007 139.93C500.929 143.837 504.931 147.858 507.252 152.883C510.934 160.853 510.023 170.57 514.674 178.016C515.217 173.347 515.761 168.678 516.305 164.009C516.506 162.276 516.731 160.477 517.667 159.006C518.604 157.534 520.476 156.502 522.115 157.097C525.007 158.148 528.018 159.276 530.094 161.547C532.169 163.818 532.937 167.604 530.942 169.946C529.014 172.209 531.201 175.48 532.225 178.272C533.999 183.108 531.913 188.634 533.308 193.593C534.463 197.7 537.8 200.767 540.988 203.603C541.92 204.433 543.008 205.317 544.25 205.203C545.291 205.109 546.127 204.333 546.837 203.567C551.074 199 553.976 193.209 555.099 187.081C555.551 184.609 554.692 181.007 552.201 181.344C552.882 175.412 558.335 171.371 561.537 166.331C564.991 160.896 565.807 154.212 565.965 147.774C566.124 141.304 565.492 134.272 561.18 129.445C555.999 123.646 545.933 123.212 540.273 128.545C538.862 129.874 537.003 131.631 535.32 130.669C536.639 128.303 537.958 125.936 539.277 123.57C541.427 119.713 543.622 115.717 544.059 111.324C544.922 102.655 538.323 94.4477 530.162 91.3993C522.002 88.3509 512.789 89.6149 504.604 92.5963C502.552 93.3436 500.128 94.9486 500.685 97.06C501.007 98.2826 502.245 99.0208 502.881 100.114C503.277 100.796 503.237 101.014 502.789 101.565C502.519 101.899 502.031 102.863 501.594 102.675C496.953 97.3002 491.934 91.6733 485.13 89.6407C480.62 88.2934 475.773 88.6889 471.143 89.5369ZM418.437 200.384C417.857 200.041 416.746 199.815 416.854 200.48C417.168 202.108 418.634 203.319 420.215 203.817C421.797 204.315 423.494 204.231 425.15 204.142C425.797 204.107 426.488 204.057 427.004 203.663C427.436 203.333 427.672 202.815 427.892 202.318C428.269 201.466 428.646 200.614 429.023 199.763C425.946 197.76 421.595 202.256 418.437 200.384ZM329.585 194.823C330.879 194.92 332.164 195.146 333.413 195.496C334.496 195.8 335.74 196.434 335.794 197.557C335.864 199.035 333.941 199.639 332.466 199.767C330.965 199.896 329.464 200.026 327.964 200.156C326.87 200.25 325.633 200.299 324.829 199.551C323.749 198.548 324.185 196.601 325.354 195.704C326.523 194.806 328.115 194.713 329.585 194.823ZM364.685 194.502C371.864 195.463 379.139 195.694 386.364 195.192C387.212 195.133 388.135 195.084 388.833 195.568C389.531 196.053 389.705 197.302 388.943 197.678C388.712 197.792 388.446 197.804 388.188 197.814C379.454 198.143 370.719 198.473 361.984 198.803C361.188 198.833 360.311 198.837 359.698 198.327C358.602 197.414 359.231 195.462 360.489 194.787C361.746 194.113 363.271 194.313 364.685 194.502ZM434.383 187.387C431.594 187.538 428.756 187.796 426.181 188.878C423.606 189.959 421.297 191.994 420.528 194.679C420.372 195.224 420.314 195.894 420.732 196.277C421.057 196.575 421.547 196.579 421.988 196.562C426.62 196.38 431.233 195.69 435.716 194.509C437.945 193.922 440.631 192.505 440.33 190.22C440.171 189.017 439.133 188.076 437.987 187.678C436.841 187.28 435.594 187.322 434.383 187.387ZM112.668 187.051C112.223 189.405 112.114 191.821 112.346 194.205C112.922 194.827 113.68 193.612 113.631 192.766C113.52 190.833 113.196 188.913 112.668 187.051ZM261.83 184.173C277.887 184.899 293.944 185.624 310.002 186.35C311.5 186.418 313.492 186.992 313.403 188.489C311.487 189.72 309.014 189.465 306.752 189.202C292.438 187.534 277.958 187.304 263.599 188.515C262.359 188.62 261.043 188.721 259.936 188.152C258.83 187.584 258.116 186.068 258.835 185.052C259.463 184.163 260.743 184.124 261.83 184.173ZM222.894 182.489C223.6 182.596 224.336 182.78 224.849 183.277C226.023 184.414 225.298 186.575 223.887 187.399C222.476 188.223 220.728 188.107 219.101 187.966C217.314 187.812 216.735 185.132 217.908 183.777C219.081 182.421 221.121 182.221 222.894 182.489ZM279.369 176.55C305.538 177.907 331.707 179.265 357.877 180.622C359.278 180.695 361.133 181.234 361.06 182.636C356.744 183.413 352.275 183.327 347.993 182.383L351.796 185.655C349.983 186.798 348.052 187.978 345.909 188.025C343.767 188.073 341.435 186.493 341.495 184.351C342.579 183.851 343.663 183.351 344.748 182.851C323.607 181.039 302.369 180.378 281.157 180.872C279.933 180.9 278.627 180.911 277.593 180.255C276.559 179.599 276.036 178.003 276.892 177.128C277.504 176.502 278.494 176.504 279.369 176.55ZM448.819 180.049C447.876 180.101 447.076 180.727 446.345 181.325C445.479 182.034 444.612 182.743 443.746 183.452C442.838 184.194 441.855 185.081 441.802 186.252C441.773 186.888 442.257 187.643 442.877 187.5C443.05 187.46 443.2 187.355 443.346 187.253C445.41 185.797 447.473 184.341 449.537 182.886C449.958 182.589 450.408 182.252 450.544 181.756C450.794 180.845 449.762 179.998 448.819 180.049ZM480.921 172.424C481.003 174.547 479.949 176.536 479.574 178.627C479.199 180.718 479.913 183.381 481.981 183.87C482.59 184.015 482.767 184.887 482.423 185.411C482.079 185.934 481.428 186.16 480.811 186.272C478.896 186.62 476.628 186.005 475.748 184.269C475.307 183.4 475.273 182.389 475.248 181.415C475.181 178.806 475.114 176.198 475.047 173.59C475.002 171.807 475.201 169.611 476.833 168.891C478.777 168.034 480.839 170.301 480.921 172.424ZM452.455 184.256C452.077 184.432 451.82 184.84 451.824 185.256L451.73 185.281C451.94 185.746 452.693 185.818 452.988 185.402C453.282 184.985 452.963 184.299 452.455 184.256ZM448.844 170.624C447.978 170.646 447.01 170.803 446.498 171.502C445.951 172.249 446.172 173.345 446.735 174.081C447.297 174.817 448.125 175.29 448.899 175.8C452.155 177.948 454.754 181.076 456.269 184.671C457.3 183.314 458.33 181.958 459.361 180.602C460.13 179.589 460.941 178.43 460.779 177.169C460.662 176.257 460.05 175.491 459.4 174.841C456.646 172.086 452.738 170.525 448.844 170.624ZM116.943 149.641C115.733 149.74 115.106 151.099 114.725 152.252C114.145 154.009 113.566 155.766 112.986 157.523C112.353 159.443 111.715 161.384 111.541 163.398C111.426 164.732 111.517 166.075 111.608 167.412C111.893 171.586 112.178 175.76 112.462 179.933C112.517 180.74 113.131 181.855 113.799 181.398C113.522 170.736 114.581 160.041 116.943 149.641ZM459.262 164.988C458.163 165.407 456.996 166.142 456.837 167.307C456.678 168.472 458.393 169.553 459.058 168.583C459.907 167.346 462.029 167.992 462.731 169.318C463.432 170.645 463.226 172.239 463.216 173.74C463.205 175.24 463.55 176.961 464.858 177.696C465.078 175.689 465.297 173.682 465.516 171.675C465.787 169.198 465.771 166.125 463.593 164.912C462.29 164.186 460.656 164.457 459.262 164.988ZM494.539 163.854C496.322 163.934 498.226 164.555 499.202 166.05C500.177 167.545 499.659 169.994 497.941 170.475C495.489 171.162 493.195 167.706 490.797 168.564C489.298 169.101 488.372 171.21 486.809 170.907C485.839 170.72 485.302 169.558 485.495 168.59C485.688 167.621 486.411 166.846 487.185 166.232C489.248 164.598 491.91 163.737 494.539 163.854ZM221.48 162.089C223.199 162.367 224.882 164.249 223.976 165.736C223.722 166.153 223.308 166.45 222.876 166.677C221.804 167.241 220.481 167.433 219.374 166.941C218.268 166.449 217.489 165.172 217.789 163.999C218.165 162.524 219.978 161.846 221.48 162.089ZM497.335 152.303C498.518 153.428 499.44 155.546 498.115 156.5C496.714 157.51 495.036 155.805 493.696 154.717C492.198 153.501 490.169 152.964 488.266 153.28C487.048 153.483 485.902 154.012 484.681 154.189C483.459 154.366 482.038 154.086 481.372 153.047C480.673 151.958 481.118 150.416 482.079 149.549C483.041 148.683 484.376 148.366 485.665 148.248C489.893 147.861 494.258 149.378 497.335 152.303ZM221.421 148.856C222.477 149.475 223.045 150.934 222.458 152.007C221.682 153.425 219.647 153.406 218.078 153.016C217.513 152.876 216.918 152.69 216.544 152.244C215.651 151.179 216.653 149.509 217.899 148.894C218.996 148.352 220.366 148.237 221.421 148.856Z" fill="#0F0F0F"/>
<path fill-rule="evenodd" clip-rule="evenodd" d="M79.7519 291.483C79.8961 291.884 80.0294 292.332 79.8645 292.724C79.5686 293.428 78.6051 293.456 77.8415 293.45C72.4703 293.407 67.4766 298.02 67.0952 303.378C67.0549 303.944 66.277 304.203 65.7737 303.941C65.2704 303.679 65.0114 303.113 64.8373 302.572C63.856 299.528 64.4883 296.115 66.0526 293.325C67.617 290.534 70.0377 288.309 72.6674 286.487C73.6875 285.781 74.9578 285.102 76.1119 285.558C76.8745 285.86 77.3727 286.587 77.7879 287.294C78.5701 288.626 79.2285 290.03 79.7519 291.483ZM76.632 290.874C76.1593 289.427 74.2406 288.908 72.8074 289.419C71.3742 289.93 70.3292 291.148 69.3539 292.316C68.4293 293.424 67.462 294.632 67.353 296.07C69.8245 293.453 73.1087 291.613 76.632 290.874Z" fill="#CFC9F3"/>
</svg>
