<svg width="701" height="674" viewBox="0 0 701 674" fill="none" xmlns="http://www.w3.org/2000/svg">
<path d="M614.487 499.299C610.32 580.563 545.209 654.205 465.395 670.045C385.581 685.886 298.229 643.753 259.339 572.278C255.047 564.39 251.225 556.117 247.404 547.845C237.538 526.489 227.675 505.14 209.74 490.451C189.263 473.678 162.927 469.192 136.326 464.661C119.434 461.784 102.435 458.888 86.761 452.817C48.977 438.181 19.6396 403.508 11.4615 363.822C-1.79128 299.511 40.187 233.85 96.1666 199.531C152.146 165.211 219.413 155.652 284.662 148.287C309.621 145.47 329.896 126.66 344.377 106.136C349.983 98.1906 355.027 89.8415 360.067 81.4985C368.046 68.2909 376.015 55.0988 386.191 43.5474C429.279 -5.36538 509.518 -13.6192 564.401 21.552C619.283 56.7232 645.552 129.045 630.957 192.575C628.443 203.517 624.875 214.172 621.307 224.827L621.306 224.829C617.89 235.029 614.474 245.229 611.982 255.683C606.657 278.028 605.64 301.152 605.034 324.115C604.311 351.493 604.141 378.943 606.705 406.211C607.597 415.697 608.819 425.17 610.042 434.642C612.819 456.165 615.596 477.678 614.487 499.299Z" fill="#F1FEA1"/>
<path d="M284.571 128.878C314.414 114.032 338.166 88.248 353.124 58.4605C355.085 54.5549 356.943 50.4051 356.875 46.0352C356.806 41.6654 354.263 37.0368 350.036 35.927C343.978 34.3366 338.769 40.1448 334.991 45.1404C309.041 79.4578 271.27 106.399 228.648 112.274C212.279 114.531 195.659 113.683 179.157 112.831L153.381 111.5C132.621 110.428 111.572 109.378 91.2511 113.759C70.93 118.139 51.0737 128.675 39.9127 146.213C36.3602 151.795 33.6992 158.373 34.6822 164.917C35.6894 171.622 40.4558 177.313 46.1972 180.921C51.9385 184.528 58.6087 186.333 65.2191 187.843C70.0589 188.949 75.0022 189.928 79.9545 189.58C88.051 189.01 95.3984 184.984 102.547 181.066C103.024 180.805 103.499 180.545 103.974 180.286C116.469 173.469 129.416 167.415 142.92 162.917C162.613 156.358 183.319 153.148 203.975 149.946C231.801 145.632 259.535 141.333 284.571 128.878Z" fill="#F1FEA1"/>
<path d="M129.377 524.395L129.395 524.396C130.611 524.444 131.827 524.493 133.039 524.556C152.216 525.553 171.193 530.255 188.617 538.325C195.261 541.402 201.989 545.253 205.721 551.552C210.338 559.347 215.88 566.593 222.193 573.089C224.643 575.609 227.295 578.074 230.565 579.362C233.836 580.649 237.874 580.531 240.527 578.227C243.75 575.427 243.959 570.455 242.966 566.303C241.338 559.498 237.278 553.568 233.26 547.84C220.075 529.044 206.194 510.251 187.845 496.449C169.496 482.648 145.816 474.291 123.357 479.059C115.602 480.705 107.916 484.06 102.775 490.095C97.6332 496.129 95.6014 505.211 99.3044 512.22C102.242 517.781 108.197 521.203 114.295 522.745C119.209 523.987 124.298 524.191 129.376 524.395H129.377Z" fill="#F1FEA1"/>
<path d="M648.086 241.686C642.959 239.753 637.153 242.087 632.814 245.432C624.244 252.039 619.174 262.374 616.867 272.946C614.56 283.518 614.746 294.454 614.944 305.274L616.638 398.235C616.762 405.026 617.064 412.346 621.24 417.703C622.547 419.379 624.336 420.851 626.451 421.067C629.014 421.328 631.385 419.71 633.236 417.918C643.358 408.117 644.687 392.679 645.899 378.608L645.943 378.097C647.723 357.441 650.806 336.898 655.167 316.63C656.393 310.93 657.741 305.194 660.306 299.959C668.348 283.546 666.425 262.711 655.514 248.048C653.54 245.396 651.179 242.852 648.086 241.686Z" fill="#F1FEA1"/>
<path d="M464.456 367.515C469.865 369.005 474.71 373.509 475.242 379.095C476.267 376.873 478.521 375.267 480.956 375.023L477.421 378.78L481.894 378.869L475.739 382.306C479.555 389.363 478.937 398.068 476.491 405.708C474.994 410.385 472.828 415.07 473.251 419.962C473.666 424.774 477.939 429.689 482.61 428.705L482.844 428.65C488.458 427.232 494.605 428.053 499.65 430.895C506.898 434.979 511.295 442.562 516.277 449.225C520.675 455.107 525.88 460.577 532.386 463.984C538.892 467.392 546.869 468.517 553.647 465.687C557.01 464.284 560.021 461.96 563.589 461.22C567.157 460.481 570.813 462.465 572.124 465.846C572.704 467.342 571.458 472.885 568.282 479.359C568.798 479.211 569.338 479.115 569.904 479.078C586.596 477.995 603.442 474.366 617.806 465.796C622.373 463.071 626.638 459.879 630.873 456.661L633.34 454.78L634.834 453.63C644.126 446.432 653.299 438.407 657.12 427.459L657.319 426.869L657.742 425.575C658.56 423.126 659.596 420.593 661.961 419.833C665.234 418.78 668.215 421.948 670.204 424.753L684.541 444.965C684.91 445.484 685.286 446.021 685.427 446.642C686.048 449.389 681.948 450.777 679.306 449.802C674.501 448.028 670.645 442.744 665.605 443.65C662.061 444.288 659.944 447.718 658.193 450.95L657.75 451.775C647.141 471.639 629.288 487.53 608.328 495.766C602.926 497.889 597.343 499.515 591.77 501.139L580.51 504.419L582.494 504.772C599.294 507.719 617.219 509.517 632.476 502.071C642.633 497.115 650.459 488.582 657.841 479.958L660.519 476.81L661.624 475.495C666.154 470.06 670.459 464.242 671.781 457.355C672.289 454.71 675.627 453.448 678.224 454.165C680.82 454.881 682.796 456.935 684.635 458.903L698.573 473.821C699.671 474.996 700.826 476.293 700.987 477.893C701.148 479.494 699.713 481.305 698.169 480.856L683.055 476.466C681.638 476.055 680.068 475.652 678.733 476.283C677.71 476.767 677.05 477.758 676.465 478.736L660.216 506.175C655.641 513.901 647.162 518.381 638.831 521.731C618.852 529.766 597.172 533.541 575.653 532.732C573.316 532.644 570.976 532.503 568.666 532.138C559.986 530.771 552.146 526.357 544.555 521.892C545.886 526.76 544.7 530.866 536.796 531.178C529.794 531.454 512.644 502.626 507.311 501.131C478.2 492.968 473.42 476.853 464.068 465.846C464.068 465.846 445.168 468.289 432.689 465.687C403.439 459.589 383.782 440.83 376.696 439.636C369.609 438.442 364.936 442.984 362.748 440.229L362.748 438.232C363.086 437.684 366.473 434.519 376.133 436.575C389.623 439.445 411.187 450.279 427.655 452.302C444.943 454.427 459.587 451.615 459.506 451.143C459.342 450.18 463.687 446.09 460.215 444.024C456.744 441.959 406.341 421.73 395.385 404.871L395.254 404.661C393.371 401.534 391.94 393.765 395.73 397.322L396.791 395.44C400.872 399.289 414.271 408.086 428.19 416.758C442.906 425.928 463.687 431.8 464.068 431.543C472.537 425.814 465.025 421.668 463.623 420.45C460.343 417.6 455.986 416.046 453.159 412.746C446.377 404.829 451.221 390.667 443.469 383.696C442.297 382.642 440.874 381.812 440.024 380.483C438.568 378.206 439.284 375.038 441.047 372.99C442.811 370.942 445.39 369.798 447.941 368.907C453.238 367.058 459.046 366.025 464.456 367.515Z" fill="white"/>
<circle cx="469" cy="408" r="2" fill="#CFC9F3"/>
<ellipse cx="456.806" cy="408" rx="1.48322" ry="2" fill="#CFC9F3"/>
<path d="M384.328 417.692C365.734 412.884 346.19 411.774 327.171 414.447C328.609 407.339 330.411 400.304 332.566 393.379C326.377 395.376 319.071 389.704 319.471 383.214C319.871 376.723 327.819 371.992 333.715 374.734C335.741 370.061 335.869 364.597 334.066 359.833C333.2 357.548 336.649 356.229 339.093 356.229L352.595 356.226C354.482 356.225 357.114 355.349 356.645 353.521C355.533 349.185 358.514 344.232 362.866 343.184C367.138 342.156 371.947 345.081 373.051 349.321L373.109 349.557C374.133 354.111 379.901 355.556 384.567 355.467L386.89 355.411C390.926 355.326 395.132 355.457 397.833 358.28C401.064 361.656 400.342 367.033 399.277 371.617L399.205 371.921C397.697 378.283 396.088 384.622 394.38 390.934C397.697 417.626 389.483 419.025 384.328 417.692Z" fill="white"/>
<path d="M229.236 395.406C227.265 382.577 227.268 369.446 229.244 356.617L229.344 355.997C229.835 353.085 230.696 350.012 233.129 348.408C234.95 347.207 237.25 347.117 239.444 347.116L256.239 347.163C257.003 347.165 257.841 347.193 258.416 347.697C258.99 348.201 258.975 349.358 258.238 349.563C256.479 350.05 255.468 352.079 255.681 353.892C255.895 355.704 257.074 357.274 258.458 358.464C261.759 361.302 266.891 362.31 270.545 359.944C274.199 357.578 275.058 351.482 271.596 348.844C279.441 348.684 287.29 348.709 295.134 348.918L298.075 349.005C299.026 349.035 300.077 349.111 300.741 349.792C301.24 350.303 301.404 351.046 301.516 351.751C302.385 357.182 301.435 362.887 298.854 367.743C298.443 368.516 297.491 369.368 296.842 368.78C294.086 366.278 289.451 366.618 286.631 369.048C283.81 371.478 282.72 375.513 283.219 379.202C283.698 382.752 286.286 386.544 289.865 386.365C292.683 386.224 295.817 383.76 297.946 385.611L294.358 401.642C293.721 404.49 292.577 407.868 289.723 408.478C273.249 412.002 255.976 411.736 239.618 407.706L238.824 407.505C236.839 406.985 234.862 406.313 233.313 404.987C230.617 402.679 229.775 398.913 229.236 395.406Z" fill="white"/>
<path d="M358.484 269.608L398.295 270.408L398.946 270.424C400.141 270.462 401.346 270.567 402.423 271.069C404.856 272.205 405.972 275.004 406.712 277.586C410.662 291.367 410.174 306.382 405.339 319.877L405.135 320.43C404.506 322.09 403.683 323.745 402.197 324.68C400.973 325.449 399.482 325.609 398.031 325.687L397.721 325.702C391.801 325.983 385.861 325.832 379.963 325.25C383.034 323.359 383.81 318.755 381.86 315.721C379.909 312.687 375.788 311.42 372.319 312.406C370.204 313.006 368.234 314.452 367.469 316.513C366.703 318.574 367.443 321.221 369.398 322.227C370.75 322.923 370.517 325.115 369.333 326.07C368.149 327.025 366.504 327.092 364.984 327.117L345.01 327.441C343.509 327.465 341.93 327.471 340.612 326.752C338.743 325.732 337.883 323.535 337.357 321.472C336.086 316.494 335.914 311.239 336.857 306.188C337.993 310.177 342.908 312.599 346.763 311.07C350.617 309.54 352.535 304.407 350.627 300.725C348.719 297.043 343.419 295.65 339.947 297.917L339.803 296.63C339.304 292.119 338.917 287.55 339.784 283.107C340.732 278.241 343.439 273.463 347.876 271.252C351.112 269.639 354.849 269.55 358.484 269.608Z" fill="white"/>
<path d="M237.741 314.39C232.135 314.412 226.528 314.181 220.943 313.699L220.401 313.649C218.4 313.449 216.303 313.049 214.992 311.562C213.224 309.554 213.655 306.527 214.187 303.879L214.24 303.616C216.614 291.996 217.546 280.082 217.011 268.235L216.911 266.192C216.762 262.519 216.997 258.354 220.048 256.465C220.977 255.89 222.054 255.623 223.129 255.407L223.486 255.336C243.023 251.53 263.364 251.916 282.742 256.459C285.294 257.058 286.004 260.514 285.158 262.995C284.312 265.475 282.494 267.56 281.815 270.091C281.135 272.622 282.381 276.049 285 276.131C290.452 276.302 295.073 281.84 294.34 287.245C293.608 292.65 287.766 296.749 282.418 295.676C281.163 295.424 280.719 297.279 280.857 298.552L282.383 312.661C282.632 314.964 279.364 315.691 277.055 315.511L263.582 314.463C261.465 314.298 258.626 314.663 258.3 316.761C257.488 321.985 252.132 326.063 246.881 325.458C241.629 324.852 237.343 319.661 237.741 314.39Z" fill="white"/>
<path fill-rule="evenodd" clip-rule="evenodd" d="M201.476 401.222C202.971 401.586 205.111 402.231 204.992 403.645C202.6 432.136 192.302 426.893 183.119 435.062C180.693 437.22 179.243 442.326 178.2 442.443C182.065 444.228 187.673 451.388 197.325 451.716C224.217 452.627 234.006 433.005 234.006 433.005C234.638 426.713 231.447 415.382 235.43 418.555C238.179 420.745 237.636 410.075 241.391 411.137C242.52 411.457 240.549 418.551 241.391 418.975C241.857 419.21 242.546 417.275 243.747 415.737C244.749 414.454 246.294 413.504 246.613 413.784C246.83 413.974 246.622 415.808 245.72 417.359C244.453 419.54 242.333 421.638 242.629 421.988C242.956 422.373 248.546 417.171 248.887 417.625C251.149 420.643 236.822 455.372 212.646 461.929L210.732 462.443C196.639 466.187 190.721 466.698 177.664 461.929C171.473 459.667 167.622 480.789 164.181 487.819C162.008 492.257 151.454 503.136 146.635 499.846C140.276 495.506 135.092 487.427 129.681 483.34L129.333 483.085C125.645 480.441 117.305 476.428 104.311 471.048L104.896 470.777C107.607 469.545 114.59 466.532 119.952 461.929C127.57 455.388 131.696 441.338 137.007 433.761C142.251 426.28 149.287 427.382 145.04 426.058C145.04 426.058 134.28 420.357 129.333 419.835C112.812 418.092 91.2755 425.9 84.3859 430.931C74.9325 437.835 84.3249 447.995 71.2629 443.015C66.9095 441.356 78.5776 419.855 94.6725 411.137C117.044 399.02 138.197 395.687 159.404 414.976C168.035 422.826 168.89 429.814 171.204 435.142L170.73 433.837C196.314 432.15 157.981 406.536 189.984 400.126C193.345 399.453 196.872 400.154 200.241 400.933L201.476 401.222Z" fill="white"/>
<circle cx="185" cy="419" r="2" fill="#CFC9F3"/>
<circle cx="196" cy="423" r="2" fill="#CFC9F3"/>
<path fill-rule="evenodd" clip-rule="evenodd" d="M79.8936 496.563C101.572 511.574 73.835 490.84 97.5213 515.549C102.305 520.539 126.523 492.041 129.021 508.93C129.932 515.091 127.945 521.503 129.157 527.612C130.287 533.311 155.078 529.89 156.992 527.397C163.934 518.36 142.331 495.146 137.802 491.435C112.525 470.729 104.184 472.165 80.5656 493.589L79.8936 496.563Z" fill="white"/>
<path fill-rule="evenodd" clip-rule="evenodd" d="M643.836 121.354C648.088 121.863 652.042 122.335 652.042 117.379C652.042 116.2 637.731 105.842 633.491 109.831C628.038 114.961 623.707 120.843 619.513 126.541C610.706 138.502 602.499 149.65 585.765 151.311L585.563 151.333C579.077 152.116 591.162 157.873 604.734 151.311C614.065 146.798 626.48 132.522 632.377 125.742C633.921 123.967 635.017 122.706 635.496 122.268L635.619 122.162C637.629 120.612 640.808 120.992 643.836 121.354ZM664.024 134.767L678.183 146.006C680.942 148.196 677.711 152.914 674.197 153.14C672.158 153.272 670.202 152.644 668.236 152.013C666.814 151.557 665.386 151.099 663.918 150.925C655.603 149.942 649.264 157.773 644.105 164.369C639.392 170.396 634.23 176.073 628.678 181.338L627.927 182.044L627.144 182.764C622.678 186.824 617.668 190.502 611.776 191.562C603.1 193.123 594.481 188.68 587.395 183.438C585.665 182.158 583.967 180.816 582.267 179.473C577.004 175.313 571.732 171.147 565.491 168.812C560.081 171.763 555.019 175.33 550.396 179.398L550.602 179.236C558.363 187.015 563.791 197.094 566.013 207.855L564.528 207.595L563.548 207.428C554.377 205.89 544.556 204.98 536.805 209.887C534.074 211.617 531.638 214.032 529.229 216.42C527.552 218.083 525.889 219.732 524.148 221.128C524.59 221.391 525.043 221.664 525.506 221.948C534.082 225.456 543.172 227.702 552.395 228.593C553.805 228.73 555.23 228.838 556.659 228.946C563.274 229.449 569.975 229.958 575.628 233.279L577.611 234.464C580.793 236.348 584.335 238.141 587.001 235.96C587.768 235.332 588.27 234.473 588.773 233.609L588.774 233.609C589.08 233.083 589.387 232.556 589.756 232.079C590.73 230.818 592.662 229.93 593.873 230.966L594.364 234.82C594.721 232.341 597.113 230.326 599.616 230.395C602.12 230.465 604.396 232.61 604.614 235.105C605.01 239.633 599.875 242.344 595.517 243.785L572.928 251.065C564.857 253.666 555.909 252.319 548.128 248.947C540.884 245.808 534.493 241.03 528.385 236.008L527.032 234.889C522.419 231.051 516.185 226.881 510.952 229.817C520.045 230.37 526.677 238.206 532.1 245.617L532.621 246.333C533.499 247.543 534.403 248.817 534.62 250.296C535.227 254.438 530.523 257.187 526.549 258.503C529.898 260.297 528.238 265.505 525.644 268.279C521.869 272.315 516.926 275.219 511.594 276.658L511.107 278.342C511.076 278.456 511.062 278.515 511.065 278.517C513.58 278.342 515.131 281.721 514.106 284.024C513.082 286.327 510.553 287.554 508.127 288.24C500.133 290.5 491.104 288.717 484.569 283.587L483.299 284.25C477.778 287.107 472.067 289.764 465.931 290.665C459.323 291.635 452.049 290.273 447.272 285.605L447.587 286.293C448.262 287.791 448.869 289.341 448.891 290.974C448.916 292.857 447.942 294.891 446.158 295.495C443.213 296.492 440.641 293.346 439.113 290.639C438.276 292.723 439.139 295.068 439.978 297.348C440.936 299.95 441.862 302.466 440.198 304.414C438.465 306.443 435.177 305.924 432.792 304.727C423.858 300.245 419.66 288.965 421.596 279.159C423.531 269.353 430.582 261.141 438.978 255.718C433.278 251.54 429.108 245.319 427.409 238.458C427.861 239.042 429.882 237.164 432.753 234.495L432.753 234.495C438.005 229.614 446.101 222.089 452.642 222.16C453.895 222.173 455.919 223.142 457.901 224.092L457.901 224.092L457.901 224.092C459.336 224.78 460.749 225.457 461.833 225.753C461.923 225.638 462.032 225.533 462.158 225.441L460.92 224.552C458.43 222.784 455.831 221.121 452.883 220.388C449.444 219.533 445.372 220.236 443.181 223.021C437.823 229.832 431.035 235.512 423.387 239.585L427.921 247.956C426.047 248.851 423.712 248.687 421.973 247.558L421.759 247.412L421.893 247.58C424.505 250.986 422.21 256.924 417.935 257.598C413.597 259.418 409.222 253.981 409.649 249.296C409.949 246.012 411.575 243.102 413.205 240.187C413.9 238.942 414.597 237.697 415.19 236.421C417.196 232.111 418.078 227.323 418.955 222.565C420.156 216.044 421.346 209.581 425.406 204.484C428.25 200.914 432.232 198.431 436.317 196.396C452.527 188.316 471.71 186.384 489.206 191.069C492.186 180.393 498.093 170.549 506.113 162.898L506.591 162.449C509.659 159.622 513.476 157.097 517.545 157.561L517.867 157.604C521.908 158.22 525.42 155.102 528.357 152.216L529.263 151.327L529.972 150.643C535.801 145.076 542.567 139.939 550.53 139.385C557.614 138.892 564.395 142.144 570.509 145.755C577.427 149.841 584.008 154.497 590.162 159.662L591.243 160.579L591.56 160.85L591.912 161.152L592.114 161.326C597.918 166.311 604.268 171.766 611.823 171.314C619.569 170.85 625.227 164.42 630.441 158.496L630.442 158.494L630.445 158.492C630.865 158.014 631.283 157.539 631.699 157.071C638.131 149.831 645.455 143.456 652.868 137.212L656.048 134.542C657.01 133.736 658.046 132.896 659.291 132.734C661.043 132.507 662.64 133.669 664.024 134.767ZM524.03 257.498C522.456 257.185 520.308 257.322 517.587 257.909C519.379 257.916 520.887 257.884 522.112 257.813C522.705 257.74 523.295 257.648 523.875 257.531L524.03 257.498ZM465.726 222.83C466.3 222.241 466.906 221.62 467.578 221.088C468.828 220.429 470.236 220.095 471.654 220.229C476.45 220.685 480.083 225.786 479.455 230.564C476.923 236.838 470.657 240.418 464.459 243.959L464.459 243.96C460.641 246.141 456.85 248.307 453.973 251.08C454.695 249.889 455.485 248.939 456.286 248.355C458.788 246.534 461.403 244.957 463.868 243.469L463.869 243.469C465.941 242.219 467.907 241.033 469.609 239.821C472.288 237.913 474.087 236.101 475.481 234.696L475.482 234.696L475.482 234.696L475.482 234.696L475.482 234.696C476.548 233.622 477.377 232.786 478.182 232.329C478.247 232.292 481.27 226.165 473.963 222.16C468.445 219.136 465.987 222.961 464.666 225.017C464.237 225.684 463.928 226.165 463.674 226.165C463.607 226.165 463.515 226.154 463.4 226.134C463.582 225.482 463.86 224.852 464.215 224.262C464.71 223.872 465.205 223.365 465.726 222.83ZM467.286 221.25C466.031 221.977 464.954 223.033 464.215 224.262L464.033 224.4C463.669 224.664 463.304 224.859 462.928 224.948C462.168 225.127 460.36 223.74 458.828 222.564C457.912 221.862 457.095 221.235 456.66 221.064C453.796 219.941 453.46 219.925 451.474 219.831C451.139 219.815 450.756 219.797 450.306 219.771L449.482 219.719C449.302 219.709 449.103 219.701 448.891 219.692L448.891 219.692L448.891 219.692C447.244 219.623 444.875 219.523 445.348 218.243C453.81 195.34 489.965 190.356 483.987 216.246C483.493 218.386 482.195 220.26 480.897 222.134C480.248 223.071 479.6 224.007 479.051 224.978C476.715 221.658 474.169 219.908 471.414 219.728C469.878 219.627 468.645 220.244 467.578 221.088L467.286 221.25ZM532.868 200.704L532.875 200.691C530.885 204.473 528.748 209.026 526.465 214.348C528.182 209.619 530.333 205.05 532.868 200.704ZM548.988 204.192L548.71 204.202C546.504 204.295 544.525 204.625 542.773 205.193C540.83 205.823 538.761 206.876 536.569 208.352C540.406 206.227 544.646 204.805 548.988 204.192Z" fill="white"/>
<path fill-rule="evenodd" clip-rule="evenodd" d="M436.176 300.112C434.442 302.141 431.93 301.487 429.628 299.243C424.811 294.547 422.876 285.487 424.811 275.68C426.747 265.874 434.291 261.834 442.687 256.411C438.919 254.859 432.094 245.02 431.409 235.459C433.731 238.455 433.853 243.833 436.176 246.83C438.379 249.674 442.783 253.135 444.987 255.979C445.268 256.342 445.511 256.952 445.111 257.179C437.062 261.751 431.846 263.264 427.099 275.68C422.352 288.096 431.99 299.581 433.271 299.243C434.849 298.826 434.29 296.733 433.383 295.376C430.827 291.547 433.259 286.443 435.343 282.338C436.457 283.587 433.778 287.17 434.343 290.895C434.893 294.532 437.719 298.306 436.176 300.112Z" fill="#E7EAEE"/>
<circle cx="469" cy="259" r="2" fill="#CFC9F3"/>
<circle cx="462" cy="251" r="2" fill="#CFC9F3"/>
<path d="M162.911 270.642C164.067 272.8 162.249 275.886 159.801 275.921C157.705 264.135 155.444 251.94 148.622 242.104C135.56 223.271 108.642 217.085 97.4586 197.078C89.8439 202.498 78.2002 201.116 72.0652 194.065C68.2498 189.68 61.5991 189.141 55.8693 190.12C50.1395 191.098 44.5415 193.261 38.7317 193.077C36.2107 192.997 33.464 192.319 31.9968 190.268C30.5296 188.216 31.3772 184.606 33.874 184.248C44.7515 182.691 55.629 181.134 66.5064 179.577C67.3606 179.455 68.2671 179.309 68.9156 178.74C69.6493 178.096 69.8797 177.066 70.07 176.109C71.6447 168.184 72.7793 158.736 66.9436 153.147C62.107 148.515 54.4735 148.675 47.9027 149.967C41.3319 151.26 34.56 153.386 28.0844 151.679C21.6088 149.973 16.1933 142.281 19.6842 136.566C22.0224 132.738 19.386 127.634 15.7793 124.967C12.1727 122.301 7.6843 120.988 4.18849 118.178C0.692688 115.367 -1.52589 109.945 1.25859 106.429C2.48322 104.883 4.40071 104.068 6.28194 103.474C12.5081 101.51 19.4505 101.361 25.4521 103.93C31.4537 106.5 36.3274 112.008 37.3041 118.463C38.0997 123.722 36.5879 129.84 40.0644 133.865C44.6096 139.128 53.0104 136.176 59.964 136.113C67.0759 136.048 74.1086 139.819 77.9905 145.778C81.8724 151.738 82.4788 159.694 79.545 166.173C87.8059 157.768 98.9323 151.32 110.709 151.759C121.587 152.165 131.582 158.422 138.857 166.519C146.132 174.616 151.095 184.477 155.962 194.214C157.775 197.842 162.374 199.808 166.249 198.612C170.124 197.416 172.815 193.2 172.269 189.182C175.646 189.918 175.998 194.483 176.102 197.938C176.32 205.197 178.949 212.363 183.476 218.042C184.99 215.248 186.146 212.261 186.905 209.175C190.209 212.974 191.442 218.472 190.076 223.318C188.71 228.164 184.788 232.209 179.986 233.723C177.431 234.529 174.307 234.916 173.038 237.277C177.83 245.667 181.951 254.439 185.35 263.484C187.173 268.334 188.488 274.574 184.651 278.057C180.216 274.782 177.696 269.588 175.342 264.602C171.672 256.825 168.001 249.048 164.33 241.271" fill="white"/>
<path fill-rule="evenodd" clip-rule="evenodd" d="M175.018 192.794C174.054 202.211 177.579 211.989 184.33 218.626C186.737 217.173 188.276 214.385 188.223 211.574C190.753 215.734 189.335 221.374 186.19 225.09C183.044 228.806 178.531 231.034 174.151 233.16C171.642 234.378 169.036 235.621 166.248 235.704C161.994 235.831 158.183 233.273 154.705 230.82L144.5 223.625C149.772 233.464 161.773 239.193 172.738 237.106C180.364 247.803 185.033 260.586 186.098 273.679L184.048 269.892C184.029 269.846 184.004 269.8 183.973 269.754L184.048 269.892C184.342 270.618 183.19 271.422 182.415 271.046C181.59 270.647 181.278 269.653 181.035 268.77C178.033 257.884 172.653 247.66 165.38 239.022L176.392 262.353C178.745 267.339 181.266 272.533 185.701 275.807C189.537 272.325 188.222 266.085 186.4 261.235C183.001 252.19 178.88 243.418 174.088 235.027C175.118 233.111 177.372 232.495 179.551 231.9L179.551 231.9L179.552 231.9L179.552 231.9L179.552 231.9L179.552 231.9C180.056 231.762 180.556 231.626 181.036 231.474C185.837 229.96 189.76 225.915 191.126 221.069C192.492 216.223 191.259 210.725 187.955 206.926C187.195 210.011 186.04 212.999 184.526 215.793C179.999 210.114 177.37 202.948 177.152 195.689C177.047 192.234 176.696 187.669 173.319 186.933C173.865 190.951 171.174 195.167 167.299 196.363C163.424 197.558 158.825 195.592 157.012 191.965C152.145 182.228 147.182 172.366 139.907 164.269C132.632 156.172 122.637 149.915 111.759 149.51C99.9821 149.071 88.8556 155.519 80.5947 163.924C83.5286 157.445 82.9221 149.488 79.0402 143.529C75.1583 137.57 68.1256 133.799 61.0137 133.864C59.2097 133.88 57.3083 134.091 55.4021 134.302C49.9607 134.906 44.4802 135.513 41.1141 131.616C38.7367 128.863 38.6921 125.132 38.6471 121.366C38.6263 119.625 38.6054 117.876 38.3538 116.214C37.3772 109.759 32.5034 104.251 26.5018 101.681C20.5002 99.1113 13.5578 99.2611 7.33166 101.225C5.45043 101.819 3.53293 102.633 2.30831 104.18C-0.476173 107.696 1.7424 113.118 5.23821 115.928C7.07805 117.407 9.19283 118.472 11.3093 119.537C13.2142 120.496 15.1206 121.455 16.829 122.718C20.4357 125.385 23.0721 130.489 20.734 134.317C17.243 140.032 22.6585 147.724 29.1341 149.43C34.4872 150.841 40.0427 149.632 45.5197 148.441C46.6683 148.191 47.8134 147.942 48.9525 147.718C55.5233 146.426 63.1568 146.266 67.9933 150.898C73.829 156.487 72.6944 165.934 71.1197 173.86C70.9294 174.817 70.699 175.847 69.9653 176.491C69.3168 177.06 68.4103 177.206 67.5561 177.328L34.9237 181.999C32.4269 182.356 31.5793 185.967 33.0465 188.019C34.5137 190.07 37.2604 190.748 39.7814 190.828C43.636 190.95 47.3973 190.039 51.1658 189.126C53.0773 188.663 54.9907 188.2 56.919 187.871C62.6488 186.892 69.2995 187.43 73.1149 191.816C79.2499 198.867 90.8936 200.249 98.5083 194.829C104.393 205.356 114.635 212.057 124.922 218.788C134.184 224.848 143.483 230.932 149.672 239.855C156.494 249.691 158.754 261.886 160.851 273.671C163.299 273.636 165.117 270.551 163.96 268.393L161.66 271.427C160.811 252.852 151.324 234.851 136.482 223.65C132.806 220.876 128.776 218.445 124.754 216.018C115.916 210.687 107.12 205.381 102.226 196.525C101.786 195.727 101.375 194.883 101.304 193.974C101.214 192.825 101.672 191.717 102.114 190.647L102.177 190.495C103.941 186.215 105.173 181.52 104.307 176.973C103.44 172.426 100.017 168.127 95.4397 167.442C103.188 172.399 104.777 184.699 98.5414 191.461C92.3061 198.223 79.9176 197.636 74.3505 190.313C69.8887 184.445 60.967 185.164 53.7856 186.828C46.6042 188.492 38.1474 190.234 32.5998 185.38C44.4685 182.116 56.6815 180.107 68.9702 179.396C71.8976 179.226 73.0459 175.575 73.4402 172.669C74.0463 168.202 74.6525 163.663 73.9884 159.205C73.3244 154.746 71.2052 150.299 67.4218 147.848C62.8785 144.905 57.0133 145.361 51.6296 145.925L37.3225 147.422C34.2397 147.744 31.0715 148.06 28.0826 147.24C25.0937 146.419 22.2814 144.19 21.7083 141.144C21.3464 139.22 21.8972 137.326 22.4524 135.416C22.8522 134.041 23.2543 132.658 23.3198 131.25C23.5065 127.241 20.9169 123.568 17.7703 121.078C15.8424 119.552 13.6941 118.351 11.5439 117.15C10.1846 116.39 8.82455 115.63 7.51882 114.787C5.06104 113.2 2.53925 110.636 3.22263 107.791C3.65966 105.972 5.30586 104.711 6.96088 103.839C12.5488 100.893 19.5333 100.761 25.2288 103.492C30.9244 106.224 35.1933 111.754 36.3941 117.955C36.6904 119.485 36.825 121.083 36.9594 122.678C37.2701 126.366 37.5794 130.037 39.8841 132.809C42.637 136.119 47.3949 136.953 51.6955 136.748C53.17 136.678 54.6444 136.513 56.1176 136.348C58.9411 136.031 61.7601 135.716 64.5673 136.069C74.0065 137.258 81.4435 147.079 80.0286 156.487C79.9504 157.008 79.8497 157.533 79.7486 158.059C79.3884 159.936 79.0248 161.831 79.6658 163.593C80.4867 165.851 84.0771 167.053 85.2147 164.937C90.3121 155.459 102.003 150.683 112.692 151.935C123.382 153.187 132.947 159.623 139.965 167.783C146.983 175.942 151.757 185.761 156.111 195.603C157.644 199.07 162.21 200.325 165.858 199.294C169.506 198.263 172.4 195.536 175.018 192.794ZM155.863 209.313C155.966 209.299 156.207 209.769 156.569 210.479C157.462 212.226 159.093 215.419 161.245 216.391C161.149 217.296 159.726 216.811 159.134 216.12C157.452 214.154 155.667 211.893 155.863 209.313ZM160.941 224.827C162.051 226.455 155.401 227.265 153.19 225.845C153.58 225.77 154.093 225.81 154.661 225.854C155.334 225.906 156.086 225.965 156.799 225.845C157.845 225.669 158.854 225.348 159.616 225.106C160.355 224.871 160.861 224.71 160.941 224.827ZM159.345 218.78C156.697 219.234 153.445 215.708 153.445 212.392C154.208 214.844 156.919 216.789 158.417 217.863C159.179 218.41 159.627 218.732 159.345 218.78ZM168.829 232.647C165.303 232.647 163.705 226.701 165.303 226.319C165.686 226.146 165.704 226.678 165.731 227.465C165.758 228.292 165.796 229.399 166.277 230.262C166.811 231.22 167.941 231.86 168.601 232.234C169.1 232.517 169.33 232.647 168.829 232.647ZM172.757 224.551C173.532 224.977 174.238 225.639 174.438 226.499C174.638 227.36 174.157 228.404 173.292 228.583C173.021 228.185 173.168 227.931 173.323 227.664C173.55 227.272 173.795 226.85 172.757 225.894C172.32 225.491 171.812 225.316 171.455 225.193C171.18 225.099 170.996 225.035 171.003 224.923C171.047 224.208 172.13 224.205 172.757 224.551ZM166.158 216.803C165.983 216.925 165.863 217.008 165.966 217.104C166.285 217.4 166.66 217.542 167.034 217.327C167.32 217.162 167.465 216.83 167.532 216.507C167.908 214.706 166.006 212.845 164.214 213.262C164.373 213.681 164.677 213.815 165.047 213.978C165.474 214.166 165.987 214.392 166.463 215.138C167.106 216.144 166.517 216.554 166.158 216.803ZM165.555 233.784C163.479 233.18 161.426 228.277 162.531 227.905C163.22 227.674 163.217 227.711 163.176 228.099C163.14 228.454 163.073 229.103 163.479 230.109C163.983 231.359 164.69 232.373 165.14 233.019C165.448 233.461 165.636 233.731 165.555 233.784ZM641.077 122.468C636.619 123.016 633.107 126.611 630.891 130.517C629.82 132.406 628.963 134.405 628.106 136.403C627.19 138.538 626.275 140.672 625.099 142.671C619.491 152.21 608.835 157.423 598.623 161.684C596.862 162.419 593.777 162.073 594.327 160.246C611.046 157.074 625.439 143.836 629.997 127.44C630.534 125.509 628.021 123.878 626.083 124.389C624.329 124.851 623.08 126.314 621.953 127.766L621.601 128.223C612.288 140.336 598.919 150.576 583.654 151.238C582.573 151.284 581.027 150.625 581.503 149.654C592.809 149.275 603.467 143.694 611.862 136.112C620.257 128.53 626.659 119.026 632.648 109.429C633.575 107.945 635.799 108.262 637.455 108.827C642.537 110.56 647.412 112.897 651.945 115.774C654.379 117.319 652.451 121.44 649.684 122.248C648.094 122.713 646.434 122.6 644.766 122.487C643.532 122.403 642.293 122.319 641.077 122.468ZM636.735 113.016L636.344 112.898C635.155 112.557 633.826 112.367 632.869 113.106C632.498 113.392 632.233 113.787 631.989 114.19L628.807 119.555C630.477 119.941 632.078 120.626 633.511 121.566C634.682 122.334 636.296 122.364 637.494 121.639C638.693 120.914 639.416 119.471 639.279 118.077C639.228 117.557 640.08 117.416 640.436 117.798C640.702 118.084 640.781 118.476 640.86 118.867C640.887 118.999 640.914 119.131 640.948 119.259C641.082 119.763 641.494 120.307 642.006 120.204C642.525 119.71 642.809 118.979 642.759 118.265C642.945 117.528 644.095 118.185 644.273 118.924C644.451 119.663 644.785 120.714 645.519 120.517C646.598 120.25 646.937 118.747 646.411 117.768C645.886 116.788 644.828 116.235 643.819 115.767C641.519 114.701 639.151 113.782 636.735 113.016ZM627.064 121.738C628.725 123.41 631.142 124.299 633.491 124.103C632.051 122.29 629.602 121.343 627.317 121.694L627.064 121.738ZM508.126 288.24C500.133 290.501 491.103 288.718 484.569 283.588C478.654 286.688 472.539 289.695 465.931 290.665C459.323 291.636 452.048 290.274 447.272 285.606C448.061 287.316 448.865 289.091 448.89 290.974C448.915 292.858 447.941 294.891 446.157 295.496C443.213 296.493 440.64 293.346 439.112 290.639C438.275 292.723 439.139 295.069 439.978 297.349C440.935 299.95 441.862 302.467 440.197 304.415C438.464 306.444 435.176 305.924 432.791 304.728C423.857 300.246 419.66 288.966 421.595 279.16C423.531 269.354 430.581 261.142 438.978 255.719C433.277 251.54 429.107 245.32 427.408 238.459C428.569 239.957 429.431 241.698 430.292 243.438L430.292 243.439C431.153 245.179 432.014 246.92 433.175 248.418C434.277 249.84 435.679 251.019 437.081 252.199L437.081 252.199C438.483 253.378 439.885 254.558 440.987 255.98C441.268 256.343 441.511 256.953 441.111 257.18C433.062 261.751 426.177 269.036 423.893 278.007C421.609 286.977 424.787 297.567 432.669 302.42C434.059 303.275 435.715 303.962 437.293 303.545C438.87 303.129 440.054 301.148 439.148 299.791C436.591 295.963 436.281 290.745 438.364 286.64L444.97 294.047C446.489 293.656 446.864 291.614 446.46 290.098C446.332 289.618 446.156 289.144 445.981 288.671L445.981 288.67C445.604 287.651 445.228 286.636 445.329 285.569C445.477 284.008 447.514 282.612 448.591 283.752C452.886 288.305 459.787 289.596 465.966 288.594C472.144 287.592 477.804 284.626 483.339 281.703L489.871 278.254C489.4 280.138 487.872 281.72 486.006 282.257C492.312 286.787 500.744 288.211 508.188 286.002C509.47 285.621 510.786 285.095 511.617 284.047C512.449 283 512.584 281.296 511.579 280.413C511.456 280.305 511.319 280.21 511.183 280.116C510.914 279.93 510.647 279.746 510.493 279.464C510.261 279.038 510.621 278.322 511.065 278.517C513.58 278.342 515.131 281.721 514.106 284.025C513.081 286.328 510.552 287.554 508.126 288.24ZM463.496 254.806C462.06 254.344 460.449 255.335 459.825 256.708C459.201 258.082 459.378 259.696 459.85 261.128C460 259.512 460.205 258.294 460.817 257.231C461.081 256.773 461.898 256.341 462.615 255.961C463.543 255.47 464.306 255.066 463.496 254.806ZM462.279 250.745C464.374 250.223 466.74 251.03 468.081 252.722C469.421 254.415 469.663 256.904 468.674 258.823C468.437 258.536 468.381 258.016 468.311 257.364C468.103 255.438 467.77 252.36 462.279 250.745ZM460.462 265.627C459.798 266.454 462.108 268.641 465.719 267.133C466.388 266.854 465.842 266.822 464.981 266.771C464.196 266.725 463.15 266.664 462.526 266.386C461.999 266.15 461.728 265.773 461.526 265.49C461.226 265.072 461.075 264.862 460.462 265.627ZM467.779 268.395C470.092 267.242 468.641 270.622 463.8 270.208C463.363 270.17 462.792 270.002 462.797 269.562C462.799 269.407 463.208 269.372 463.845 269.316C464.834 269.23 466.371 269.096 467.779 268.395ZM453.501 261.979C454.372 262.83 455.64 262.852 456.485 262.689C457.001 262.589 457.254 262.128 456.781 261.979C456.671 261.944 456.488 261.915 456.267 261.88C455.765 261.801 455.07 261.692 454.604 261.411C454.305 261.23 454.134 260.614 453.988 260.086C453.838 259.544 453.713 259.093 453.501 259.305C453.082 259.721 452.63 261.128 453.501 261.979ZM454.273 264.856C454.695 265.498 453.089 265.277 452.744 264.856C452.399 264.436 452.059 262.852 452.637 262.852C452.805 262.852 452.862 263.101 452.931 263.4C452.994 263.676 453.067 263.994 453.246 264.197C453.592 264.589 453.824 264.648 453.995 264.691C454.111 264.72 454.198 264.742 454.273 264.856ZM526.493 261.671C527.358 263.4 525.843 265.339 524.383 266.607C518.447 271.761 511.352 275.573 503.778 277.68C511.941 277.735 520.067 274.242 525.643 268.28C528.238 265.505 529.897 260.298 526.549 258.504C530.522 257.188 535.227 254.439 534.62 250.297C534.403 248.818 533.498 247.544 532.621 246.333L532.1 245.618C526.676 238.207 520.044 230.371 510.951 229.818C516.185 226.882 522.419 231.052 527.032 234.89L528.385 236.009C534.492 241.031 540.883 245.808 548.128 248.948C555.909 252.319 564.856 253.667 572.928 251.066L595.516 243.786C599.875 242.344 605.009 239.634 604.613 235.105C604.395 232.61 602.119 230.465 599.616 230.396C597.112 230.326 594.72 232.341 594.364 234.82L593.873 230.967C592.662 229.931 590.73 230.819 589.755 232.08C589.387 232.557 589.079 233.084 588.773 233.609C588.269 234.473 587.768 235.333 587.001 235.96C584.335 238.141 580.792 236.349 577.611 234.465L575.628 233.28C569.974 229.958 563.274 229.449 556.658 228.947C555.229 228.838 553.804 228.73 552.395 228.594C543.172 227.703 534.081 225.456 525.505 221.948C533.37 228.398 543.646 229.48 554.012 230.572C559.235 231.122 564.482 231.675 569.454 232.918C573.398 233.904 577.757 235.914 578.725 239.863C580.13 245.596 573.319 250.037 567.441 250.573C557.827 251.45 548.459 247.362 540.296 242.144L539.377 241.548C536.424 239.609 533.561 237.523 530.699 235.438L530.699 235.438L530.698 235.437C525.447 231.611 520.201 227.788 514.405 224.882C520.391 225.183 524.763 220.849 529.229 216.421C531.637 214.033 534.073 211.618 536.805 209.888C544.832 204.805 555.081 205.963 564.528 207.595L566.012 207.856C563.79 197.094 558.363 187.016 550.602 179.237L563.939 205.456C549.897 200.778 533.057 206.624 524.934 218.996C531.204 197.838 546.119 179.382 565.49 168.812C571.731 171.147 577.004 175.314 582.267 179.474L582.268 179.474L582.268 179.475C583.967 180.817 585.665 182.159 587.394 183.438C594.481 188.681 603.099 193.123 611.775 191.563C618.014 190.441 623.264 186.383 627.926 182.044L628.677 181.339C634.23 176.074 639.391 170.397 644.105 164.369C649.263 157.774 655.602 149.943 663.917 150.926C665.386 151.1 666.813 151.558 668.236 152.014C670.201 152.645 672.157 153.272 674.196 153.141C677.711 152.915 680.941 148.196 678.183 146.007L664.023 134.768C662.639 133.669 661.042 132.507 659.29 132.735C658.045 132.896 657.01 133.736 656.047 134.543L652.867 137.213C645.454 143.457 638.13 149.831 631.698 157.072C631.281 157.541 630.863 158.017 630.441 158.496C625.227 164.421 619.568 170.851 611.823 171.314C604.267 171.766 597.917 166.312 592.114 161.326C591.822 161.076 591.532 160.827 591.243 160.579L590.161 159.663C584.007 154.498 577.427 149.841 570.509 145.756C564.394 142.145 557.614 138.892 550.529 139.385C542.241 139.962 535.25 145.504 529.262 151.327L528.357 152.216C525.42 155.102 521.907 158.221 517.867 157.604L517.545 157.561C513.475 157.098 509.659 159.623 506.591 162.45L506.113 162.898C498.093 170.55 492.185 180.393 489.205 191.07C471.71 186.385 452.526 188.317 436.316 196.396C432.231 198.432 428.249 200.914 425.406 204.484C421.346 209.581 420.155 216.045 418.954 222.566L418.954 222.566C418.078 227.323 417.196 232.111 415.19 236.421C414.596 237.697 413.9 238.943 413.204 240.187C411.575 243.103 409.948 246.012 409.649 249.296C409.221 253.982 413.596 259.419 417.935 257.599C422.281 256.914 424.58 250.787 421.758 247.412C423.517 248.672 425.968 248.888 427.92 247.956L423.386 239.586C431.035 235.513 437.823 229.833 443.181 223.022C445.372 220.237 449.443 219.533 452.882 220.388C455.83 221.121 458.429 222.785 460.92 224.553L462.157 225.442C460.715 226.491 461.546 229.279 463.327 229.368C462.178 224.689 466.857 219.774 471.653 220.23C476.45 220.685 480.082 225.787 479.455 230.564C476.923 236.839 470.656 240.419 464.458 243.96C457.733 247.802 451.089 251.598 449.385 258.74C447.667 265.934 453.216 273.991 460.549 274.953C467.883 275.915 475.321 269.561 475.518 262.167C475.518 262.167 476.603 262.279 476.987 261.128C477.592 259.315 478.166 257.306 478.734 255.315C479.802 251.572 480.852 247.892 482.064 245.694C485.464 239.531 491.793 234.65 498.83 234.48C501.065 234.426 503.286 234.095 505.504 233.764C508.337 233.341 511.167 232.918 514.019 233.075C519.103 233.356 524.676 236.332 525.409 241.371C519.771 240.276 513.889 240.461 508.331 241.908L528.008 244.248C532.329 244.762 533.138 251.453 530.058 254.527C527.154 257.426 522.73 257.902 518.589 258.087L517.84 258.117C518.563 259.594 520.363 259.746 522.164 259.899C523.961 260.052 525.759 260.204 526.493 261.671ZM631.166 175.683C625.066 182.456 617.934 189.735 608.825 190.075C600.86 190.372 593.892 185.239 587.448 180.491L586.972 180.141L585.433 179.016C578.233 173.793 570.775 168.925 563.097 164.435C557.151 160.958 550.312 157.6 543.643 159.324L554.201 162.647C552.42 163.602 551.786 166.2 552.926 167.868C553.17 165.371 556.058 163.783 558.537 164.173C561.015 164.564 563.031 166.383 564.566 168.368C551.257 173.471 539.933 183.575 533.352 196.219C532.128 198.571 531.063 201.004 529.999 203.435C528.556 206.731 527.115 210.024 525.278 213.113C522.087 218.48 517.362 223.363 511.281 224.785C510.43 224.984 509.557 225.114 508.685 225.245C506.937 225.507 505.194 225.768 503.64 226.577C503.504 226.648 503.364 226.723 503.221 226.799L503.099 226.864C501.273 227.839 499.023 229.04 497.898 227.455C496.055 224.859 493.116 223.068 489.964 222.619C495.176 205.108 508.585 190.228 525.46 183.228C526.415 182.832 526.049 181.402 525.527 180.51L517.852 167.375C517.143 166.162 517.973 164.513 519.222 163.869C520.471 163.225 521.96 163.322 523.354 163.496C532.233 164.601 540.781 168.245 547.728 173.884C548.839 174.786 550.66 175.671 551.472 174.493C543.548 166.501 532.212 162.795 521.057 161.302C530.7 160.359 540.671 163.396 548.152 169.553L548.517 169.852C550.304 171.303 552.467 172.845 554.528 171.955C546.174 163.941 534.749 159.212 523.175 158.975C525.557 157.204 527.781 155.235 530.005 153.266L530.006 153.265L530.006 153.265C532.266 151.265 534.525 149.265 536.949 147.472C541.76 143.915 547.512 141.137 553.485 141.486C557.822 141.739 561.889 143.61 565.726 145.648C573.837 149.954 581.474 155.153 588.455 161.119C588.937 161.531 589.422 161.949 589.911 162.369L589.947 162.401C596.583 168.119 603.822 174.357 612.398 173.551C617.627 173.06 622.261 169.901 625.941 166.153C627.977 164.08 629.793 161.809 631.609 159.538L631.611 159.537C633.077 157.703 634.544 155.869 636.127 154.138C638.411 151.641 641.057 149.292 644.304 148.339C647.552 147.385 651.51 148.175 653.439 150.956L631.166 175.683ZM420.996 222.071C422.173 215.635 423.336 209.271 427.685 204.585C429.815 202.291 432.54 200.638 435.314 199.187C449.505 191.765 466.056 188.939 481.905 191.233C485.784 191.794 490.59 193.971 490.528 197.653C490.505 197.879 490.483 198.104 490.463 198.329C490.503 198.099 490.524 197.873 490.528 197.653C492.108 182.255 501.077 167.768 514.181 159.518C515.343 167.622 518.893 175.368 524.273 181.538C510.015 187.543 498.176 199.09 491.817 213.194L491.716 213.417C489.91 217.371 487.045 222.226 482.862 221.241L484.933 208.445C485.123 207.272 485.298 206.001 484.742 204.951C484.121 203.778 482.793 203.238 481.498 202.848L481.044 202.715C473.547 200.593 465.136 198.555 458.289 202.274C454.667 204.242 452.067 207.539 449.635 210.924L447.83 213.46C443.545 219.442 438.748 225.058 433.508 230.224C431.398 232.305 429.116 234.373 426.291 235.269C423.466 236.165 419.955 235.562 418.278 233.118C419.616 229.626 420.308 225.836 420.996 222.071ZM467.202 271.933C462.75 273.584 459.128 272.77 455.654 270.747C454.167 269.881 452.767 268.766 451.929 267.263C450.673 265.009 450.862 262.211 451.586 259.734C452.669 256.032 454.884 252.67 457.858 250.214C459.915 248.516 462.283 247.27 464.65 246.024L464.651 246.023C465.468 245.593 466.285 245.163 467.089 244.715C474.94 240.335 481.713 234.037 486.652 226.524C487.638 225.024 489.716 224.538 491.455 224.981C493.194 225.424 494.643 226.615 495.897 227.899C496.795 228.818 497.46 230.645 496.263 231.108C487.879 234.354 481.127 241.557 478.43 250.133C478.356 250.367 478.285 250.603 478.213 250.84C477.804 252.196 477.389 253.569 476.509 254.667C475.476 255.956 473.402 260.495 474.46 262.647C474.46 262.647 471.653 270.282 467.202 271.933ZM478.833 203.997C480.192 204.302 481.671 204.739 482.416 205.915C483.026 206.878 482.987 208.102 482.892 209.237C482.513 213.73 481.569 218.174 480.088 222.432C479.837 223.152 479.064 224.018 478.501 223.505C477.862 220.281 474.916 217.66 471.641 217.4C468.365 217.14 465.043 219.263 463.903 222.346C463.678 222.954 462.888 223.18 462.262 223.012C461.792 222.886 461.39 222.602 461.007 222.296L460.627 221.986C456.724 218.816 451.442 217.409 446.48 218.217C449.124 213.767 452.477 209.741 456.376 206.336C457.971 204.943 459.701 203.629 461.716 202.976C463.612 202.361 465.649 202.367 467.64 202.468C471.405 202.66 475.154 203.172 478.833 203.997ZM656.78 147.374C654.883 145.351 652.283 143.998 649.536 143.614L652.653 139.655C653.642 138.414 654.796 137.141 656.355 136.946C657.479 136.804 658.585 137.266 659.608 137.753C663.031 139.384 666.257 141.427 669.196 143.824C670.176 144.624 671.163 145.517 671.589 146.709C672.015 147.9 671.672 149.46 670.53 150.005C669.388 150.55 667.742 149.356 668.211 148.18L668.256 148.049C668.448 147.38 668.145 146.591 667.541 146.239L666.437 148.354C666.336 148.539 666.218 148.718 666.036 148.819C665.299 149.226 664.701 148.081 664.653 147.241L664.645 147.125C664.566 146.297 664.132 145.242 663.371 145.5C663.269 146.917 662.255 148.226 660.909 148.68C659.563 149.134 657.964 148.706 657.024 147.641L656.78 147.374ZM419.16 251.796L417.828 246.742C417.195 246.565 416.577 247.2 416.487 247.851C416.427 248.285 416.523 248.715 416.653 249.138L416.859 249.769C417.543 251.914 417.526 254.276 416.811 256.411C415.49 253.709 414.801 250.7 414.814 247.692C413.953 247.219 413.367 248.661 413.429 249.641L413.801 255.491C411.996 253.864 411.359 251.224 411.668 248.814C411.976 246.403 413.108 244.178 414.38 242.107C415.045 241.026 415.78 239.943 416.837 239.241C417.894 238.539 419.349 238.299 420.428 238.966C421.324 239.519 421.741 240.503 422.163 241.5C422.482 242.254 422.804 243.016 423.34 243.606C423.53 243.815 423.751 244.029 423.977 244.246C424.849 245.087 425.781 245.986 425.171 246.892C423.293 245.739 421.575 244.325 420.082 242.704C419.542 246.053 420.037 249.561 421.482 252.63C421.778 253.257 420.801 253.856 420.186 253.534C419.571 253.212 419.337 252.467 419.16 251.796ZM599.544 235.264C600.506 234.413 601.385 233.635 601.811 233.847C603.051 234.465 599.683 237.182 597.899 237.95C598.028 238.811 599.278 238.425 600.008 237.95C600.737 237.475 602.781 236.964 602.381 237.481C599.889 240.704 595.076 243.266 590.628 243.768C588.824 243.971 586.595 243.489 586.02 241.768C585.496 240.197 586.663 238.648 587.897 237.481L588.194 237.208C588.712 236.744 589.545 236.291 590.023 236.797C591.295 238.142 593.517 237.042 594.981 235.91C594.981 235.91 598.786 232.239 599.425 232.474C600.059 232.707 597.526 236.847 597.526 236.847C598.154 236.494 598.869 235.862 599.544 235.264L599.544 235.264ZM581.328 238.672C581.783 238.568 582.258 238.752 582.651 239.004C584.081 239.923 584.764 241.858 584.226 243.47C583.689 245.083 581.982 246.221 580.287 246.098C580.046 246.081 579.795 246.035 579.606 245.884C579.211 245.567 579.261 244.962 579.348 244.463L579.987 240.811C580.142 239.929 580.455 238.87 581.328 238.672ZM500.721 230.38C503.173 229.966 505.711 230.067 508.122 230.676C507.982 231.67 506.821 232.122 505.838 232.325C502.804 232.952 499.668 233.087 496.592 232.724C497.362 231.275 499.103 230.654 500.721 230.38ZM654.422 149.405L647.988 145.606C651.158 145.132 654.539 146.797 656.095 149.599C655.649 150.006 654.942 149.712 654.422 149.405ZM513.431 225.61C510.703 226.332 508.007 227.171 505.351 228.125C508.11 229.65 512.026 228.431 513.431 225.61ZM486.769 222.16C487.519 222.315 487.179 223.497 486.58 223.975C484.757 225.431 481.986 225.557 480.039 224.272L486.769 222.16ZM657.99 134.024C658.432 133.919 658.886 134.098 659.3 134.285C661.987 135.498 664.449 137.209 666.522 139.306L657.275 134.585C657.417 134.307 657.686 134.096 657.99 134.024ZM517.122 159.53L517.213 159.594C518.047 159.474 518.909 159.544 519.712 159.799C519.011 161.124 518.035 162.304 516.864 163.241C516.278 162.079 516.381 160.6 517.122 159.53ZM675.343 146.557L675.362 146.615C676.384 147.03 677.079 148.139 677.008 149.239C674.904 148.148 673.201 146.301 672.282 144.116C673.539 144.551 674.639 145.428 675.343 146.557ZM483.9 227.259L483.747 227.468C483.214 228.193 482.579 228.979 481.685 229.083C480.792 229.187 479.876 228.031 480.506 227.389C481.565 226.915 482.808 226.867 483.9 227.259ZM420.619 236.231C421.416 236.417 422.317 236.999 422.192 237.807C420.366 237.569 418.564 237.147 416.822 236.549C418.013 236.051 419.362 235.938 420.619 236.231ZM590.199 236.076C589.784 236.256 589.409 235.499 589.803 235.278C589.803 235.278 592.525 230.503 592.643 233.847C592.701 234.679 590.941 235.697 590.199 236.076ZM475.152 260.593C475.354 259.144 475.735 256.411 476.509 256.411C477.606 256.295 477.184 258.164 476.887 259.48C476.805 259.843 476.732 260.164 476.703 260.39C476.604 261.181 475.865 261.802 475.019 261.421C475.052 261.306 475.095 261.001 475.151 260.595L475.152 260.593ZM219.943 310.7C225.528 311.182 231.135 311.412 236.741 311.39C236.343 316.661 240.629 321.852 245.88 322.458C251.132 323.064 256.488 318.985 257.3 313.762C257.626 311.664 260.464 311.298 262.581 311.463L276.054 312.512C278.364 312.692 281.632 311.964 281.383 309.661L279.856 295.552C279.719 294.28 280.163 292.425 281.418 292.677C286.765 293.75 292.607 289.651 293.34 284.246C294.073 278.841 289.452 273.302 284 273.131C281.38 273.049 280.134 269.623 280.814 267.092C281.18 265.731 281.874 264.499 282.57 263.265C283.168 262.204 283.766 261.142 284.157 259.995C285.004 257.515 284.294 254.058 281.742 253.46C262.364 248.917 242.022 248.531 222.486 252.336L222.128 252.407C221.054 252.624 219.976 252.89 219.048 253.465C215.997 255.354 215.762 259.52 215.911 263.193L216.01 265.235C216.546 277.083 215.614 288.996 213.24 300.616L213.186 300.88C212.655 303.528 212.223 306.555 213.992 308.562C215.303 310.05 217.4 310.45 219.4 310.65L219.943 310.7ZM254.312 313.541C254.468 314.304 254.272 315.099 253.966 315.814L253.868 316.032C252.065 319.839 246.698 321.471 243.101 319.244C239.437 316.976 238.539 311.276 241.327 307.99C234.241 308.839 227.06 308.895 219.961 308.156C217.764 307.928 214.892 306.742 215.341 304.579C218.431 289.707 219.396 274.395 218.198 259.252C217.981 256.508 221.359 255.084 224.066 254.587C241.536 251.38 259.612 251.513 277.032 254.976C279.261 255.419 282.13 257.113 281.142 259.159C278.817 263.977 277.887 269.458 278.495 274.773C278.65 276.128 279.711 277.902 280.894 277.223C284.08 275.393 288.692 276.86 290.234 280.195C291.777 283.53 289.91 287.994 286.453 289.238C282.996 290.482 278.712 288.23 277.777 284.676C276.942 291.995 277.239 299.442 278.657 306.67C279.148 309.176 275.5 310.121 272.954 309.931L252.628 308.417C252.005 309.398 252.644 310.413 253.315 311.479C253.734 312.145 254.166 312.83 254.312 313.541ZM359.484 267.608L399.295 268.408L399.946 268.424C401.141 268.462 402.346 268.567 403.422 269.069C405.856 270.205 406.972 273.004 407.712 275.586C411.662 289.366 411.174 304.382 406.338 317.877L406.135 318.43C405.506 320.09 404.683 321.745 403.196 322.68C401.973 323.449 400.482 323.609 399.031 323.687L398.721 323.702C392.801 323.983 386.86 323.832 380.963 323.25C384.034 321.359 384.81 316.755 382.859 313.721C380.909 310.687 376.788 309.42 373.319 310.406C371.204 311.006 369.234 312.452 368.468 314.513C367.703 316.574 368.443 319.221 370.398 320.227C371.75 320.923 371.517 323.115 370.333 324.07C369.149 325.024 367.504 325.092 365.984 325.117L346.01 325.441C344.508 325.465 342.93 325.471 341.612 324.752C339.743 323.732 338.883 321.535 338.357 319.472C337.086 314.494 336.914 309.239 337.857 304.188C338.993 308.177 343.908 310.599 347.762 309.07C351.617 307.54 353.535 302.407 351.627 298.725C349.719 295.043 344.419 293.65 340.947 295.917L340.803 294.63C340.304 290.119 339.917 285.55 340.783 281.107C341.732 276.241 344.439 271.463 348.876 269.252C352.112 267.639 355.848 267.55 359.484 267.608ZM402.942 271.772C401.945 271.172 400.744 271.069 399.574 271.02L399.283 271.009C386.899 270.546 374.507 270.312 362.114 270.306L357.983 270.313C355.37 270.322 352.672 270.359 350.28 271.413C346.711 272.984 344.399 276.629 343.455 280.413C342.512 284.197 342.738 288.161 342.97 292.054C349.245 290.325 355.996 296.702 355.251 303.168C354.506 309.634 347.338 314.304 340.95 313.057C340.66 315.1 340.375 317.221 340.975 319.195C341.575 321.169 343.327 322.954 345.389 322.888L363.907 322.292C365.054 322.255 366.638 321.662 366.305 320.564C364.413 314.331 369.873 307.055 376.386 307.128C382.9 307.202 388.194 314.6 386.162 320.789C390.232 321.705 394.464 321.898 398.601 321.355C399.944 321.179 401.346 320.894 402.375 320.013C403.387 319.146 403.884 317.835 404.305 316.572C408.603 303.694 409.074 289.566 405.643 276.431C405.199 274.733 404.583 272.905 403.162 271.914L402.942 271.772ZM227.236 394.406C225.265 381.577 225.267 368.446 227.244 355.617L227.344 354.997C227.835 352.085 228.696 349.012 231.128 347.408C232.95 346.207 235.25 346.117 237.443 346.116L254.238 346.163C255.003 346.165 255.841 346.193 256.415 346.697C256.99 347.201 256.975 348.359 256.238 348.563C254.479 349.05 253.467 351.079 253.681 352.892C253.895 354.705 255.073 356.274 256.458 357.464C259.759 360.302 264.89 361.31 268.545 358.944C272.199 356.578 273.058 350.482 269.596 347.844C277.441 347.684 285.29 347.709 293.133 347.918L296.075 348.005C297.025 348.035 298.077 348.111 298.741 348.792C299.239 349.303 299.403 350.046 299.516 350.751C300.385 356.182 299.435 361.887 296.854 366.743C296.443 367.516 295.491 368.369 294.842 367.78C292.086 365.278 287.451 365.619 284.63 368.048C281.81 370.478 280.72 374.513 281.218 378.202C281.698 381.752 284.286 385.544 287.864 385.365C288.873 385.315 289.921 384.967 290.95 384.626L290.95 384.626C292.797 384.013 294.578 383.422 295.946 384.611L292.358 400.642C291.721 403.49 290.577 406.868 287.723 407.478C271.248 411.002 253.975 410.736 237.617 406.706L236.824 406.505C234.839 405.985 232.861 405.313 231.312 403.987C228.617 401.679 227.775 397.913 227.236 394.406ZM292.766 387.478C288.105 389.669 282.034 387.788 279.117 383.544C276.2 379.299 276.486 373.233 279.479 369.042C282.472 364.85 287.851 362.622 292.982 363.061L293.41 363.098C294.13 363.159 294.868 363.186 295.478 362.826C296.251 362.371 296.58 361.436 296.795 360.566C297.652 357.093 297.605 353.402 296.659 349.953L274.947 350.111C275.342 356.139 270.381 362.02 264.373 362.646C258.366 363.272 252.298 358.54 251.443 352.56L251.324 351.671C251.195 350.774 250.994 349.888 250.324 349.319C249.854 348.92 249.236 348.761 248.625 348.64L248.397 348.596C242.08 347.402 234.071 346.906 230.756 352.415C229.627 354.29 229.323 356.535 229.094 358.712C227.774 371.211 228.088 383.881 230.024 396.3L230.119 396.881C230.434 398.729 230.927 400.627 232.302 401.867C233.248 402.72 234.489 403.142 235.72 403.489L236.028 403.575C251.781 407.908 268.553 408.486 284.569 405.257L285.458 405.074C286.245 404.908 287.064 404.717 287.683 404.203C288.489 403.533 288.799 402.452 289.067 401.438L292.766 387.478ZM409.937 419.24C409.937 419.24 410.027 416.742 410.342 415.921C410.912 414.439 412.591 412.331 412.591 412.331C412.474 412.902 412.311 413.512 412.142 414.142C411.565 416.301 410.927 418.686 411.896 420.451C412.644 421.812 423.583 428.98 427.342 430.66C443.42 437.845 459.578 444.347 475.812 450.88L475.813 450.88L475.814 450.88L475.815 450.881L475.825 450.885C482.46 453.555 489.108 456.23 495.768 458.959C484.324 457.564 473.786 452.235 463.519 446.992C461.303 459.287 468.154 471.681 477.397 480.086C484.128 486.207 492.051 490.743 499.972 495.28L499.973 495.28L499.973 495.28C502.93 496.974 505.886 498.667 508.781 500.442L509.845 501.101C520.114 507.53 529.937 515.646 534.471 526.839C535.303 528.892 537.856 530.061 539.954 529.349C542.052 528.637 543.366 526.155 542.775 524.02C544.971 525.822 543.704 529.848 541.044 530.844C538.384 531.839 535.335 530.488 533.371 528.436C531.892 526.89 530.86 525.001 529.829 523.114L529.828 523.113L529.828 523.113L529.828 523.112L529.827 523.111L529.824 523.106C529.488 522.491 529.152 521.877 528.801 521.274C522.462 510.406 511.262 503.656 500.152 497.478L494.937 494.591C482.88 487.858 470.527 479.771 465.363 467.027C446.617 470.001 427.101 467.984 409.36 461.237C405.565 459.794 401.849 458.139 398.135 456.485L398.134 456.485C392.218 453.851 386.306 451.218 380.086 449.446C376.621 448.458 371.844 448.352 370.546 451.714C370.546 451.713 370.544 451.716 370.541 451.722C370.503 451.788 370.257 452.22 369.151 452.315C368.633 452.359 368.157 451.45 368.009 450.848C367.883 450.679 367.839 450.203 367.839 449.226C367.839 448.699 368.913 446.397 370.933 444.972C372.337 443.982 373.919 443.623 374.747 443.434C375.12 443.349 375.341 443.299 375.322 443.242C375.28 443.109 373.844 442.737 372.538 443.37C371.531 443.858 370.577 444.504 369.7 445.098L369.7 445.098C368.343 446.016 367.171 446.809 366.269 446.704C365.049 446.563 364.182 445.993 364.169 444.764C364.155 443.536 364.481 442.041 365.429 441.27C367.455 439.62 370.071 438.711 372.683 438.748C373.247 438.756 373.872 438.837 374.24 439.264C374.609 439.692 374.427 440.546 373.864 440.571C370.478 440.723 366.563 441.29 365.244 444.764C364.861 445.775 367.284 445.938 368.221 445.399C368.765 445.086 369.232 444.665 369.7 444.244C370.038 443.939 370.376 443.634 370.744 443.37C371.845 442.578 373.213 442.164 374.568 442.212C375.115 442.231 375.717 442.357 376.039 442.799C376.361 443.241 376.134 444.043 375.587 444.052C372.077 444.109 368.872 447.152 368.632 450.654C368.645 450.781 368.742 451.359 369.151 451.496C369.629 451.657 370.156 451.268 370.178 451.229C372.005 447.965 375.343 445.784 378.93 446.877C380.286 447.29 381.591 447.918 382.89 448.544C385.163 449.639 387.418 450.725 389.896 450.633L388.409 442.747C382.379 437.22 373.292 435.271 365.527 437.84C364.696 438.115 363.799 438.514 363.459 439.321C363.12 440.128 363.864 441.3 364.682 440.988C363.396 442.177 361.223 440.158 361.713 438.477C362.202 436.795 364.046 435.931 365.741 435.49C375.252 433.018 384.731 437.327 393.892 441.491C395.592 442.264 397.281 443.031 398.958 443.75C417.611 451.745 438.686 453.981 458.602 450.079C457.738 452.443 454.792 453.158 452.291 453.439C434.552 455.434 416.332 452.993 399.744 446.399C397.718 448.973 398.683 452.972 400.989 455.299C403.295 457.625 406.556 458.683 409.694 459.621C427.282 464.877 445.93 468.898 463.902 465.16L460.989 448.118L460.93 447.808C460.786 447.127 460.521 446.424 459.886 446.208L459.725 446.154C436.69 438.331 419.133 432.369 396.338 410.639C396.292 410.595 396.248 410.551 396.204 410.505C396.036 417.036 393.965 418.473 385.328 416.693C366.484 412.808 347.19 410.775 328.171 413.447C329.609 406.339 331.411 399.304 333.566 392.379C327.377 394.376 320.071 388.705 320.471 382.214C320.871 375.724 328.819 370.992 334.715 373.735C336.741 369.061 336.869 363.597 335.066 358.833C334.2 356.548 337.649 355.23 340.093 355.229L353.595 355.226C355.482 355.226 358.114 354.349 357.645 352.521C356.533 348.186 359.514 343.232 363.866 342.185C368.138 341.156 372.947 344.082 374.051 348.321L374.108 348.558C375.133 353.111 380.901 354.556 385.567 354.467L387.89 354.411C391.926 354.327 396.132 354.458 398.833 357.281C402.063 360.657 401.341 366.034 400.277 370.617L400.205 370.921C399.686 373.111 398.929 374.891 398.167 376.681C396.716 380.091 395.25 383.538 395.38 389.934C395.433 392.541 395.527 394.934 395.634 397.125C396.008 395.586 396.338 394.57 396.338 394.57C396.338 394.57 440.347 427.337 467.527 431.785C470.784 428.908 468.904 423.3 465.623 420.451C464.241 419.25 462.667 418.279 461.097 417.31C458.942 415.981 456.794 414.656 455.159 412.747C451.91 408.954 451.329 403.727 450.753 398.545C450.127 392.91 449.507 387.328 445.469 383.697C445.109 383.373 444.726 383.071 444.342 382.768L444.341 382.768C443.476 382.085 442.613 381.404 442.024 380.484C440.568 378.207 441.284 375.038 443.047 372.99C444.811 370.942 447.39 369.799 449.941 368.908C455.238 367.058 461.046 366.026 466.456 367.516C471.865 369.006 476.71 373.51 477.241 379.096C478.267 376.874 480.521 375.268 482.956 375.024L479.421 378.781L483.894 378.87L477.739 382.307C481.555 389.364 480.937 398.069 478.491 405.709C478.192 406.643 477.866 407.577 477.54 408.513L477.539 408.514L477.538 408.519C476.231 412.269 474.913 416.049 475.251 419.963C475.666 424.775 479.939 429.69 484.61 428.705L484.843 428.651C490.457 427.233 496.605 428.054 501.65 430.896C507.533 434.21 511.538 439.83 515.501 445.392C516.421 446.683 517.339 447.971 518.277 449.226C522.675 455.108 527.88 460.577 534.386 463.985C540.892 467.392 548.869 468.517 555.647 465.688C556.893 465.168 558.091 464.521 559.287 463.876C561.318 462.78 563.343 461.686 565.589 461.221C569.157 460.482 573.7 462.228 574.124 465.847C572.278 462.763 567.905 462.216 564.465 463.256C562.523 463.843 560.732 464.802 558.938 465.763L558.937 465.763C557.553 466.504 556.168 467.247 554.711 467.819C547.412 470.684 538.912 468.948 532.193 464.906C525.683 460.991 520.585 455.146 515.985 449.089L515.541 448.502C515.074 447.882 514.61 447.258 514.145 446.634L514.144 446.633L514.143 446.631L514.142 446.63L514.141 446.628L514.14 446.627L514.139 446.626L514.138 446.624L514.137 446.623C510.903 442.277 507.645 437.898 503.375 434.592C498.587 430.883 492.156 428.691 486.391 430.471L486.039 430.585C480.524 432.453 474.683 427.177 473.69 421.44C472.697 415.702 475.036 409.969 477.325 404.615C479.687 399.093 475.351 392.649 469.885 390.16C464.813 387.85 458.721 387.902 453.69 390.299C452.06 391.075 451.765 393.214 451.819 395.043L451.827 395.245C452.109 401.701 453.834 408.487 458.547 412.909C459.948 414.224 461.567 415.285 463.183 416.345C465.206 417.671 467.223 418.994 468.804 420.806C471.647 424.066 472.085 430.173 468.134 431.936C474.912 433.159 481.619 434.78 488.208 436.786C452.758 433.159 420.163 416.439 396.761 396.242C396.282 397.178 395.945 398.166 395.74 399.181C395.794 400.193 395.85 401.158 395.903 402.075C395.977 403.371 396.047 404.574 396.101 405.689C397.227 409.396 399.86 412.664 403.476 414.1C403.19 411.496 404.068 408.786 405.826 406.844C404.685 409.396 402.875 414.288 409.937 419.24ZM464.389 369.335C461.235 368.747 458.029 368.435 454.82 368.401C454.602 368.805 454.519 369.281 454.588 369.734C458.166 370.032 461.689 370.975 464.937 372.503C463.58 373.861 461.337 373.048 459.515 372.387L459.408 372.349C456.294 371.221 452.876 370.949 449.623 371.568C447.964 371.884 446.305 372.452 445.027 373.556C443.75 374.661 442.914 376.379 443.199 378.044C443.563 380.17 445.562 381.622 447.558 382.44C452.506 384.467 458.437 383.896 462.907 380.962C463.27 380.724 463.78 381.121 463.802 381.554C463.823 381.987 463.531 382.369 463.224 382.675C461.442 384.448 458.791 385.013 456.282 385.159C455.549 385.202 454.812 385.216 454.075 385.23H454.075H454.075C452.289 385.265 450.504 385.3 448.779 385.737C449.012 387.16 450.789 387.65 452.227 387.754C457.722 388.153 463.298 387.413 468.499 385.595C469.802 385.14 470.999 386.445 471.767 387.591L477.371 395.953C479.211 394.22 479.101 391.227 478.233 388.852C477.894 387.924 477.462 387.03 477.031 386.136C476.359 384.743 475.688 383.353 475.372 381.846C475.198 381.015 475.136 380.163 475.073 379.312V379.312C474.986 378.117 474.898 376.925 474.502 375.801C473.109 371.841 468.516 370.104 464.389 369.335ZM396.703 445.663L391.617 442.741C391.053 442.417 390.013 442.362 390.07 443.01C389.896 445.636 390.11 448.852 391.798 451.04C392.861 452.418 393.629 453.124 397.385 454.057L397.109 446.704C397.094 446.315 397.041 445.857 396.703 445.663ZM474.15 405.666C474.768 405.307 475.162 404.668 475.53 404.055C476.189 402.959 476.867 401.798 476.896 400.52C476.926 399.242 476.042 397.848 474.765 397.797C474.129 397.772 473.525 398.075 473.005 398.442C471.853 399.258 470.964 400.439 470.499 401.772C471.087 402.619 472.418 401.862 473.01 401.017C473.602 400.173 474.479 399.105 475.42 399.526C474.799 401.682 473.7 403.698 472.224 405.388C472.619 405.985 473.531 406.024 474.15 405.666ZM484.325 467.768C482.91 465.522 481.383 463.097 478.863 462.366C484.454 472.889 493.119 481.756 503.512 487.586C507.14 489.622 510.967 491.294 514.79 492.964C520.123 495.294 525.448 497.621 530.217 500.926C536.193 505.068 541.135 510.689 544.478 517.145C543.164 507.939 535.466 500.892 527.249 496.54C523.529 494.57 519.62 492.981 515.714 491.394L515.713 491.394C510.99 489.475 506.27 487.557 501.89 484.966C494.907 480.837 488.922 475.031 484.583 468.177C484.497 468.042 484.411 467.905 484.325 467.768ZM501.887 470.881L502.043 471.228C502.731 472.82 503.208 474.821 501.916 475.899C500.886 476.759 499.326 476.43 498.111 475.86C495.486 474.628 493.316 472.451 492.092 469.822C493.624 469.518 495.061 468.748 496.161 467.639C497.075 466.717 498.693 466.904 499.723 467.693C500.753 468.482 501.339 469.705 501.887 470.881ZM501.053 474.649C502.376 472.274 499.678 468.772 498.36 468.544C497.787 468.446 497.195 469.013 496.56 469.623C495.907 470.249 495.208 470.919 494.436 470.958C494.436 470.958 499.73 477.024 501.053 474.649ZM567.761 481.477C599.878 480.422 631.232 464.776 651.386 439.748C652.43 438.452 654.495 438.43 655.945 439.244C657.396 440.058 658.376 441.489 659.303 442.87C660.313 442.722 660.343 441.153 659.647 440.406C659.304 440.037 658.872 439.77 658.441 439.502C657.998 439.227 657.555 438.952 657.208 438.568C655.805 437.015 656.555 434.57 657.377 432.645L661.041 424.065C661.532 422.915 662.299 421.574 663.549 421.592C664.464 421.604 665.167 422.368 665.747 423.075C672.071 430.779 677.937 438.858 683.304 447.255C679.995 447.768 676.814 446.138 673.676 444.53C670.171 442.734 666.72 440.965 663.204 442.24C660.141 443.35 658.337 446.434 656.715 449.26C651.41 458.502 645.333 467.404 637.636 474.774C619.759 491.889 594.814 499.297 570.512 503.98C585.544 509.67 602.103 511.266 617.945 508.552C627.011 506.999 636.051 503.94 643.117 498.051C645.978 495.667 648.46 492.867 650.929 490.079L669.128 469.536C670.193 468.334 672.16 469.488 673.153 470.752C674.145 472.015 675.492 473.59 677.006 473.051C675.922 470.625 674.041 468.562 671.724 467.261C671.587 464.363 671.5 461.26 673.041 458.802C674.581 456.343 678.422 455.146 680.421 457.249C686.974 464.142 693.253 471.296 699.239 478.688C695.726 479.24 692.389 477.729 689.077 476.228L689.076 476.228L689.076 476.228L689.075 476.228L689.075 476.228L689.074 476.228C688.051 475.764 687.031 475.302 686.008 474.902C681.673 473.206 675.597 473.243 673.62 477.456C668.214 488.981 662.597 500.8 653.317 509.514C637.818 524.066 615.173 527.351 594.049 529.747C584.68 530.809 575.057 531.817 565.935 529.432C559.295 527.695 553.254 524.241 547.303 520.824L542.58 518.113C541.19 518.461 542.306 520.567 543.541 521.295C551.448 525.958 559.598 530.71 568.666 532.139C570.976 532.503 573.316 532.645 575.653 532.733C597.172 533.541 618.851 529.767 638.83 521.732C647.162 518.382 655.641 513.902 660.216 506.175L676.34 478.946C676.958 477.903 677.637 476.802 678.733 476.284C680.068 475.653 681.638 476.055 683.055 476.467L698.169 480.857C699.713 481.305 701.148 479.494 700.987 477.894C700.826 476.294 699.671 474.997 698.573 473.822L684.635 458.904C682.796 456.936 680.82 454.882 678.223 454.165C675.627 453.449 672.289 454.71 671.781 457.356C670.282 465.164 664.948 471.599 659.8 477.659C651.831 487.037 643.536 496.675 632.476 502.072C616.616 509.811 597.875 507.563 580.51 504.419L591.77 501.14C597.343 499.516 602.925 497.89 608.328 495.767C629.288 487.531 647.141 471.639 657.75 451.776C659.592 448.328 661.757 444.343 665.604 443.651C668.766 443.082 671.462 444.949 674.217 446.858C675.855 447.992 677.515 449.141 679.306 449.802C681.948 450.778 686.048 449.39 685.426 446.643C685.286 446.022 684.909 445.485 684.541 444.966L670.204 424.753C668.215 421.949 665.234 418.78 661.961 419.833C659.331 420.679 658.345 423.715 657.475 426.392L657.395 426.636L657.359 426.746L657.319 426.87C653.238 439.306 642.264 447.992 631.849 455.919C627.292 459.386 622.724 462.862 617.806 465.796C603.442 474.367 586.596 477.995 569.904 479.079C565.188 479.385 562.224 483.809 559.511 487.859C559.188 488.34 558.87 488.816 558.552 489.28C553.906 496.049 547.29 501.45 539.727 504.646C540.992 506.044 543.297 505.206 544.896 504.207C552.484 499.464 558.921 492.893 563.507 485.209C564.518 483.514 565.788 481.542 567.761 481.477ZM466.993 408.924C466.255 410.541 464.608 411.705 462.838 411.863C461.067 412.02 459.241 411.165 458.229 409.703C457.857 409.166 457.86 408.117 458.511 408.174C459.865 409.972 462.69 410.438 464.549 409.168C465.354 408.618 466.751 407.979 466.993 408.924ZM452.758 397.17C452.918 395.816 454.06 394.639 455.409 394.437C456.759 394.236 458.195 395.029 458.743 396.278C457.757 396.278 457.096 396.099 456.546 395.951C455.426 395.648 454.764 395.47 452.758 397.17ZM463.215 404.717L461.679 405.375L461.59 405.324C461.192 406.082 460.02 405.224 459.93 404.372C459.911 404.196 459.902 404.01 459.893 403.822C459.859 403.1 459.824 402.35 459.227 402.026C458.482 403.1 458.141 404.513 458.575 405.746C459.008 406.979 460.327 407.914 461.614 407.682C462.9 407.45 463.824 405.873 463.215 404.717ZM465.058 394.25C467 394.406 467.516 394.511 468.052 395.788C468.158 396.04 467.327 395.803 466.536 395.577L466.536 395.577C465.954 395.411 465.394 395.251 465.242 395.296C458.743 397.223 463.116 394.094 465.058 394.25ZM464.509 397.607C465.582 398.457 465.271 401.845 463.687 401.208C463.024 400.941 462.231 395.8 464.509 397.607ZM515.88 488.342C515.368 487.704 515.948 486.565 516.766 486.605C517.127 486.839 517.372 487.243 517.414 487.671C517.104 488.174 516.463 488.45 515.885 488.328L515.88 488.342ZM501.286 481.737L502.402 481.567L502.491 481.535C502.879 480.811 501.611 479.984 501.105 480.631C500.995 481.002 501.063 481.421 501.286 481.737ZM509.231 486.139C508.584 486.314 508.497 485.203 508.861 484.641L510.405 485.343C510.167 485.761 509.725 486.055 509.248 486.115L509.231 486.139ZM489.941 469.947C489.77 469.523 489.155 469.361 488.797 469.645L488.895 469.743C488.586 470.148 488.832 470.84 489.327 470.958C489.782 470.914 490.112 470.371 489.941 469.947ZM456.005 401.287C455.383 401.287 454.732 400.679 454.764 399.622C454.797 398.566 455.084 397.589 456.005 398.108C456.926 398.627 456.646 401.287 456.005 401.287ZM166.375 272.906C166.749 273.399 167.605 273.182 167.935 272.659C168.264 272.135 168.223 271.469 168.163 270.853C167.301 261.949 164.991 253.188 161.349 245.017C160.312 242.69 159.222 239.788 160.81 237.796C164.48 246.97 168.182 256.258 169.519 266.049C169.884 268.721 170.015 271.647 168.525 273.896C167.035 276.144 163.323 277.006 161.668 274.876C164.214 274.345 166.161 271.766 165.978 269.172C167.154 269.974 167.356 271.875 166.375 272.906ZM196.046 449.694C209.365 448.964 224.796 447.041 231.782 435.677C233.594 432.73 233.208 428.098 232.889 424.28C232.633 421.213 232.421 418.673 233.428 417.955C235.689 416.343 237.497 420.499 237.497 420.499C237.564 420.224 237.639 419.884 237.725 419.5C238.356 416.668 239.519 411.453 241.345 412.433C242.097 412.836 241.838 415.371 241.66 417.113L241.66 417.114C241.619 417.523 241.581 417.888 241.563 418.171C241.52 418.44 241.514 418.665 241.546 418.825C241.572 418.814 241.598 418.799 241.626 418.78C241.637 418.779 241.649 418.772 241.663 418.761C241.673 418.752 241.684 418.741 241.696 418.727C241.991 418.478 242.396 417.862 242.846 417.176L242.846 417.176C243.779 415.756 244.907 414.038 245.663 414.67C246.85 415.661 242.629 421.989 242.629 421.989C242.629 421.989 247.642 416.481 248.064 418.825C248.487 421.169 237.072 442.341 226.768 450.644C216.464 458.948 201.946 463.596 188.817 461.932C189.111 456.725 190.839 449.98 196.046 449.694ZM241.696 418.727C241.672 418.747 241.649 418.765 241.626 418.78C241.546 418.793 241.537 418.558 241.563 418.171C241.66 417.558 241.946 416.719 242.404 415.917C242.317 416.192 242.23 416.459 242.149 416.709C241.783 417.831 241.518 418.644 241.793 418.58C241.773 418.616 241.754 418.646 241.737 418.672C241.722 418.694 241.709 418.712 241.696 418.727ZM244.177 413.949C243.439 414.416 242.842 415.149 242.404 415.917C243.088 413.751 243.78 411.019 242.097 410.801C239.242 410.43 236.451 415.077 236.947 417.545C236.155 415.579 232.858 416.43 232.06 418.394C231.447 419.901 231.708 421.551 231.966 423.19L231.966 423.19L231.966 423.191C232.045 423.687 232.123 424.183 232.177 424.673C233.034 432.504 227.163 439.825 220.045 443.202C213.334 446.387 205.718 446.834 198.268 447.065L196.53 447.116C192.277 447.227 187.672 447.129 184.426 444.414C181.082 441.617 181.085 434.98 185.285 433.807C195.945 430.83 204.076 420.443 204.407 409.38C204.505 406.111 206.625 403.39 208.675 400.761C208.859 400.525 209.042 400.289 209.224 400.054L209.674 399.465C211.968 396.422 213.854 392.23 211.927 388.942C208.943 392.771 203.353 394.315 198.826 392.56C196.938 391.828 195.265 390.604 193.602 389.389C191.375 387.761 189.167 386.147 186.486 385.743C181.242 384.953 176.04 390.263 176.938 395.49C175.518 394.298 173.314 396.102 173.161 397.949C173.071 399.034 173.356 400.091 173.643 401.151C173.844 401.896 174.046 402.642 174.119 403.403C174.204 404.288 174.113 405.174 174.022 406.062C173.961 406.661 173.899 407.261 173.892 407.862C173.854 410.974 175.24 413.853 176.606 416.688L176.607 416.692L176.609 416.696C176.746 416.98 176.882 417.263 177.017 417.546L177.382 418.324C178.936 421.694 180.089 425.705 178.433 429.026C176.776 432.347 171.138 433.388 169.54 430.038C161.711 413.62 143.966 402.441 125.777 402.469C104.717 402.5 85.7691 416.379 73.3581 433.393C71.8102 435.515 70.2952 437.801 69.9579 440.406C69.6206 443.011 70.8293 446 73.3072 446.871C75.785 447.743 78.998 445.306 78.1906 442.806C79.4478 444.274 82.0189 442.886 82.6111 441.047C82.9438 440.013 82.9398 438.923 82.9357 437.829C82.9325 436.976 82.9294 436.121 83.0859 435.289C83.8536 431.209 88.0504 428.853 91.8279 427.13L92.5896 426.783C101.487 422.757 110.758 419.162 120.49 418.479C130.5 417.775 141.183 420.558 148.062 427.864C138.675 430.091 133.224 439.51 128.879 448.209L128.276 449.422C123.889 458.232 118.142 467.844 108.521 469.712C108.887 471.61 110.563 473.18 112.481 473.421L77.2108 494.39L79.9165 497.747C71.329 510.908 61.6166 523.335 50.9198 534.848C45.104 541.108 37.5522 547.595 29.1329 546.137C27.6105 545.874 26.1344 545.351 24.6635 544.83C22.5095 544.068 20.3665 543.309 18.105 543.373C14.299 543.482 10.4795 548.112 13.063 550.909C18.7845 557.103 25.3146 562.549 32.4352 567.066L32.6196 567.182C33.4864 567.722 34.4399 568.226 35.445 568.111C36.4611 567.995 37.2884 567.272 38.0441 566.583L85.8116 523.029C89.7238 519.49 94.029 515.95 99.2405 515.43L99.6802 515.377C103.535 514.841 106.71 512.404 109.894 509.96C111.281 508.896 112.669 507.83 114.116 506.92C119.011 503.839 127.131 503.523 129.035 508.985C130.047 511.887 128.723 514.839 127.417 517.749L127.417 517.75C127.028 518.617 126.641 519.48 126.318 520.337C124.91 524.07 126.064 529.812 130.053 529.741L152.377 529.346C153.179 529.338 154.024 529.383 154.648 529.874C155.301 530.387 155.53 531.242 155.655 532.08L155.707 532.464C156.548 539.302 156.432 546.256 155.363 553.062C154.206 560.437 151.126 568.549 144.167 571.253C139.778 572.959 134.889 572.073 130.266 571.014L102.176 564.453C102.129 561.052 105.206 558.282 108.487 557.381C111.268 556.616 114.19 556.849 117.083 557.08H117.083C117.261 557.095 117.439 557.109 117.616 557.123L118.637 557.199C125.746 557.687 132.933 557.027 139.834 555.251L129.876 530.332C130.891 538.604 133.129 546.726 136.494 554.351L103.759 555.414C100.909 555.493 97.7442 555.367 95.8281 553.287C95.3362 552.753 94.9262 552.096 94.52 551.445C93.6857 550.108 92.867 548.795 91.3857 548.624C90.1059 548.476 88.9464 549.331 87.9661 550.167C81.5663 555.625 76.2525 562.353 72.4239 569.843C73.8042 573.26 78.3775 574.216 81.9303 573.236C84.0086 572.662 85.9055 571.628 87.8061 570.592C89.1545 569.858 90.5047 569.122 91.9229 568.549C99.8358 565.35 108.535 567.518 116.891 570.034L121.855 571.546C131.664 574.492 143.624 576.003 150.975 568.871C155.312 564.663 156.892 558.4 157.751 552.418C160.229 535.155 158.22 517.267 151.974 500.984C158.939 498.297 162.225 490.507 164.78 483.493L169.783 469.757C171.455 465.168 175.253 459.537 179.773 461.386C192.696 466.671 207.96 464.437 219.992 457.353C232.023 450.269 241.03 438.793 247.096 426.218L247.259 425.878C248.446 423.38 249.959 417.549 248.607 416.903C248.104 416.507 247.206 417.164 246.594 417.612C246.264 417.854 246.016 418.035 245.96 417.955C245.926 417.906 246.037 417.583 246.194 417.126C246.812 415.325 248.146 411.439 244.177 413.949ZM158.659 491.052C157.095 494.568 154.508 498.705 150.69 498.238C148.645 497.988 147.101 496.444 145.711 494.858L144.967 493.996C136.896 484.628 125.933 478.402 114.914 472.67L111.243 470.774C120.219 469.008 125.756 460.131 129.71 451.882L130.969 449.253C134.585 441.758 138.699 434.046 146.156 430.672C147.186 430.206 148.368 429.834 149.431 430.222C149.593 430.28 149.766 430.347 149.947 430.417C151.26 430.921 152.95 431.571 152.923 430.328C150.53 429.363 150.137 425.874 151.517 423.694C152.777 421.704 154.96 420.556 157.121 419.566L157.737 419.287C156.358 417.386 153.371 418.985 151.81 420.739L151.681 420.882C150.114 422.6 147.71 424.482 145.902 423.085C138.43 417.312 128.472 415.459 119.074 416.365C109.676 417.272 100.709 420.708 92.1227 424.637C88.9759 426.076 85.7796 427.646 83.4442 430.2C81.6376 432.176 81.4504 434.806 81.2622 437.449C81.2071 438.222 81.152 438.997 81.0561 439.757C80.8242 441.595 79.8134 441.665 78.923 441.727C78.4458 441.76 78.0032 441.791 77.7336 442.09C77.7119 442.114 77.6421 442.221 77.5371 442.382C77.0025 443.203 75.5559 445.425 74.9025 445.204C73.9429 444.878 74.4323 442.806 74.4323 442.806C74.4323 442.806 71.5844 443.62 71.3724 442.806C70.6308 439.958 74.9025 434.131 74.9025 434.131C82.0846 423.565 92.7351 414.799 104.445 409.703C116.371 404.512 130.288 403.51 142.48 408.041C156.225 413.15 167.109 425.354 170.618 439.592C171.493 443.141 175.622 444.708 179.23 445.298C179.352 445.318 179.474 445.338 179.598 445.358C179.815 445.392 180.034 445.426 180.254 445.461L180.259 445.462C183.588 445.982 187.129 446.535 189.251 449.077C189.876 449.827 189.704 450.935 189.489 451.888L189.426 452.162C188.634 455.558 187.254 459.358 183.954 460.388C180.956 461.324 177.403 458.907 177.174 455.774C177.154 455.498 177.148 455.206 177.142 454.911C177.116 453.693 177.09 452.411 176.067 451.908L158.659 491.052ZM130.303 509.621C129.182 503.859 125.774 498.676 121.303 494.874C121.477 497.138 122.436 499.335 123.976 501.004C116.399 503.413 109.254 507.173 102.978 512.053C101.298 513.36 98.4446 514.551 97.4607 512.664C93.59 505.241 87.4282 499.032 80.0342 495.106L110.432 477.637C111.806 476.848 113.259 476.036 114.844 476.02C116.072 476.008 117.239 476.478 118.35 477.026L118.9 477.305C130.276 483.164 140.458 491.327 148.652 501.155C150.68 503.589 151.625 506.704 152.428 509.787L156.044 523.913C156.283 524.849 156.459 526.007 155.726 526.635C155.314 526.989 154.733 527.05 154.191 527.092L153.557 527.141C144.556 527.834 137.294 528.393 128.276 527.092C126.93 524.512 127.947 521.315 128.997 518.014C129.897 515.185 130.821 512.28 130.303 509.621ZM85.0814 500.935C88.4542 503.905 91.4949 507.252 94.1285 510.894C94.4103 511.283 94.7002 511.718 94.6702 512.198C94.6352 512.758 94.1815 513.189 93.7594 513.558L54.4707 547.945C52.8325 549.379 50.2192 549.128 48.3842 547.956C46.7785 546.931 45.6305 545.359 44.5772 543.757L44.1305 543.071C54.3698 537.69 60.9379 528.05 67.5645 518.325C71.7211 512.224 75.9006 506.09 81.0235 500.952C81.5213 500.453 82.0831 499.936 82.7839 499.857C83.6508 499.76 84.4267 500.358 85.0814 500.935ZM199.495 405.018L200.498 405.327C202.451 405.931 202.776 408.548 202.527 410.577C201.498 418.981 196.274 427.299 188.22 429.91L187.933 430.008C182.684 431.86 178.933 437.35 179.157 442.919C175.634 443.579 171.857 440.761 171.487 437.196C171.413 436.485 171.623 435.562 172.33 435.454C175.53 434.962 178.474 432.998 180.157 430.231C181.839 427.465 182.229 423.947 181.194 420.879C180.982 420.253 180.714 419.625 180.444 418.997C179.679 417.211 178.911 415.418 179.448 413.616C180.675 413.729 180.908 415.411 180.778 416.636L180.764 416.785C180.665 417.993 180.878 419.542 182.05 419.704C182.822 417.93 182.983 415.945 183.142 413.975C183.343 411.487 183.542 409.023 184.969 407.041C186.6 404.775 189.526 403.734 192.318 403.701C194.761 403.672 197.149 404.307 199.495 405.018ZM22.9659 546.704L23.2179 546.413C24.624 546.106 25.9667 547.906 25.2703 549.166C24.8235 549.974 26.1975 550.774 26.9647 550.26C27.7318 549.746 27.8866 548.702 27.971 547.782C28.7428 547.54 29.4105 548.424 29.5562 549.22C29.5947 549.43 29.6185 549.647 29.6424 549.865L29.6425 549.865C29.709 550.471 29.7757 551.078 30.158 551.534C30.6778 552.154 32.0546 551.834 31.8288 551.057C31.4919 549.898 32.8605 548.953 34.0549 548.782C34.3421 548.741 34.6386 548.716 34.9359 548.692C35.8752 548.615 36.8221 548.537 37.5059 547.927L37.609 547.845C38.4767 547.229 39.5511 548.368 40.206 549.379L40.5106 549.87C41.9507 552.108 44.3986 553.676 47.0376 554.034C47.5547 554.104 47.2916 554.91 46.9117 555.268L38.0052 563.656C37.5734 564.062 36.8738 563.773 36.368 563.464C31.0812 560.226 26.2006 556.327 21.8769 551.884C20.5147 550.485 21.6699 548.252 22.9659 546.704ZM100.855 562.315C100.598 563.373 99.868 564.557 98.7825 564.477C96.1663 564.284 93.5135 564.599 91.0155 565.4C91.2447 564.335 90.7788 563.154 89.8842 562.531C89.2315 563.465 89.4985 564.912 90.4413 565.551L87.9509 568.011L86.7589 565.272C86.171 565.428 86.1539 566.15 86.1944 566.811L86.2234 567.222C86.3427 568.956 84.8717 570.642 83.1373 570.759C81.4029 570.876 79.7188 569.403 79.6041 567.668C79.4791 565.779 80.9263 564.193 82.2718 562.861L91.8255 553.401C92.0286 553.208 92.2613 553.028 92.5356 553.033C92.8386 553.038 93.0844 553.268 93.2977 553.483L97.0257 557.245C97.7487 557.975 97.2918 559.091 96.8465 560.179C96.3882 561.299 95.9422 562.388 96.8077 562.995C97.6505 563.045 98.3522 562.313 98.6761 561.534C98.8414 561.136 98.9418 560.717 99.0422 560.297C99.1387 559.894 99.2352 559.49 99.3891 559.107C99.7033 558.323 100.381 557.577 101.225 557.595C102.069 557.613 102.721 558.819 102.068 559.354C101.372 559.925 101.173 560.853 100.98 561.756L100.98 561.757C100.94 561.945 100.899 562.133 100.855 562.315ZM35.5347 566.498C26.9476 561.905 19.3571 555.46 13.4324 547.731C14.2093 546.995 15.3776 547.777 16.129 548.611L16.3151 548.829C21.9445 555.795 29.0142 561.592 36.9484 565.747C36.8841 566.373 36.09 566.795 35.5347 566.498ZM76.7174 564.74C80.4371 559.875 84.5586 555.317 89.026 551.128C89.7185 550.479 91.1569 550.041 91.332 550.974C86.1312 555.939 81.1569 561.141 76.4297 566.558C75.916 566.113 76.3043 565.28 76.7174 564.74ZM48.1498 552.576C45.5541 551.653 43.24 549.954 41.5821 547.753C40.9583 546.925 40.5648 545.487 41.51 545.061C42.2571 544.725 42.9747 545.431 43.4958 546.116L43.8865 546.648C45.5655 548.863 47.9603 550.529 50.6239 551.326C50.6286 552.037 50.0403 552.703 49.3345 552.786C48.9325 552.833 48.5311 552.712 48.1498 552.576ZM175.527 408.614C176.747 408.643 177.78 409.914 177.558 411.115L177.587 411.132C177.756 412.002 177.645 412.924 177.274 413.729C175.94 412.421 175.272 410.465 175.527 408.614ZM198.774 408.643C198.928 408.63 199.09 408.616 199.254 408.614C199.46 408.611 199.697 408.648 199.921 408.683C200.525 408.776 201.031 408.854 200.553 408.107C199.899 407.082 197.984 406.967 197.67 408.141C197.757 408.733 198.214 408.693 198.774 408.643ZM200.315 413.711C200.325 413.675 200.334 413.639 200.343 413.605C200.809 411.84 200.539 410.449 199.254 410.449C198.758 410.486 198.001 413.011 198.073 413.777C198.146 414.542 199.009 415.251 199.677 414.871C200.073 414.645 200.2 414.155 200.315 413.711ZM191.839 413.175C190.943 411.93 190.849 410.159 191.608 408.827C191.721 408.628 191.858 408.432 192.057 408.318C192.559 408.03 193.232 408.421 193.453 408.956C193.675 409.491 193.578 410.098 193.478 410.669C193.478 410.669 192.734 414.419 191.839 413.175ZM381.623 413.211C365.257 409.197 348.159 408.181 331.433 410.234C334.336 403.47 335.61 396.014 335.119 388.67C330.76 391.725 323.604 388.142 323.439 382.822C323.274 377.502 330.194 373.482 334.733 376.26C335.937 376.996 337.259 375.469 337.741 374.143C339.38 369.625 339.396 364.537 337.785 360.009C337.158 358.246 339.819 357.289 341.691 357.326L357.574 357.641C358.64 357.662 359.773 357.666 360.684 357.111C361.595 356.555 362.112 355.22 361.443 354.389C358.694 350.979 361.853 344.876 366.224 345.15C370.596 345.425 372.966 351.875 369.813 354.915C369.224 355.482 370.367 356.212 371.184 356.23L391.952 356.709C396.082 356.804 399.001 361.204 399.17 365.332C399.312 368.825 398.072 372.171 396.846 375.476C396.74 375.764 396.633 376.052 396.527 376.339L396.188 377.274C392.51 387.595 391.326 398.796 392.765 409.658C393.046 411.777 391.095 413.662 389.007 414.121C387.165 414.526 385.268 414.124 383.424 413.663L381.623 413.211Z" fill="#0F0F0F"/>
<path fill-rule="evenodd" clip-rule="evenodd" d="M160.261 223.126C160.413 222.147 161.717 221.581 162.66 221.917C163.603 222.253 164.444 223.605 163.754 224.37C162.66 225.581 159.968 225.025 160.261 223.126Z" fill="#CFC9F3"/>
<path fill-rule="evenodd" clip-rule="evenodd" d="M570.67 476.608C570.053 477.126 568.817 477.313 568.702 476.516C571.108 474.069 572.763 470.893 573.391 467.52C574.176 467.31 574.403 468.56 574.206 469.349C573.542 472.006 572.768 474.847 570.67 476.608Z" fill="#0F0F0F"/>
<path d="M39.626 185.025C39.6016 185.814 38.4048 185.768 37.6811 185.453C37.9416 184.749 38.9977 184.514 39.5327 185.04L39.626 185.025Z" fill="#0F0F0F"/>
<path fill-rule="evenodd" clip-rule="evenodd" d="M381.136 401.768C380.302 402.51 378.899 401.376 379.023 400.267C379.147 399.157 380.13 398.364 381.072 397.766C384.451 395.626 388.364 394.336 392.354 394.047C392.461 395.569 390.489 396.197 388.992 396.489C385.816 397.108 382.79 398.484 380.236 400.471C380.698 400.754 381.032 401.237 381.136 401.768V401.768Z" fill="#0F0F0F"/>
<path fill-rule="evenodd" clip-rule="evenodd" d="M392.467 403.709C390.595 404.612 388.69 405.447 386.757 406.211C386.976 407.026 388.148 406.999 388.943 406.713C389.737 406.426 390.782 406.124 391.297 406.794C389.99 408.789 386.752 409.1 385.089 407.39C384.366 406.647 383.057 407.136 382.123 406.685C380.787 406.04 381.036 404.022 381.823 402.764C383.465 400.137 386.597 398.517 389.69 398.695C390.868 398.763 392.275 399.344 392.353 400.521C388.659 400.289 384.893 401.812 382.399 404.547C383.816 405.643 385.848 404.825 387.446 404.015C389.044 403.206 391.154 402.49 392.467 403.709Z" fill="#0F0F0F"/>
<path fill-rule="evenodd" clip-rule="evenodd" d="M195.826 414.187C196.886 415.248 197.326 415.733 197.326 417.294C197.326 418.854 196.48 419.855 195.051 420.313C194.393 420.525 193.481 420.363 193.31 419.693C198.07 418.721 196.321 416.646 195.826 414.187Z" fill="#0F0F0F"/>
<path fill-rule="evenodd" clip-rule="evenodd" d="M189.476 407.55C189.983 405.866 192.192 404.956 193.738 405.794C194.35 406.125 194.859 406.728 194.891 407.423C193.086 407.465 191.599 406.298 189.476 407.55Z" fill="#0F0F0F"/>
<path fill-rule="evenodd" clip-rule="evenodd" d="M193.797 422.59C191.611 424.163 183.728 417 193.797 422.59V422.59Z" fill="#0F0F0F"/>
</svg>
