<svg width="127" height="142" viewBox="0 0 127 142" fill="none" xmlns="http://www.w3.org/2000/svg">
<path d="M12.8945 23.8603C8.55439 32.0608 6.90787 41.581 7.92692 50.7892C8.96039 60.0479 12.5916 68.9485 18.6986 76.028C24.6093 82.8794 32.6651 87.7855 41.3359 90.2864C45.6727 91.5419 50.2062 92.1838 54.7255 92.163C59.2781 92.1436 63.9422 91.4804 68.2357 89.939C72.6577 88.3501 76.9518 85.6609 79.1963 81.3809C81.555 76.8497 82.206 71.4282 81.4419 66.4103C80.6604 61.3318 78.7123 56.3017 75.4959 52.2673C74.0673 50.4776 72.4395 48.8322 70.4432 47.6963C68.6677 46.6832 66.6682 45.9963 64.6542 45.6415C60.8773 44.9697 56.2928 45.2605 53.4815 48.2046C52.034 49.7214 51.2214 51.855 50.6154 53.8314C49.9154 56.1297 49.5027 58.5538 49.4639 60.9478C49.4266 63.3085 49.9135 65.7056 50.4148 68.0002C50.978 70.5504 51.7132 73.0516 52.61 75.5067C54.411 80.4038 56.8271 85.0818 59.8095 89.3688C62.7197 93.5561 66.1613 97.5372 70.1535 100.727C73.9941 103.808 78.4142 106.045 83.0931 107.542C93.5004 110.881 104.617 110.345 115.262 108.577C118.018 108.12 120.75 107.581 123.48 106.999C124.038 106.884 124.35 106.216 124.203 105.7C124.039 105.124 123.461 104.862 122.904 104.977C112.422 107.201 101.498 108.95 90.8065 107.222C86.2341 106.482 81.7442 105.15 77.6143 103.049C73.3805 100.889 69.7882 97.913 66.5672 94.4374C59.8293 87.177 54.9911 78.1069 52.6829 68.4793C52.1512 66.2699 51.634 63.9579 51.5745 61.6794C51.5236 59.5078 51.8525 57.3263 52.4037 55.2344C52.8898 53.4124 53.5825 51.2801 54.8018 49.883C55.8709 48.6491 57.3368 48.0015 58.9556 47.6601C62.5079 46.9313 66.611 47.8272 69.713 49.6971C71.4927 50.7636 73.0051 52.3873 74.2489 54.0657C75.7062 56.033 76.8747 58.2139 77.7326 60.4942C79.4341 65.0044 80.1536 69.9039 79.2516 74.6755C78.8245 76.9725 78.0841 79.2823 76.8356 81.2671C75.7055 83.054 74.1079 84.5043 72.3342 85.6441C68.6467 88.0073 64.2365 89.1775 59.9205 89.7197C55.678 90.2518 51.3435 90.1543 47.1162 89.436C38.7106 88.0182 30.6786 84.3076 24.2793 78.6559C17.6909 72.8394 13.1711 65.0777 11.0803 56.5577C8.99822 48.068 9.35079 38.9933 12.1966 30.7271C12.8906 28.7146 13.745 26.7658 14.7393 24.8864C15.3579 23.6825 13.5261 22.6636 12.8945 23.8603Z" fill="#0F0F0F"/>
<path d="M120.993 115.373C120.996 115.23 121.012 115.094 121.025 114.948C121.018 115.038 121.001 115.13 120.993 115.22C121.118 114.277 121.451 113.373 121.766 112.485C122.09 111.551 122.427 110.625 122.774 109.695C122.973 109.168 123.183 108.638 123.392 108.108C123.362 108.194 123.329 108.269 123.288 108.357C123.528 107.742 123.804 107.138 124.031 106.516C124.318 105.757 124.14 104.867 123.498 104.34C123.042 103.967 122.491 103.72 121.978 103.418C121.508 103.148 121.044 102.864 120.598 102.565C120.087 102.23 119.584 101.882 119.1 101.528C119.171 101.584 119.239 101.63 119.319 101.684C117.992 100.707 116.755 99.6279 115.599 98.4491C115.274 98.1154 114.946 97.7716 114.626 97.4148C114.462 97.2212 114.137 97.1172 113.887 97.1228C113.624 97.1212 113.309 97.2438 113.137 97.4459C112.966 97.6479 112.831 97.9049 112.845 98.185C112.863 98.4752 112.975 98.7164 113.168 98.9345C115.186 101.179 117.523 103.125 120.075 104.715C120.421 104.933 120.775 105.138 121.128 105.344C121.479 105.539 121.857 105.715 122.186 105.949C122.116 105.893 122.048 105.847 121.967 105.793C122.051 105.857 122.124 105.923 122.204 106.01C122.15 105.938 122.087 105.868 122.033 105.796C122.084 105.858 122.124 105.923 122.155 105.991C122.119 105.903 122.082 105.815 122.036 105.73C122.064 105.787 122.084 105.858 122.091 105.922C122.075 105.828 122.059 105.734 122.054 105.637C122.064 105.711 122.061 105.777 122.058 105.844C122.065 105.754 122.083 105.662 122.09 105.572C122.069 105.731 122.023 105.875 121.967 106.023C121.997 105.938 122.03 105.862 122.071 105.774C121.092 108.207 120.1 110.632 119.315 113.13C119.084 113.851 118.922 114.586 118.888 115.35C118.876 115.616 119.029 115.922 119.211 116.1C119.393 116.277 119.693 116.41 119.95 116.392C120.542 116.398 120.964 115.96 120.993 115.373Z" fill="#0F0F0F"/>
</svg>
