<svg width="71" height="71" viewBox="0 0 71 71" fill="none" xmlns="http://www.w3.org/2000/svg">
<path d="M2.97434 5.94859C4.617 5.94859 5.94857 4.61695 5.94857 2.9743C5.94857 1.33164 4.617 0 2.97434 0C1.33168 0 0 1.33164 0 2.9743C0 4.61695 1.33168 5.94859 2.97434 5.94859Z" fill="#CFC9F3"/>
<path d="M15.9762 5.94859C17.6188 5.94859 18.9505 4.61695 18.9505 2.9743C18.9505 1.33164 17.6188 0 15.9762 0C14.3335 0 13.002 1.33164 13.002 2.9743C13.002 4.61695 14.3335 5.94859 15.9762 5.94859Z" fill="#CFC9F3"/>
<path d="M28.9763 5.94859C30.619 5.94859 31.9505 4.61695 31.9505 2.9743C31.9505 1.33164 30.619 0 28.9763 0C27.3336 0 26.002 1.33164 26.002 2.9743C26.002 4.61695 27.3336 5.94859 28.9763 5.94859Z" fill="#CFC9F3"/>
<path d="M42.0016 5.94859C43.6442 5.94859 44.9759 4.61695 44.9759 2.9743C44.9759 1.33164 43.6442 0 42.0016 0C40.3589 0 39.0273 1.33164 39.0273 2.9743C39.0273 4.61695 40.3589 5.94859 42.0016 5.94859Z" fill="#CFC9F3"/>
<path d="M55.0017 5.94859C56.6443 5.94859 57.9759 4.61695 57.9759 2.9743C57.9759 1.33164 56.6443 0 55.0017 0C53.359 0 52.0273 1.33164 52.0273 2.9743C52.0273 4.61695 53.359 5.94859 55.0017 5.94859Z" fill="#CFC9F3"/>
<path d="M68.027 5.94859C69.6696 5.94859 71.0013 4.61695 71.0013 2.9743C71.0013 1.33164 69.6696 0 68.027 0C66.3843 0 65.0527 1.33164 65.0527 2.9743C65.0527 4.61695 66.3843 5.94859 68.027 5.94859Z" fill="#CFC9F3"/>
<path d="M2.97434 16.6739C4.617 16.6739 5.94857 15.3423 5.94857 13.6996C5.94857 12.057 4.617 10.7253 2.97434 10.7253C1.33168 10.7253 0 12.057 0 13.6996C0 15.3423 1.33168 16.6739 2.97434 16.6739Z" fill="#CFC9F3"/>
<path d="M15.9762 16.6739C17.6188 16.6739 18.9505 15.3423 18.9505 13.6996C18.9505 12.057 17.6188 10.7253 15.9762 10.7253C14.3335 10.7253 13.002 12.057 13.002 13.6996C13.002 15.3423 14.3335 16.6739 15.9762 16.6739Z" fill="#CFC9F3"/>
<path d="M28.9763 16.6739C30.619 16.6739 31.9505 15.3423 31.9505 13.6996C31.9505 12.057 30.619 10.7253 28.9763 10.7253C27.3336 10.7253 26.002 12.057 26.002 13.6996C26.002 15.3423 27.3336 16.6739 28.9763 16.6739Z" fill="#CFC9F3"/>
<path d="M42.0016 16.6739C43.6442 16.6739 44.9759 15.3423 44.9759 13.6996C44.9759 12.057 43.6442 10.7253 42.0016 10.7253C40.3589 10.7253 39.0273 12.057 39.0273 13.6996C39.0273 15.3423 40.3589 16.6739 42.0016 16.6739Z" fill="#CFC9F3"/>
<path d="M55.0017 16.6739C56.6443 16.6739 57.9759 15.3423 57.9759 13.6996C57.9759 12.057 56.6443 10.7253 55.0017 10.7253C53.359 10.7253 52.0273 12.057 52.0273 13.6996C52.0273 15.3423 53.359 16.6739 55.0017 16.6739Z" fill="#CFC9F3"/>
<path d="M68.027 16.6739C69.6696 16.6739 71.0013 15.3423 71.0013 13.6996C71.0013 12.057 69.6696 10.7253 68.027 10.7253C66.3843 10.7253 65.0527 12.057 65.0527 13.6996C65.0527 15.3423 66.3843 16.6739 68.027 16.6739Z" fill="#CFC9F3"/>
<path d="M2.97434 27.3995C4.617 27.3995 5.94857 26.0679 5.94857 24.4252C5.94857 22.7826 4.617 21.4509 2.97434 21.4509C1.33168 21.4509 0 22.7826 0 24.4252C0 26.0679 1.33168 27.3995 2.97434 27.3995Z" fill="#CFC9F3"/>
<path d="M15.9762 27.3995C17.6188 27.3995 18.9505 26.0679 18.9505 24.4252C18.9505 22.7826 17.6188 21.4509 15.9762 21.4509C14.3335 21.4509 13.002 22.7826 13.002 24.4252C13.002 26.0679 14.3335 27.3995 15.9762 27.3995Z" fill="#CFC9F3"/>
<path d="M28.9763 27.3995C30.619 27.3995 31.9505 26.0679 31.9505 24.4252C31.9505 22.7826 30.619 21.4509 28.9763 21.4509C27.3336 21.4509 26.002 22.7826 26.002 24.4252C26.002 26.0679 27.3336 27.3995 28.9763 27.3995Z" fill="#CFC9F3"/>
<path d="M42.0016 27.3995C43.6442 27.3995 44.9759 26.0679 44.9759 24.4252C44.9759 22.7826 43.6442 21.4509 42.0016 21.4509C40.3589 21.4509 39.0273 22.7826 39.0273 24.4252C39.0273 26.0679 40.3589 27.3995 42.0016 27.3995Z" fill="#CFC9F3"/>
<path d="M55.0017 27.3995C56.6443 27.3995 57.9759 26.0679 57.9759 24.4252C57.9759 22.7826 56.6443 21.4509 55.0017 21.4509C53.359 21.4509 52.0273 22.7826 52.0273 24.4252C52.0273 26.0679 53.359 27.3995 55.0017 27.3995Z" fill="#CFC9F3"/>
<path d="M68.027 27.3995C69.6696 27.3995 71.0013 26.0679 71.0013 24.4252C71.0013 22.7826 69.6696 21.4509 68.027 21.4509C66.3843 21.4509 65.0527 22.7826 65.0527 24.4252C65.0527 26.0679 66.3843 27.3995 68.027 27.3995Z" fill="#CFC9F3"/>
<path d="M2.97434 38.1253C4.617 38.1253 5.94857 36.7937 5.94857 35.1511C5.94857 33.5084 4.617 32.1768 2.97434 32.1768C1.33168 32.1768 0 33.5084 0 35.1511C0 36.7937 1.33168 38.1253 2.97434 38.1253Z" fill="#CFC9F3"/>
<path d="M15.9762 38.1253C17.6188 38.1253 18.9505 36.7937 18.9505 35.1511C18.9505 33.5084 17.6188 32.1768 15.9762 32.1768C14.3335 32.1768 13.002 33.5084 13.002 35.1511C13.002 36.7937 14.3335 38.1253 15.9762 38.1253Z" fill="#CFC9F3"/>
<path d="M28.9763 38.1253C30.619 38.1253 31.9505 36.7937 31.9505 35.1511C31.9505 33.5084 30.619 32.1768 28.9763 32.1768C27.3336 32.1768 26.002 33.5084 26.002 35.1511C26.002 36.7937 27.3336 38.1253 28.9763 38.1253Z" fill="#CFC9F3"/>
<path d="M42.0016 38.1253C43.6442 38.1253 44.9759 36.7937 44.9759 35.1511C44.9759 33.5084 43.6442 32.1768 42.0016 32.1768C40.3589 32.1768 39.0273 33.5084 39.0273 35.1511C39.0273 36.7937 40.3589 38.1253 42.0016 38.1253Z" fill="#CFC9F3"/>
<path d="M55.0017 38.1253C56.6443 38.1253 57.9759 36.7937 57.9759 35.1511C57.9759 33.5084 56.6443 32.1768 55.0017 32.1768C53.359 32.1768 52.0273 33.5084 52.0273 35.1511C52.0273 36.7937 53.359 38.1253 55.0017 38.1253Z" fill="#CFC9F3"/>
<path d="M68.027 38.1253C69.6696 38.1253 71.0013 36.7937 71.0013 35.1511C71.0013 33.5084 69.6696 32.1768 68.027 32.1768C66.3843 32.1768 65.0527 33.5084 65.0527 35.1511C65.0527 36.7937 66.3843 38.1253 68.027 38.1253Z" fill="#CFC9F3"/>
<path d="M2.97434 48.8507C4.617 48.8507 5.94857 47.5191 5.94857 45.8764C5.94857 44.2337 4.617 42.9021 2.97434 42.9021C1.33168 42.9021 0 44.2337 0 45.8764C0 47.5191 1.33168 48.8507 2.97434 48.8507Z" fill="#CFC9F3"/>
<path d="M15.9762 48.8507C17.6188 48.8507 18.9505 47.5191 18.9505 45.8764C18.9505 44.2337 17.6188 42.9021 15.9762 42.9021C14.3335 42.9021 13.002 44.2337 13.002 45.8764C13.002 47.5191 14.3335 48.8507 15.9762 48.8507Z" fill="#CFC9F3"/>
<path d="M28.9763 48.8507C30.619 48.8507 31.9505 47.5191 31.9505 45.8764C31.9505 44.2337 30.619 42.9021 28.9763 42.9021C27.3336 42.9021 26.002 44.2337 26.002 45.8764C26.002 47.5191 27.3336 48.8507 28.9763 48.8507Z" fill="#CFC9F3"/>
<path d="M42.0016 48.8507C43.6442 48.8507 44.9759 47.5191 44.9759 45.8764C44.9759 44.2337 43.6442 42.9021 42.0016 42.9021C40.3589 42.9021 39.0273 44.2337 39.0273 45.8764C39.0273 47.5191 40.3589 48.8507 42.0016 48.8507Z" fill="#CFC9F3"/>
<path d="M55.0017 48.8507C56.6443 48.8507 57.9759 47.5191 57.9759 45.8764C57.9759 44.2337 56.6443 42.9021 55.0017 42.9021C53.359 42.9021 52.0273 44.2337 52.0273 45.8764C52.0273 47.5191 53.359 48.8507 55.0017 48.8507Z" fill="#CFC9F3"/>
<path d="M68.027 48.8507C69.6696 48.8507 71.0013 47.5191 71.0013 45.8764C71.0013 44.2337 69.6696 42.9021 68.027 42.9021C66.3843 42.9021 65.0527 44.2337 65.0527 45.8764C65.0527 47.5191 66.3843 48.8507 68.027 48.8507Z" fill="#CFC9F3"/>
<path d="M2.97434 59.576C4.617 59.576 5.94857 58.2444 5.94857 56.6017C5.94857 54.9591 4.617 53.6274 2.97434 53.6274C1.33168 53.6274 0 54.9591 0 56.6017C0 58.2444 1.33168 59.576 2.97434 59.576Z" fill="#CFC9F3"/>
<path d="M15.9762 59.576C17.6188 59.576 18.9505 58.2444 18.9505 56.6017C18.9505 54.9591 17.6188 53.6274 15.9762 53.6274C14.3335 53.6274 13.002 54.9591 13.002 56.6017C13.002 58.2444 14.3335 59.576 15.9762 59.576Z" fill="#CFC9F3"/>
<path d="M28.9763 59.576C30.619 59.576 31.9505 58.2444 31.9505 56.6017C31.9505 54.9591 30.619 53.6274 28.9763 53.6274C27.3336 53.6274 26.002 54.9591 26.002 56.6017C26.002 58.2444 27.3336 59.576 28.9763 59.576Z" fill="#CFC9F3"/>
<path d="M42.0016 59.576C43.6442 59.576 44.9759 58.2444 44.9759 56.6017C44.9759 54.9591 43.6442 53.6274 42.0016 53.6274C40.3589 53.6274 39.0273 54.9591 39.0273 56.6017C39.0273 58.2444 40.3589 59.576 42.0016 59.576Z" fill="#CFC9F3"/>
<path d="M55.0017 59.576C56.6443 59.576 57.9759 58.2444 57.9759 56.6017C57.9759 54.9591 56.6443 53.6274 55.0017 53.6274C53.359 53.6274 52.0273 54.9591 52.0273 56.6017C52.0273 58.2444 53.359 59.576 55.0017 59.576Z" fill="#CFC9F3"/>
<path d="M68.027 59.576C69.6696 59.576 71.0013 58.2444 71.0013 56.6017C71.0013 54.9591 69.6696 53.6274 68.027 53.6274C66.3843 53.6274 65.0527 54.9591 65.0527 56.6017C65.0527 58.2444 66.3843 59.576 68.027 59.576Z" fill="#CFC9F3"/>
<path d="M2.97434 70.3016C4.617 70.3016 5.94857 68.97 5.94857 67.3273C5.94857 65.6847 4.617 64.353 2.97434 64.353C1.33168 64.353 0 65.6847 0 67.3273C0 68.97 1.33168 70.3016 2.97434 70.3016Z" fill="#CFC9F3"/>
<path d="M15.9762 70.3016C17.6188 70.3016 18.9505 68.97 18.9505 67.3273C18.9505 65.6847 17.6188 64.353 15.9762 64.353C14.3335 64.353 13.002 65.6847 13.002 67.3273C13.002 68.97 14.3335 70.3016 15.9762 70.3016Z" fill="#CFC9F3"/>
<path d="M28.9763 70.3016C30.619 70.3016 31.9505 68.97 31.9505 67.3273C31.9505 65.6847 30.619 64.353 28.9763 64.353C27.3336 64.353 26.002 65.6847 26.002 67.3273C26.002 68.97 27.3336 70.3016 28.9763 70.3016Z" fill="#CFC9F3"/>
<path d="M42.0016 70.3016C43.6442 70.3016 44.9759 68.97 44.9759 67.3273C44.9759 65.6847 43.6442 64.353 42.0016 64.353C40.3589 64.353 39.0273 65.6847 39.0273 67.3273C39.0273 68.97 40.3589 70.3016 42.0016 70.3016Z" fill="#CFC9F3"/>
<path d="M55.0017 70.3016C56.6443 70.3016 57.9759 68.97 57.9759 67.3273C57.9759 65.6847 56.6443 64.353 55.0017 64.353C53.359 64.353 52.0273 65.6847 52.0273 67.3273C52.0273 68.97 53.359 70.3016 55.0017 70.3016Z" fill="#CFC9F3"/>
<path d="M68.027 70.3016C69.6696 70.3016 71.0013 68.97 71.0013 67.3273C71.0013 65.6847 69.6696 64.353 68.027 64.353C66.3843 64.353 65.0527 65.6847 65.0527 67.3273C65.0527 68.97 66.3843 70.3016 68.027 70.3016Z" fill="#CFC9F3"/>
</svg>
