<svg width="56" height="56" viewBox="0 0 56 56" fill="none" xmlns="http://www.w3.org/2000/svg">
<path d="M29.2145 0H26.5195V55.7318H29.2145V0Z" fill="#0F0F0F"/>
<path d="M55.7318 26.5188H0V29.2138H55.7318V26.5188Z" fill="#0F0F0F"/>
<path d="M9.11069 7.20694L7.20508 9.11255L46.613 48.5205L48.5186 46.6149L9.11069 7.20694Z" fill="#0F0F0F"/>
<path d="M46.613 7.20678L7.20508 46.6147L9.11069 48.5204L48.5187 9.11239L46.613 7.20678Z" fill="#0F0F0F"/>
<path d="M2.5754 16.1131L1.55859 18.6089L53.1718 39.6365L54.1886 37.1407L2.5754 16.1131Z" fill="#0F0F0F"/>
<path d="M37.1409 1.56328L16.1133 53.1765L18.6091 54.1933L39.6367 2.58009L37.1409 1.56328Z" fill="#0F0F0F"/>
<path d="M53.2356 16.2076L1.5332 37.0178L2.5395 39.5179L54.2419 18.7077L53.2356 16.2076Z" fill="#0F0F0F"/>
<path d="M18.6974 1.53206L16.1973 2.53809L37.0019 54.2405L39.5021 53.2344L18.6974 1.53206Z" fill="#0F0F0F"/>
</svg>
