<svg width="26" height="27" viewBox="0 0 26 27" fill="none" xmlns="http://www.w3.org/2000/svg">
<g id="basic/location">
<path id="Icon" d="M13.1224 22.8993C11.804 21.7747 10.5819 20.5417 9.46892 19.2134C7.79875 17.2186 5.81543 14.2478 5.81543 11.4169C5.81395 8.4602 7.59442 5.79404 10.326 4.66251C13.0576 3.53098 16.2018 4.15712 18.2916 6.24875C19.6658 7.61683 20.4356 9.4778 20.4294 11.4169C20.4294 14.2478 18.4461 17.2186 16.7759 19.2134C15.663 20.5417 14.4409 21.7747 13.1224 22.8993ZM13.1224 8.28531C12.0036 8.28531 10.9698 8.88218 10.4104 9.85109C9.851 10.82 9.851 12.0137 10.4104 12.9827C10.9698 13.9516 12.0036 14.5484 13.1224 14.5484C14.8519 14.5484 16.254 13.1464 16.254 11.4169C16.254 9.68736 14.8519 8.28531 13.1224 8.28531Z" fill="#FEA1A1"/>
</g>
</svg>
